M48
; DRILL file {KiCad 8.0.1-8.0.1-0~ubuntu23.10.1} date 2024-04-27T18:00:35-0400
; FORMAT={-:-/ absolute / inch / decimal}
; #@! TF.CreationDate,2024-04-27T18:00:35-04:00
; #@! TF.GenerationSoftware,Kicad,Pcbnew,8.0.1-8.0.1-0~ubuntu23.10.1
; #@! TF.FileFunction,NonPlated,1,4,NPTH
FMAT,2
INCH
; #@! TA.AperFunction,NonPlated,NPTH,ComponentDrill
T1C0.0390
; #@! TA.AperFunction,NonPlated,NPTH,ComponentDrill
T2C0.0689
; #@! TA.AperFunction,NonPlated,NPTH,ComponentDrill
T3C0.1570
%
G90
G05
T1
X5.9937Y-3.5625
X6.1937Y-3.5225
X6.1937Y-3.6025
T2
X2.3781Y-2.9062
X2.3781Y-4.4062
X2.4719Y-3.6562
X2.7781Y-2.9062
X2.7781Y-4.4062
X2.8719Y-3.6562
X3.1281Y-2.9062
X3.3156Y-3.6562
X3.3156Y-4.4062
X3.5281Y-2.9062
X3.7156Y-3.6562
X3.7156Y-4.4062
X3.8781Y-2.9062
X4.0656Y-3.6562
X4.2531Y-4.4062
X4.2781Y-2.9062
X4.4656Y-3.6562
X4.6281Y-2.9062
X4.6531Y-4.4062
X4.8156Y-3.6562
X5.0031Y-4.4062
X5.0281Y-2.9062
X5.2156Y-3.6562
X5.4031Y-4.4062
X5.6594Y-2.9062
X5.8469Y-4.0312
X6.0594Y-2.9062
X6.2469Y-4.0312
T3
X2.5781Y-2.9062
X2.5781Y-2.9062
X2.5781Y-4.4062
X2.5781Y-4.4062
X2.6719Y-3.6562
X3.3281Y-2.9062
X3.5156Y-3.6562
X3.5156Y-4.4062
X4.0781Y-2.9062
X4.2656Y-3.6562
X4.4531Y-4.4062
X4.8281Y-2.9062
X5.0156Y-3.6562
X5.2031Y-4.4062
X5.8594Y-2.9062
X6.0469Y-4.0312
X6.3719Y-3.5625
X6.3719Y-4.5
M30
