%TF.GenerationSoftware,KiCad,Pcbnew,8.0.1-8.0.1-0~ubuntu23.10.1*%
%TF.CreationDate,2024-04-27T18:00:35-04:00*%
%TF.ProjectId,FunnyNumpad,46756e6e-794e-4756-9d70-61642e6b6963,rev?*%
%TF.SameCoordinates,Original*%
%TF.FileFunction,Copper,L2,Inr*%
%TF.FilePolarity,Positive*%
%FSLAX46Y46*%
G04 Gerber Fmt 4.6, Leading zero omitted, Abs format (unit mm)*
G04 Created by KiCad (PCBNEW 8.0.1-8.0.1-0~ubuntu23.10.1) date 2024-04-27 18:00:35*
%MOMM*%
%LPD*%
G01*
G04 APERTURE LIST*
%TA.AperFunction,ComponentPad*%
%ADD10C,4.000000*%
%TD*%
%TA.AperFunction,ComponentPad*%
%ADD11C,3.300000*%
%TD*%
%TA.AperFunction,HeatsinkPad*%
%ADD12C,0.500000*%
%TD*%
%TA.AperFunction,ViaPad*%
%ADD13C,0.500000*%
%TD*%
%TA.AperFunction,ViaPad*%
%ADD14C,0.600000*%
%TD*%
G04 APERTURE END LIST*
D10*
%TO.N,*%
%TO.C,STAB10*%
X146605625Y-90487500D03*
X146605625Y-114300000D03*
%TD*%
D11*
%TO.N,Net-(D204-K-Pad2)*%
%TO.C,MX12*%
X91836875Y-106838750D03*
%TO.N,/COL1*%
X85486875Y-109378750D03*
%TD*%
%TO.N,Net-(Q202-D)*%
%TO.C,MX11*%
X68024375Y-106838750D03*
%TO.N,/COL0*%
X61674375Y-109378750D03*
%TD*%
%TO.N,Net-(D202-K-Pad1)*%
%TO.C,MX3*%
X106124375Y-68738750D03*
%TO.N,/COL2*%
X99774375Y-71278750D03*
%TD*%
%TO.N,Net-(D207-K-Pad2)*%
%TO.C,MX10*%
X156130625Y-97313750D03*
%TO.N,/COL4*%
X149780625Y-99853750D03*
%TD*%
%TO.N,Net-(D205-K-Pad1)*%
%TO.C,MX13*%
X115649375Y-106838750D03*
%TO.N,/COL2*%
X109299375Y-109378750D03*
%TD*%
D12*
%TO.N,GND*%
%TO.C,U102*%
X139112500Y-96631250D03*
X138112500Y-96631250D03*
X137112500Y-96631250D03*
X139112500Y-97631250D03*
X138112500Y-97631250D03*
X137112500Y-97631250D03*
X139112500Y-98631250D03*
X138112500Y-98631250D03*
X137112500Y-98631250D03*
%TD*%
D11*
%TO.N,Net-(D203-K-Pad2)*%
%TO.C,MX7*%
X91836875Y-87788750D03*
%TO.N,/COL1*%
X85486875Y-90328750D03*
%TD*%
%TO.N,Net-(D206-K-Pad2)*%
%TO.C,MX9*%
X129936875Y-87788750D03*
%TO.N,/COL3*%
X123586875Y-90328750D03*
%TD*%
%TO.N,Net-(Q201-D)*%
%TO.C,MX1*%
X68024375Y-68738750D03*
%TO.N,/COL0*%
X61674375Y-71278750D03*
%TD*%
%TO.N,Net-(D202-K-Pad2)*%
%TO.C,MX4*%
X125174375Y-68738750D03*
%TO.N,/COL3*%
X118824375Y-71278750D03*
%TD*%
%TO.N,Net-(D206-K-Pad1)*%
%TO.C,MX8*%
X110886875Y-87788750D03*
%TO.N,/COL2*%
X104536875Y-90328750D03*
%TD*%
%TO.N,Net-(D203-K-Pad1)*%
%TO.C,MX6*%
X70405625Y-87788750D03*
%TO.N,/COL0*%
X64055625Y-90328750D03*
%TD*%
%TO.N,Net-(D207-K-Pad1)*%
%TO.C,MX5*%
X151368125Y-68738750D03*
%TO.N,/COL4*%
X145018125Y-71278750D03*
%TD*%
%TO.N,Net-(D205-K-Pad2)*%
%TO.C,MX14*%
X134699375Y-106838750D03*
%TO.N,/COL3*%
X128349375Y-109378750D03*
%TD*%
%TO.N,Net-(D201-K-Pad2)*%
%TO.C,MX2*%
X87074375Y-68738750D03*
%TO.N,/COL1*%
X80724375Y-71278750D03*
%TD*%
D13*
%TO.N,GND*%
X158820000Y-114810000D03*
%TO.N,+3.3V*%
X157610000Y-116170000D03*
%TO.N,Net-(U102-PH3)*%
X145500000Y-107260000D03*
X143590000Y-107260000D03*
D14*
%TO.N,/ENC2A*%
X73790000Y-102890000D03*
%TO.N,/ENC2B*%
X72510000Y-102870000D03*
%TO.N,/ENC1B*%
X67710000Y-79530000D03*
%TO.N,/ENC1A*%
X69000000Y-79530000D03*
%TO.N,/ROW0*%
X154240000Y-95380000D03*
X153590000Y-80980000D03*
D13*
%TO.N,GND*%
X140700000Y-85400000D03*
X136360000Y-92150000D03*
X141560000Y-101546875D03*
X156050000Y-88990000D03*
X141560000Y-102566875D03*
X139010000Y-91370000D03*
X63220000Y-75320000D03*
X139950000Y-90270000D03*
X138900000Y-79470000D03*
X63050000Y-113420000D03*
%TO.N,+3.3V*%
X137860000Y-100840000D03*
X60900000Y-81310000D03*
X136360000Y-94360000D03*
X63420000Y-119440000D03*
X139965000Y-100865000D03*
X138050000Y-91370000D03*
X153510000Y-88990000D03*
%TO.N,/SWDIO*%
X153500000Y-91980000D03*
X153500000Y-94070000D03*
%TO.N,/~{RST}*%
X138430000Y-103440000D03*
X148560000Y-86660000D03*
%TO.N,Net-(Q201-G)*%
X60460000Y-78770000D03*
%TO.N,Net-(Q202-G)*%
X60390000Y-117820000D03*
%TD*%
%TA.AperFunction,Conductor*%
%TO.N,+3.3V*%
G36*
X162930988Y-64794251D02*
G01*
X162992814Y-64794250D01*
X163000923Y-64794514D01*
X163249763Y-64810823D01*
X163265830Y-64812938D01*
X163506414Y-64860791D01*
X163522080Y-64864988D01*
X163754367Y-64943838D01*
X163769338Y-64950040D01*
X163972762Y-65050358D01*
X163989335Y-65058531D01*
X164003383Y-65066641D01*
X164207338Y-65202920D01*
X164220202Y-65212791D01*
X164404620Y-65374522D01*
X164416090Y-65385992D01*
X164577819Y-65570412D01*
X164587693Y-65583280D01*
X164723970Y-65787236D01*
X164732080Y-65801284D01*
X164840564Y-66021276D01*
X164846771Y-66036261D01*
X164925615Y-66268536D01*
X164929813Y-66284204D01*
X164977663Y-66524781D01*
X164979780Y-66540863D01*
X164996109Y-66790075D01*
X164996374Y-66798184D01*
X164996373Y-66868255D01*
X164996375Y-66868284D01*
X164996375Y-118870250D01*
X164996373Y-118870284D01*
X164996374Y-118939696D01*
X164996109Y-118947805D01*
X164979805Y-119196639D01*
X164977688Y-119212722D01*
X164929837Y-119453302D01*
X164925639Y-119468969D01*
X164846796Y-119701245D01*
X164840589Y-119716231D01*
X164732100Y-119936231D01*
X164723990Y-119950278D01*
X164587713Y-120154234D01*
X164577839Y-120167102D01*
X164416107Y-120351524D01*
X164404637Y-120362994D01*
X164220217Y-120524728D01*
X164207349Y-120534602D01*
X164003394Y-120670880D01*
X163989347Y-120678990D01*
X163769348Y-120787482D01*
X163754362Y-120793689D01*
X163522095Y-120872532D01*
X163506427Y-120876731D01*
X163265840Y-120924585D01*
X163249759Y-120926702D01*
X163001305Y-120942984D01*
X162993196Y-120943249D01*
X162923394Y-120943249D01*
X162923378Y-120943250D01*
X58463433Y-120943250D01*
X58455323Y-120942984D01*
X58432397Y-120941481D01*
X58206510Y-120926673D01*
X58190429Y-120924556D01*
X57949854Y-120876699D01*
X57934187Y-120872501D01*
X57701918Y-120793653D01*
X57686933Y-120787446D01*
X57466937Y-120678953D01*
X57452893Y-120670845D01*
X57248933Y-120534559D01*
X57236090Y-120524704D01*
X57051659Y-120362957D01*
X57040196Y-120351493D01*
X56878471Y-120167076D01*
X56868597Y-120154207D01*
X56732322Y-119950249D01*
X56724212Y-119936202D01*
X56615731Y-119716215D01*
X56609524Y-119701230D01*
X56530679Y-119468948D01*
X56526486Y-119453298D01*
X56478634Y-119212706D01*
X56476520Y-119196639D01*
X56460139Y-118946659D01*
X56459875Y-118938549D01*
X56459877Y-118877868D01*
X56459875Y-118877863D01*
X56459876Y-118870284D01*
X56459875Y-118870250D01*
X56459875Y-117820002D01*
X59634751Y-117820002D01*
X59653685Y-117988056D01*
X59709545Y-118147694D01*
X59709547Y-118147697D01*
X59799518Y-118290884D01*
X59799523Y-118290890D01*
X59919109Y-118410476D01*
X59919115Y-118410481D01*
X60062302Y-118500452D01*
X60062305Y-118500454D01*
X60062309Y-118500455D01*
X60062310Y-118500456D01*
X60134913Y-118525860D01*
X60221943Y-118556314D01*
X60389997Y-118575249D01*
X60390000Y-118575249D01*
X60390003Y-118575249D01*
X60558056Y-118556314D01*
X60558059Y-118556313D01*
X60717690Y-118500456D01*
X60717692Y-118500454D01*
X60717694Y-118500454D01*
X60717697Y-118500452D01*
X60860884Y-118410481D01*
X60860885Y-118410480D01*
X60860890Y-118410477D01*
X60980477Y-118290890D01*
X61070452Y-118147697D01*
X61070454Y-118147694D01*
X61070454Y-118147692D01*
X61070456Y-118147690D01*
X61126313Y-117988059D01*
X61126313Y-117988058D01*
X61126314Y-117988056D01*
X61145249Y-117820002D01*
X61145249Y-117819997D01*
X61126314Y-117651943D01*
X61070454Y-117492305D01*
X61070452Y-117492302D01*
X60980481Y-117349115D01*
X60980476Y-117349109D01*
X60860890Y-117229523D01*
X60860884Y-117229518D01*
X60717697Y-117139547D01*
X60717694Y-117139545D01*
X60558056Y-117083685D01*
X60390003Y-117064751D01*
X60389997Y-117064751D01*
X60221943Y-117083685D01*
X60062305Y-117139545D01*
X60062302Y-117139547D01*
X59919115Y-117229518D01*
X59919109Y-117229523D01*
X59799523Y-117349109D01*
X59799518Y-117349115D01*
X59709547Y-117492302D01*
X59709545Y-117492305D01*
X59653685Y-117651943D01*
X59634751Y-117819997D01*
X59634751Y-117820002D01*
X56459875Y-117820002D01*
X56459875Y-114300005D01*
X144100181Y-114300005D01*
X144119935Y-114614004D01*
X144119936Y-114614011D01*
X144143740Y-114738796D01*
X144157323Y-114810002D01*
X144178895Y-114923083D01*
X144276122Y-115222316D01*
X144276124Y-115222321D01*
X144410086Y-115507003D01*
X144410089Y-115507009D01*
X144578676Y-115772661D01*
X144578679Y-115772665D01*
X144779231Y-116015090D01*
X144779233Y-116015092D01*
X145008593Y-116230476D01*
X145008603Y-116230484D01*
X145263129Y-116415408D01*
X145263134Y-116415410D01*
X145263141Y-116415416D01*
X145538859Y-116566994D01*
X145538864Y-116566996D01*
X145538866Y-116566997D01*
X145538867Y-116566998D01*
X145831396Y-116682818D01*
X145831399Y-116682819D01*
X146136148Y-116761065D01*
X146136152Y-116761066D01*
X146201635Y-116769338D01*
X146448295Y-116800499D01*
X146448304Y-116800499D01*
X146448307Y-116800500D01*
X146448309Y-116800500D01*
X146762941Y-116800500D01*
X146762943Y-116800500D01*
X146762946Y-116800499D01*
X146762954Y-116800499D01*
X146949218Y-116776968D01*
X147075098Y-116761066D01*
X147379850Y-116682819D01*
X147379853Y-116682818D01*
X147672382Y-116566998D01*
X147672383Y-116566997D01*
X147672381Y-116566997D01*
X147672391Y-116566994D01*
X147948109Y-116415416D01*
X148202655Y-116230478D01*
X148432015Y-116015094D01*
X148632572Y-115772663D01*
X148801162Y-115507007D01*
X148935128Y-115222315D01*
X149032356Y-114923079D01*
X149053927Y-114810002D01*
X158064751Y-114810002D01*
X158083685Y-114978056D01*
X158139545Y-115137694D01*
X158139547Y-115137697D01*
X158229518Y-115280884D01*
X158229523Y-115280890D01*
X158349109Y-115400476D01*
X158349115Y-115400481D01*
X158492302Y-115490452D01*
X158492305Y-115490454D01*
X158492309Y-115490455D01*
X158492310Y-115490456D01*
X158539616Y-115507009D01*
X158651943Y-115546314D01*
X158819997Y-115565249D01*
X158820000Y-115565249D01*
X158820003Y-115565249D01*
X158988056Y-115546314D01*
X158988059Y-115546313D01*
X159147690Y-115490456D01*
X159147692Y-115490454D01*
X159147694Y-115490454D01*
X159147697Y-115490452D01*
X159290884Y-115400481D01*
X159290885Y-115400480D01*
X159290890Y-115400477D01*
X159410477Y-115280890D01*
X159447282Y-115222316D01*
X159500452Y-115137697D01*
X159500453Y-115137695D01*
X159500453Y-115137694D01*
X159500456Y-115137690D01*
X159513523Y-115100344D01*
X159554242Y-115043571D01*
X159619194Y-115017822D01*
X159687756Y-115031277D01*
X159738160Y-115079663D01*
X159745125Y-115093847D01*
X159828362Y-115294799D01*
X159828367Y-115294810D01*
X159975465Y-115549589D01*
X159975476Y-115549605D01*
X160154573Y-115783009D01*
X160154579Y-115783016D01*
X160362608Y-115991045D01*
X160362615Y-115991051D01*
X160528830Y-116118592D01*
X160596028Y-116170155D01*
X160596035Y-116170159D01*
X160850814Y-116317257D01*
X160850830Y-116317265D01*
X161122630Y-116429847D01*
X161122632Y-116429847D01*
X161122638Y-116429850D01*
X161406825Y-116505998D01*
X161698519Y-116544400D01*
X161698526Y-116544400D01*
X161992724Y-116544400D01*
X161992731Y-116544400D01*
X162284425Y-116505998D01*
X162568612Y-116429850D01*
X162641943Y-116399475D01*
X162840419Y-116317265D01*
X162840422Y-116317263D01*
X162840428Y-116317261D01*
X163095222Y-116170155D01*
X163328636Y-115991050D01*
X163536675Y-115783011D01*
X163715780Y-115549597D01*
X163862886Y-115294803D01*
X163868652Y-115280884D01*
X163975472Y-115022994D01*
X163975471Y-115022994D01*
X163975475Y-115022987D01*
X164051623Y-114738800D01*
X164090025Y-114447106D01*
X164090025Y-114152894D01*
X164051623Y-113861200D01*
X163975475Y-113577013D01*
X163975472Y-113577005D01*
X163862890Y-113305205D01*
X163862882Y-113305189D01*
X163715784Y-113050410D01*
X163715780Y-113050403D01*
X163544616Y-112827338D01*
X163536676Y-112816990D01*
X163536670Y-112816983D01*
X163328641Y-112608954D01*
X163328634Y-112608948D01*
X163095230Y-112429851D01*
X163095228Y-112429849D01*
X163095222Y-112429845D01*
X163095217Y-112429842D01*
X163095214Y-112429840D01*
X162840435Y-112282742D01*
X162840419Y-112282734D01*
X162568619Y-112170152D01*
X162284421Y-112094001D01*
X161992741Y-112055601D01*
X161992736Y-112055600D01*
X161992731Y-112055600D01*
X161698519Y-112055600D01*
X161698513Y-112055600D01*
X161698508Y-112055601D01*
X161406828Y-112094001D01*
X161122630Y-112170152D01*
X160850830Y-112282734D01*
X160850814Y-112282742D01*
X160596035Y-112429840D01*
X160596019Y-112429851D01*
X160362615Y-112608948D01*
X160362608Y-112608954D01*
X160154579Y-112816983D01*
X160154573Y-112816990D01*
X159975476Y-113050394D01*
X159975465Y-113050410D01*
X159828367Y-113305189D01*
X159828359Y-113305205D01*
X159715777Y-113577005D01*
X159639626Y-113861203D01*
X159601226Y-114152883D01*
X159601225Y-114152900D01*
X159601225Y-114230496D01*
X159581540Y-114297535D01*
X159528736Y-114343290D01*
X159459578Y-114353234D01*
X159396022Y-114324209D01*
X159389544Y-114318177D01*
X159290890Y-114219523D01*
X159290884Y-114219518D01*
X159147697Y-114129547D01*
X159147694Y-114129545D01*
X158988056Y-114073685D01*
X158820003Y-114054751D01*
X158819997Y-114054751D01*
X158651943Y-114073685D01*
X158492305Y-114129545D01*
X158492302Y-114129547D01*
X158349115Y-114219518D01*
X158349109Y-114219523D01*
X158229523Y-114339109D01*
X158229518Y-114339115D01*
X158139547Y-114482302D01*
X158139545Y-114482305D01*
X158083685Y-114641943D01*
X158064751Y-114809997D01*
X158064751Y-114810002D01*
X149053927Y-114810002D01*
X149091313Y-114614015D01*
X149099599Y-114482310D01*
X149111069Y-114300005D01*
X149111069Y-114299994D01*
X149091314Y-113985995D01*
X149091313Y-113985988D01*
X149091313Y-113985985D01*
X149032356Y-113676921D01*
X148935128Y-113377685D01*
X148901021Y-113305205D01*
X148875957Y-113251941D01*
X148801162Y-113092993D01*
X148717900Y-112961792D01*
X148632573Y-112827338D01*
X148632570Y-112827334D01*
X148432018Y-112584909D01*
X148432016Y-112584907D01*
X148202656Y-112369523D01*
X148202646Y-112369515D01*
X147948120Y-112184591D01*
X147948113Y-112184586D01*
X147948109Y-112184584D01*
X147672391Y-112033006D01*
X147672388Y-112033004D01*
X147672383Y-112033002D01*
X147672382Y-112033001D01*
X147379853Y-111917181D01*
X147379850Y-111917180D01*
X147075101Y-111838934D01*
X147075088Y-111838932D01*
X146762954Y-111799500D01*
X146762943Y-111799500D01*
X146448307Y-111799500D01*
X146448295Y-111799500D01*
X146136161Y-111838932D01*
X146136148Y-111838934D01*
X145831399Y-111917180D01*
X145831396Y-111917181D01*
X145538867Y-112033001D01*
X145538866Y-112033002D01*
X145263141Y-112184584D01*
X145263129Y-112184591D01*
X145008603Y-112369515D01*
X145008593Y-112369523D01*
X144779233Y-112584907D01*
X144779231Y-112584909D01*
X144578679Y-112827334D01*
X144578676Y-112827338D01*
X144410089Y-113092990D01*
X144410086Y-113092996D01*
X144276124Y-113377678D01*
X144276122Y-113377683D01*
X144178895Y-113676916D01*
X144119936Y-113985988D01*
X144119935Y-113985995D01*
X144100181Y-114299994D01*
X144100181Y-114300005D01*
X56459875Y-114300005D01*
X56459875Y-112007328D01*
X59278875Y-112007328D01*
X59306589Y-112182306D01*
X59361331Y-112350789D01*
X59361332Y-112350792D01*
X59441761Y-112508640D01*
X59545892Y-112651964D01*
X59671161Y-112777233D01*
X59814485Y-112881364D01*
X59877659Y-112913553D01*
X59972332Y-112961792D01*
X59972335Y-112961793D01*
X60056576Y-112989164D01*
X60140820Y-113016536D01*
X60315796Y-113044250D01*
X60315797Y-113044250D01*
X60492953Y-113044250D01*
X60492954Y-113044250D01*
X60667930Y-113016536D01*
X60836417Y-112961792D01*
X60994265Y-112881364D01*
X61137589Y-112777233D01*
X61262858Y-112651964D01*
X61366989Y-112508640D01*
X61447417Y-112350792D01*
X61502161Y-112182305D01*
X61529875Y-112007329D01*
X61529875Y-111830171D01*
X61504925Y-111672646D01*
X61513879Y-111603355D01*
X61558875Y-111549903D01*
X61625627Y-111529263D01*
X61627398Y-111529250D01*
X61821474Y-111529250D01*
X61852895Y-111524930D01*
X62112930Y-111489190D01*
X62396216Y-111409817D01*
X62666057Y-111292609D01*
X62917424Y-111139749D01*
X63145635Y-110954085D01*
X63233864Y-110859614D01*
X63294006Y-110824056D01*
X63363827Y-110826658D01*
X63421158Y-110866596D01*
X63447796Y-110931188D01*
X63439047Y-110991704D01*
X63354527Y-111195755D01*
X63278376Y-111479953D01*
X63239976Y-111771633D01*
X63239975Y-111771650D01*
X63239975Y-112065849D01*
X63239976Y-112065866D01*
X63277486Y-112350789D01*
X63278377Y-112357550D01*
X63297748Y-112429845D01*
X63323291Y-112525169D01*
X63321628Y-112595019D01*
X63282466Y-112652882D01*
X63218237Y-112680386D01*
X63189633Y-112680483D01*
X63050004Y-112664751D01*
X63049997Y-112664751D01*
X62881943Y-112683685D01*
X62722305Y-112739545D01*
X62722302Y-112739547D01*
X62579115Y-112829518D01*
X62579109Y-112829523D01*
X62459523Y-112949109D01*
X62459518Y-112949115D01*
X62369547Y-113092302D01*
X62369545Y-113092305D01*
X62313685Y-113251943D01*
X62294751Y-113419997D01*
X62294751Y-113420002D01*
X62313685Y-113588056D01*
X62369545Y-113747694D01*
X62369547Y-113747697D01*
X62459518Y-113890884D01*
X62459523Y-113890890D01*
X62579109Y-114010476D01*
X62579115Y-114010481D01*
X62722302Y-114100452D01*
X62722305Y-114100454D01*
X62722309Y-114100455D01*
X62722310Y-114100456D01*
X62791733Y-114124748D01*
X62881943Y-114156314D01*
X63049997Y-114175249D01*
X63050000Y-114175249D01*
X63050003Y-114175249D01*
X63218056Y-114156314D01*
X63227861Y-114152883D01*
X63377690Y-114100456D01*
X63377692Y-114100454D01*
X63377694Y-114100454D01*
X63377697Y-114100452D01*
X63520884Y-114010481D01*
X63520885Y-114010480D01*
X63520890Y-114010477D01*
X63640477Y-113890890D01*
X63659133Y-113861200D01*
X63730452Y-113747697D01*
X63730455Y-113747691D01*
X63730456Y-113747690D01*
X63771242Y-113631128D01*
X63811964Y-113574353D01*
X63876916Y-113548605D01*
X63945478Y-113562061D01*
X63975965Y-113584402D01*
X64001358Y-113609795D01*
X64001364Y-113609800D01*
X64234778Y-113788905D01*
X64234785Y-113788909D01*
X64489564Y-113936007D01*
X64489580Y-113936015D01*
X64761380Y-114048597D01*
X64761382Y-114048597D01*
X64761388Y-114048600D01*
X65045575Y-114124748D01*
X65337269Y-114163150D01*
X65337276Y-114163150D01*
X65631474Y-114163150D01*
X65631481Y-114163150D01*
X65923175Y-114124748D01*
X66207362Y-114048600D01*
X66358529Y-113985985D01*
X66479169Y-113936015D01*
X66479172Y-113936013D01*
X66479178Y-113936011D01*
X66733972Y-113788905D01*
X66967386Y-113609800D01*
X67175425Y-113401761D01*
X67354530Y-113168347D01*
X67501636Y-112913553D01*
X67514970Y-112881363D01*
X67614222Y-112641744D01*
X67614221Y-112641744D01*
X67614225Y-112641737D01*
X67690373Y-112357550D01*
X67728775Y-112065856D01*
X67728775Y-112007328D01*
X69438875Y-112007328D01*
X69466589Y-112182306D01*
X69521331Y-112350789D01*
X69521332Y-112350792D01*
X69601761Y-112508640D01*
X69705892Y-112651964D01*
X69831161Y-112777233D01*
X69974485Y-112881364D01*
X70037659Y-112913553D01*
X70132332Y-112961792D01*
X70132335Y-112961793D01*
X70216576Y-112989164D01*
X70300820Y-113016536D01*
X70475796Y-113044250D01*
X70475797Y-113044250D01*
X70652953Y-113044250D01*
X70652954Y-113044250D01*
X70827930Y-113016536D01*
X70996417Y-112961792D01*
X71154265Y-112881364D01*
X71297589Y-112777233D01*
X71422858Y-112651964D01*
X71526989Y-112508640D01*
X71607417Y-112350792D01*
X71662161Y-112182305D01*
X71689875Y-112007329D01*
X71689875Y-112007328D01*
X83091375Y-112007328D01*
X83119089Y-112182306D01*
X83173831Y-112350789D01*
X83173832Y-112350792D01*
X83254261Y-112508640D01*
X83358392Y-112651964D01*
X83483661Y-112777233D01*
X83626985Y-112881364D01*
X83690159Y-112913553D01*
X83784832Y-112961792D01*
X83784835Y-112961793D01*
X83869076Y-112989164D01*
X83953320Y-113016536D01*
X84128296Y-113044250D01*
X84128297Y-113044250D01*
X84305453Y-113044250D01*
X84305454Y-113044250D01*
X84480430Y-113016536D01*
X84648917Y-112961792D01*
X84806765Y-112881364D01*
X84950089Y-112777233D01*
X85075358Y-112651964D01*
X85179489Y-112508640D01*
X85259917Y-112350792D01*
X85314661Y-112182305D01*
X85342375Y-112007329D01*
X85342375Y-111830171D01*
X85317425Y-111672646D01*
X85326379Y-111603355D01*
X85371375Y-111549903D01*
X85438127Y-111529263D01*
X85439898Y-111529250D01*
X85633974Y-111529250D01*
X85665395Y-111524930D01*
X85925430Y-111489190D01*
X86208716Y-111409817D01*
X86478557Y-111292609D01*
X86729924Y-111139749D01*
X86958135Y-110954085D01*
X87046364Y-110859614D01*
X87106506Y-110824056D01*
X87176327Y-110826658D01*
X87233658Y-110866596D01*
X87260296Y-110931188D01*
X87251547Y-110991704D01*
X87167027Y-111195755D01*
X87090876Y-111479953D01*
X87052476Y-111771633D01*
X87052475Y-111771650D01*
X87052475Y-112065849D01*
X87052476Y-112065866D01*
X87089986Y-112350789D01*
X87090877Y-112357550D01*
X87110248Y-112429845D01*
X87167027Y-112641744D01*
X87279609Y-112913544D01*
X87279617Y-112913560D01*
X87426715Y-113168339D01*
X87426726Y-113168355D01*
X87605823Y-113401759D01*
X87605829Y-113401766D01*
X87813858Y-113609795D01*
X87813864Y-113609800D01*
X88047278Y-113788905D01*
X88047285Y-113788909D01*
X88302064Y-113936007D01*
X88302080Y-113936015D01*
X88573880Y-114048597D01*
X88573882Y-114048597D01*
X88573888Y-114048600D01*
X88858075Y-114124748D01*
X89149769Y-114163150D01*
X89149776Y-114163150D01*
X89443974Y-114163150D01*
X89443981Y-114163150D01*
X89735675Y-114124748D01*
X90019862Y-114048600D01*
X90171029Y-113985985D01*
X90291669Y-113936015D01*
X90291672Y-113936013D01*
X90291678Y-113936011D01*
X90546472Y-113788905D01*
X90779886Y-113609800D01*
X90987925Y-113401761D01*
X91167030Y-113168347D01*
X91314136Y-112913553D01*
X91327470Y-112881363D01*
X91426722Y-112641744D01*
X91426721Y-112641744D01*
X91426725Y-112641737D01*
X91502873Y-112357550D01*
X91541275Y-112065856D01*
X91541275Y-112007328D01*
X93251375Y-112007328D01*
X93279089Y-112182306D01*
X93333831Y-112350789D01*
X93333832Y-112350792D01*
X93414261Y-112508640D01*
X93518392Y-112651964D01*
X93643661Y-112777233D01*
X93786985Y-112881364D01*
X93850159Y-112913553D01*
X93944832Y-112961792D01*
X93944835Y-112961793D01*
X94029076Y-112989164D01*
X94113320Y-113016536D01*
X94288296Y-113044250D01*
X94288297Y-113044250D01*
X94465453Y-113044250D01*
X94465454Y-113044250D01*
X94640430Y-113016536D01*
X94808917Y-112961792D01*
X94966765Y-112881364D01*
X95110089Y-112777233D01*
X95235358Y-112651964D01*
X95339489Y-112508640D01*
X95419917Y-112350792D01*
X95474661Y-112182305D01*
X95502375Y-112007329D01*
X95502375Y-112007328D01*
X106903875Y-112007328D01*
X106931589Y-112182306D01*
X106986331Y-112350789D01*
X106986332Y-112350792D01*
X107066761Y-112508640D01*
X107170892Y-112651964D01*
X107296161Y-112777233D01*
X107439485Y-112881364D01*
X107502659Y-112913553D01*
X107597332Y-112961792D01*
X107597335Y-112961793D01*
X107681576Y-112989164D01*
X107765820Y-113016536D01*
X107940796Y-113044250D01*
X107940797Y-113044250D01*
X108117953Y-113044250D01*
X108117954Y-113044250D01*
X108292930Y-113016536D01*
X108461417Y-112961792D01*
X108619265Y-112881364D01*
X108762589Y-112777233D01*
X108887858Y-112651964D01*
X108991989Y-112508640D01*
X109072417Y-112350792D01*
X109127161Y-112182305D01*
X109154875Y-112007329D01*
X109154875Y-111830171D01*
X109129925Y-111672646D01*
X109138879Y-111603355D01*
X109183875Y-111549903D01*
X109250627Y-111529263D01*
X109252398Y-111529250D01*
X109446474Y-111529250D01*
X109477895Y-111524930D01*
X109737930Y-111489190D01*
X110021216Y-111409817D01*
X110291057Y-111292609D01*
X110542424Y-111139749D01*
X110770635Y-110954085D01*
X110858864Y-110859614D01*
X110919006Y-110824056D01*
X110988827Y-110826658D01*
X111046158Y-110866596D01*
X111072796Y-110931188D01*
X111064047Y-110991704D01*
X110979527Y-111195755D01*
X110903376Y-111479953D01*
X110864976Y-111771633D01*
X110864975Y-111771650D01*
X110864975Y-112065849D01*
X110864976Y-112065866D01*
X110902486Y-112350789D01*
X110903377Y-112357550D01*
X110922748Y-112429845D01*
X110979527Y-112641744D01*
X111092109Y-112913544D01*
X111092117Y-112913560D01*
X111239215Y-113168339D01*
X111239226Y-113168355D01*
X111418323Y-113401759D01*
X111418329Y-113401766D01*
X111626358Y-113609795D01*
X111626364Y-113609800D01*
X111859778Y-113788905D01*
X111859785Y-113788909D01*
X112114564Y-113936007D01*
X112114580Y-113936015D01*
X112386380Y-114048597D01*
X112386382Y-114048597D01*
X112386388Y-114048600D01*
X112670575Y-114124748D01*
X112962269Y-114163150D01*
X112962276Y-114163150D01*
X113256474Y-114163150D01*
X113256481Y-114163150D01*
X113548175Y-114124748D01*
X113832362Y-114048600D01*
X113983529Y-113985985D01*
X114104169Y-113936015D01*
X114104172Y-113936013D01*
X114104178Y-113936011D01*
X114358972Y-113788905D01*
X114592386Y-113609800D01*
X114800425Y-113401761D01*
X114979530Y-113168347D01*
X115126636Y-112913553D01*
X115139970Y-112881363D01*
X115239222Y-112641744D01*
X115239221Y-112641744D01*
X115239225Y-112641737D01*
X115315373Y-112357550D01*
X115353775Y-112065856D01*
X115353775Y-112007328D01*
X117063875Y-112007328D01*
X117091589Y-112182306D01*
X117146331Y-112350789D01*
X117146332Y-112350792D01*
X117226761Y-112508640D01*
X117330892Y-112651964D01*
X117456161Y-112777233D01*
X117599485Y-112881364D01*
X117662659Y-112913553D01*
X117757332Y-112961792D01*
X117757335Y-112961793D01*
X117841576Y-112989164D01*
X117925820Y-113016536D01*
X118100796Y-113044250D01*
X118100797Y-113044250D01*
X118277953Y-113044250D01*
X118277954Y-113044250D01*
X118452930Y-113016536D01*
X118621417Y-112961792D01*
X118779265Y-112881364D01*
X118922589Y-112777233D01*
X119047858Y-112651964D01*
X119151989Y-112508640D01*
X119232417Y-112350792D01*
X119287161Y-112182305D01*
X119314875Y-112007329D01*
X119314875Y-112007328D01*
X125953875Y-112007328D01*
X125981589Y-112182306D01*
X126036331Y-112350789D01*
X126036332Y-112350792D01*
X126116761Y-112508640D01*
X126220892Y-112651964D01*
X126346161Y-112777233D01*
X126489485Y-112881364D01*
X126552659Y-112913553D01*
X126647332Y-112961792D01*
X126647335Y-112961793D01*
X126731576Y-112989164D01*
X126815820Y-113016536D01*
X126990796Y-113044250D01*
X126990797Y-113044250D01*
X127167953Y-113044250D01*
X127167954Y-113044250D01*
X127342930Y-113016536D01*
X127511417Y-112961792D01*
X127669265Y-112881364D01*
X127812589Y-112777233D01*
X127937858Y-112651964D01*
X128041989Y-112508640D01*
X128122417Y-112350792D01*
X128177161Y-112182305D01*
X128204875Y-112007329D01*
X128204875Y-111830171D01*
X128179925Y-111672646D01*
X128188879Y-111603355D01*
X128233875Y-111549903D01*
X128300627Y-111529263D01*
X128302398Y-111529250D01*
X128496474Y-111529250D01*
X128527895Y-111524930D01*
X128787930Y-111489190D01*
X129071216Y-111409817D01*
X129341057Y-111292609D01*
X129592424Y-111139749D01*
X129820635Y-110954085D01*
X129908864Y-110859614D01*
X129969006Y-110824056D01*
X130038827Y-110826658D01*
X130096158Y-110866596D01*
X130122796Y-110931188D01*
X130114047Y-110991704D01*
X130029527Y-111195755D01*
X129953376Y-111479953D01*
X129914976Y-111771633D01*
X129914975Y-111771650D01*
X129914975Y-112065849D01*
X129914976Y-112065866D01*
X129952486Y-112350789D01*
X129953377Y-112357550D01*
X129972748Y-112429845D01*
X130029527Y-112641744D01*
X130142109Y-112913544D01*
X130142117Y-112913560D01*
X130289215Y-113168339D01*
X130289226Y-113168355D01*
X130468323Y-113401759D01*
X130468329Y-113401766D01*
X130676358Y-113609795D01*
X130676364Y-113609800D01*
X130909778Y-113788905D01*
X130909785Y-113788909D01*
X131164564Y-113936007D01*
X131164580Y-113936015D01*
X131436380Y-114048597D01*
X131436382Y-114048597D01*
X131436388Y-114048600D01*
X131720575Y-114124748D01*
X132012269Y-114163150D01*
X132012276Y-114163150D01*
X132306474Y-114163150D01*
X132306481Y-114163150D01*
X132598175Y-114124748D01*
X132882362Y-114048600D01*
X133033529Y-113985985D01*
X133154169Y-113936015D01*
X133154172Y-113936013D01*
X133154178Y-113936011D01*
X133408972Y-113788905D01*
X133642386Y-113609800D01*
X133850425Y-113401761D01*
X134029530Y-113168347D01*
X134176636Y-112913553D01*
X134189970Y-112881363D01*
X134289222Y-112641744D01*
X134289221Y-112641744D01*
X134289225Y-112641737D01*
X134365373Y-112357550D01*
X134403775Y-112065856D01*
X134403775Y-112007328D01*
X136113875Y-112007328D01*
X136141589Y-112182306D01*
X136196331Y-112350789D01*
X136196332Y-112350792D01*
X136276761Y-112508640D01*
X136380892Y-112651964D01*
X136506161Y-112777233D01*
X136649485Y-112881364D01*
X136712659Y-112913553D01*
X136807332Y-112961792D01*
X136807335Y-112961793D01*
X136891576Y-112989164D01*
X136975820Y-113016536D01*
X137150796Y-113044250D01*
X137150797Y-113044250D01*
X137327953Y-113044250D01*
X137327954Y-113044250D01*
X137502930Y-113016536D01*
X137671417Y-112961792D01*
X137829265Y-112881364D01*
X137972589Y-112777233D01*
X138097858Y-112651964D01*
X138201989Y-112508640D01*
X138282417Y-112350792D01*
X138337161Y-112182305D01*
X138364875Y-112007329D01*
X138364875Y-111830171D01*
X138337161Y-111655195D01*
X138293153Y-111519749D01*
X138282418Y-111486710D01*
X138282417Y-111486707D01*
X138201988Y-111328859D01*
X138175653Y-111292612D01*
X138097858Y-111185536D01*
X137972589Y-111060267D01*
X137829265Y-110956136D01*
X137825240Y-110954085D01*
X137671417Y-110875707D01*
X137671414Y-110875706D01*
X137502931Y-110820964D01*
X137415442Y-110807107D01*
X137327954Y-110793250D01*
X137150796Y-110793250D01*
X137092470Y-110802488D01*
X136975818Y-110820964D01*
X136807335Y-110875706D01*
X136807332Y-110875707D01*
X136649484Y-110956136D01*
X136567713Y-111015546D01*
X136506161Y-111060267D01*
X136506159Y-111060269D01*
X136506158Y-111060269D01*
X136380894Y-111185533D01*
X136380894Y-111185534D01*
X136380892Y-111185536D01*
X136373462Y-111195763D01*
X136276761Y-111328859D01*
X136196332Y-111486707D01*
X136196331Y-111486710D01*
X136141589Y-111655193D01*
X136113875Y-111830171D01*
X136113875Y-112007328D01*
X134403775Y-112007328D01*
X134403775Y-111771644D01*
X134365373Y-111479950D01*
X134289225Y-111195763D01*
X134284988Y-111185533D01*
X134176640Y-110923955D01*
X134176632Y-110923939D01*
X134029534Y-110669160D01*
X134029530Y-110669153D01*
X133898762Y-110498733D01*
X133850426Y-110435740D01*
X133850420Y-110435733D01*
X133642391Y-110227704D01*
X133642384Y-110227698D01*
X133408980Y-110048601D01*
X133408978Y-110048599D01*
X133408972Y-110048595D01*
X133408967Y-110048592D01*
X133408964Y-110048590D01*
X133154185Y-109901492D01*
X133154169Y-109901484D01*
X132882369Y-109788902D01*
X132598171Y-109712751D01*
X132306491Y-109674351D01*
X132306486Y-109674350D01*
X132306481Y-109674350D01*
X132012269Y-109674350D01*
X132012263Y-109674350D01*
X132012258Y-109674351D01*
X131720578Y-109712751D01*
X131436380Y-109788902D01*
X131164580Y-109901484D01*
X131164564Y-109901492D01*
X130909785Y-110048590D01*
X130909769Y-110048601D01*
X130676366Y-110227697D01*
X130526631Y-110377432D01*
X130465308Y-110410916D01*
X130395616Y-110405932D01*
X130339683Y-110364060D01*
X130315266Y-110298596D01*
X130325216Y-110240347D01*
X130326442Y-110237523D01*
X130326447Y-110237514D01*
X130329934Y-110227704D01*
X130393586Y-110048601D01*
X130424967Y-109960304D01*
X130424967Y-109960299D01*
X130424970Y-109960293D01*
X130460585Y-109788900D01*
X130484823Y-109672261D01*
X130504900Y-109378750D01*
X130484823Y-109085239D01*
X130456552Y-108949190D01*
X130424970Y-108797206D01*
X130424965Y-108797190D01*
X130354795Y-108599751D01*
X130326447Y-108519986D01*
X130191097Y-108258774D01*
X130191096Y-108258772D01*
X130191092Y-108258766D01*
X130021442Y-108018426D01*
X129820631Y-107803411D01*
X129592420Y-107617748D01*
X129341055Y-107464889D01*
X129341050Y-107464887D01*
X129071220Y-107347684D01*
X128787935Y-107268311D01*
X128787931Y-107268310D01*
X128787930Y-107268310D01*
X128642201Y-107248280D01*
X128496474Y-107228250D01*
X128496473Y-107228250D01*
X128202277Y-107228250D01*
X128202276Y-107228250D01*
X127910820Y-107268310D01*
X127910814Y-107268311D01*
X127627529Y-107347684D01*
X127357699Y-107464887D01*
X127357694Y-107464889D01*
X127106329Y-107617748D01*
X126878118Y-107803411D01*
X126677307Y-108018426D01*
X126507657Y-108258766D01*
X126507653Y-108258772D01*
X126372302Y-108519987D01*
X126273784Y-108797190D01*
X126273779Y-108797206D01*
X126213927Y-109085236D01*
X126213926Y-109085238D01*
X126193850Y-109378750D01*
X126213926Y-109672261D01*
X126213927Y-109672263D01*
X126273779Y-109960293D01*
X126273784Y-109960309D01*
X126372302Y-110237512D01*
X126507653Y-110498727D01*
X126507657Y-110498733D01*
X126657736Y-110711347D01*
X126680315Y-110777468D01*
X126663561Y-110845299D01*
X126612795Y-110893305D01*
X126612728Y-110893339D01*
X126489486Y-110956134D01*
X126389220Y-111028982D01*
X126346161Y-111060267D01*
X126346159Y-111060269D01*
X126346158Y-111060269D01*
X126220894Y-111185533D01*
X126220894Y-111185534D01*
X126220892Y-111185536D01*
X126213462Y-111195763D01*
X126116761Y-111328859D01*
X126036332Y-111486707D01*
X126036331Y-111486710D01*
X125981589Y-111655193D01*
X125953875Y-111830171D01*
X125953875Y-112007328D01*
X119314875Y-112007328D01*
X119314875Y-111830171D01*
X119287161Y-111655195D01*
X119243153Y-111519749D01*
X119232418Y-111486710D01*
X119232417Y-111486707D01*
X119151988Y-111328859D01*
X119125653Y-111292612D01*
X119047858Y-111185536D01*
X118922589Y-111060267D01*
X118779265Y-110956136D01*
X118775240Y-110954085D01*
X118621417Y-110875707D01*
X118621414Y-110875706D01*
X118452931Y-110820964D01*
X118365442Y-110807107D01*
X118277954Y-110793250D01*
X118100796Y-110793250D01*
X118042470Y-110802488D01*
X117925818Y-110820964D01*
X117757335Y-110875706D01*
X117757332Y-110875707D01*
X117599484Y-110956136D01*
X117517713Y-111015546D01*
X117456161Y-111060267D01*
X117456159Y-111060269D01*
X117456158Y-111060269D01*
X117330894Y-111185533D01*
X117330894Y-111185534D01*
X117330892Y-111185536D01*
X117323462Y-111195763D01*
X117226761Y-111328859D01*
X117146332Y-111486707D01*
X117146331Y-111486710D01*
X117091589Y-111655193D01*
X117063875Y-111830171D01*
X117063875Y-112007328D01*
X115353775Y-112007328D01*
X115353775Y-111771644D01*
X115315373Y-111479950D01*
X115239225Y-111195763D01*
X115234988Y-111185533D01*
X115126640Y-110923955D01*
X115126632Y-110923939D01*
X114979534Y-110669160D01*
X114979530Y-110669153D01*
X114848762Y-110498733D01*
X114800426Y-110435740D01*
X114800420Y-110435733D01*
X114592391Y-110227704D01*
X114592384Y-110227698D01*
X114358980Y-110048601D01*
X114358978Y-110048599D01*
X114358972Y-110048595D01*
X114358967Y-110048592D01*
X114358964Y-110048590D01*
X114104185Y-109901492D01*
X114104169Y-109901484D01*
X113832369Y-109788902D01*
X113548171Y-109712751D01*
X113256491Y-109674351D01*
X113256486Y-109674350D01*
X113256481Y-109674350D01*
X112962269Y-109674350D01*
X112962263Y-109674350D01*
X112962258Y-109674351D01*
X112670578Y-109712751D01*
X112386380Y-109788902D01*
X112114580Y-109901484D01*
X112114564Y-109901492D01*
X111859785Y-110048590D01*
X111859769Y-110048601D01*
X111626366Y-110227697D01*
X111476631Y-110377432D01*
X111415308Y-110410916D01*
X111345616Y-110405932D01*
X111289683Y-110364060D01*
X111265266Y-110298596D01*
X111275216Y-110240347D01*
X111276442Y-110237523D01*
X111276447Y-110237514D01*
X111279934Y-110227704D01*
X111343586Y-110048601D01*
X111374967Y-109960304D01*
X111374967Y-109960299D01*
X111374970Y-109960293D01*
X111410585Y-109788900D01*
X111434823Y-109672261D01*
X111454900Y-109378750D01*
X111434823Y-109085239D01*
X111406552Y-108949190D01*
X111374970Y-108797206D01*
X111374965Y-108797190D01*
X111304795Y-108599751D01*
X111276447Y-108519986D01*
X111141097Y-108258774D01*
X111141096Y-108258772D01*
X111141092Y-108258766D01*
X110971442Y-108018426D01*
X110770631Y-107803411D01*
X110542420Y-107617748D01*
X110291055Y-107464889D01*
X110291050Y-107464887D01*
X110021220Y-107347684D01*
X109737935Y-107268311D01*
X109737931Y-107268310D01*
X109737930Y-107268310D01*
X109592201Y-107248280D01*
X109446474Y-107228250D01*
X109446473Y-107228250D01*
X109152277Y-107228250D01*
X109152276Y-107228250D01*
X108860820Y-107268310D01*
X108860814Y-107268311D01*
X108577529Y-107347684D01*
X108307699Y-107464887D01*
X108307694Y-107464889D01*
X108056329Y-107617748D01*
X107828118Y-107803411D01*
X107627307Y-108018426D01*
X107457657Y-108258766D01*
X107457653Y-108258772D01*
X107322302Y-108519987D01*
X107223784Y-108797190D01*
X107223779Y-108797206D01*
X107163927Y-109085236D01*
X107163926Y-109085238D01*
X107143850Y-109378750D01*
X107163926Y-109672261D01*
X107163927Y-109672263D01*
X107223779Y-109960293D01*
X107223784Y-109960309D01*
X107322302Y-110237512D01*
X107457653Y-110498727D01*
X107457657Y-110498733D01*
X107607736Y-110711347D01*
X107630315Y-110777468D01*
X107613561Y-110845299D01*
X107562795Y-110893305D01*
X107562728Y-110893339D01*
X107439486Y-110956134D01*
X107339220Y-111028982D01*
X107296161Y-111060267D01*
X107296159Y-111060269D01*
X107296158Y-111060269D01*
X107170894Y-111185533D01*
X107170894Y-111185534D01*
X107170892Y-111185536D01*
X107163462Y-111195763D01*
X107066761Y-111328859D01*
X106986332Y-111486707D01*
X106986331Y-111486710D01*
X106931589Y-111655193D01*
X106903875Y-111830171D01*
X106903875Y-112007328D01*
X95502375Y-112007328D01*
X95502375Y-111830171D01*
X95474661Y-111655195D01*
X95430653Y-111519749D01*
X95419918Y-111486710D01*
X95419917Y-111486707D01*
X95339488Y-111328859D01*
X95313153Y-111292612D01*
X95235358Y-111185536D01*
X95110089Y-111060267D01*
X94966765Y-110956136D01*
X94962740Y-110954085D01*
X94808917Y-110875707D01*
X94808914Y-110875706D01*
X94640431Y-110820964D01*
X94552942Y-110807107D01*
X94465454Y-110793250D01*
X94288296Y-110793250D01*
X94229970Y-110802488D01*
X94113318Y-110820964D01*
X93944835Y-110875706D01*
X93944832Y-110875707D01*
X93786984Y-110956136D01*
X93705213Y-111015546D01*
X93643661Y-111060267D01*
X93643659Y-111060269D01*
X93643658Y-111060269D01*
X93518394Y-111185533D01*
X93518394Y-111185534D01*
X93518392Y-111185536D01*
X93510962Y-111195763D01*
X93414261Y-111328859D01*
X93333832Y-111486707D01*
X93333831Y-111486710D01*
X93279089Y-111655193D01*
X93251375Y-111830171D01*
X93251375Y-112007328D01*
X91541275Y-112007328D01*
X91541275Y-111771644D01*
X91502873Y-111479950D01*
X91426725Y-111195763D01*
X91422488Y-111185533D01*
X91314140Y-110923955D01*
X91314132Y-110923939D01*
X91167034Y-110669160D01*
X91167030Y-110669153D01*
X91036262Y-110498733D01*
X90987926Y-110435740D01*
X90987920Y-110435733D01*
X90779891Y-110227704D01*
X90779884Y-110227698D01*
X90546480Y-110048601D01*
X90546478Y-110048599D01*
X90546472Y-110048595D01*
X90546467Y-110048592D01*
X90546464Y-110048590D01*
X90291685Y-109901492D01*
X90291669Y-109901484D01*
X90019869Y-109788902D01*
X89735671Y-109712751D01*
X89443991Y-109674351D01*
X89443986Y-109674350D01*
X89443981Y-109674350D01*
X89149769Y-109674350D01*
X89149763Y-109674350D01*
X89149758Y-109674351D01*
X88858078Y-109712751D01*
X88573880Y-109788902D01*
X88302080Y-109901484D01*
X88302064Y-109901492D01*
X88047285Y-110048590D01*
X88047269Y-110048601D01*
X87813866Y-110227697D01*
X87664131Y-110377432D01*
X87602808Y-110410916D01*
X87533116Y-110405932D01*
X87477183Y-110364060D01*
X87452766Y-110298596D01*
X87462716Y-110240347D01*
X87463942Y-110237523D01*
X87463947Y-110237514D01*
X87467434Y-110227704D01*
X87531086Y-110048601D01*
X87562467Y-109960304D01*
X87562467Y-109960299D01*
X87562470Y-109960293D01*
X87598085Y-109788900D01*
X87622323Y-109672261D01*
X87642400Y-109378750D01*
X87622323Y-109085239D01*
X87594052Y-108949190D01*
X87562470Y-108797206D01*
X87562465Y-108797190D01*
X87492295Y-108599751D01*
X87463947Y-108519986D01*
X87328597Y-108258774D01*
X87328596Y-108258772D01*
X87328592Y-108258766D01*
X87158942Y-108018426D01*
X86958131Y-107803411D01*
X86729920Y-107617748D01*
X86478555Y-107464889D01*
X86478550Y-107464887D01*
X86208720Y-107347684D01*
X85925435Y-107268311D01*
X85925431Y-107268310D01*
X85925430Y-107268310D01*
X85779701Y-107248280D01*
X85633974Y-107228250D01*
X85633973Y-107228250D01*
X85339777Y-107228250D01*
X85339776Y-107228250D01*
X85048320Y-107268310D01*
X85048314Y-107268311D01*
X84765029Y-107347684D01*
X84495199Y-107464887D01*
X84495194Y-107464889D01*
X84243829Y-107617748D01*
X84015618Y-107803411D01*
X83814807Y-108018426D01*
X83645157Y-108258766D01*
X83645153Y-108258772D01*
X83509802Y-108519987D01*
X83411284Y-108797190D01*
X83411279Y-108797206D01*
X83351427Y-109085236D01*
X83351426Y-109085238D01*
X83331350Y-109378750D01*
X83351426Y-109672261D01*
X83351427Y-109672263D01*
X83411279Y-109960293D01*
X83411284Y-109960309D01*
X83509802Y-110237512D01*
X83645153Y-110498727D01*
X83645157Y-110498733D01*
X83795236Y-110711347D01*
X83817815Y-110777468D01*
X83801061Y-110845299D01*
X83750295Y-110893305D01*
X83750228Y-110893339D01*
X83626986Y-110956134D01*
X83526720Y-111028982D01*
X83483661Y-111060267D01*
X83483659Y-111060269D01*
X83483658Y-111060269D01*
X83358394Y-111185533D01*
X83358394Y-111185534D01*
X83358392Y-111185536D01*
X83350962Y-111195763D01*
X83254261Y-111328859D01*
X83173832Y-111486707D01*
X83173831Y-111486710D01*
X83119089Y-111655193D01*
X83091375Y-111830171D01*
X83091375Y-112007328D01*
X71689875Y-112007328D01*
X71689875Y-111830171D01*
X71662161Y-111655195D01*
X71618153Y-111519749D01*
X71607418Y-111486710D01*
X71607417Y-111486707D01*
X71526988Y-111328859D01*
X71500653Y-111292612D01*
X71422858Y-111185536D01*
X71297589Y-111060267D01*
X71154265Y-110956136D01*
X71150240Y-110954085D01*
X70996417Y-110875707D01*
X70996414Y-110875706D01*
X70827931Y-110820964D01*
X70740442Y-110807107D01*
X70652954Y-110793250D01*
X70475796Y-110793250D01*
X70417470Y-110802488D01*
X70300818Y-110820964D01*
X70132335Y-110875706D01*
X70132332Y-110875707D01*
X69974484Y-110956136D01*
X69892713Y-111015546D01*
X69831161Y-111060267D01*
X69831159Y-111060269D01*
X69831158Y-111060269D01*
X69705894Y-111185533D01*
X69705894Y-111185534D01*
X69705892Y-111185536D01*
X69698462Y-111195763D01*
X69601761Y-111328859D01*
X69521332Y-111486707D01*
X69521331Y-111486710D01*
X69466589Y-111655193D01*
X69438875Y-111830171D01*
X69438875Y-112007328D01*
X67728775Y-112007328D01*
X67728775Y-111771644D01*
X67690373Y-111479950D01*
X67614225Y-111195763D01*
X67609988Y-111185533D01*
X67501640Y-110923955D01*
X67501632Y-110923939D01*
X67354534Y-110669160D01*
X67354530Y-110669153D01*
X67223762Y-110498733D01*
X67175426Y-110435740D01*
X67175420Y-110435733D01*
X66967391Y-110227704D01*
X66967384Y-110227698D01*
X66733980Y-110048601D01*
X66733978Y-110048599D01*
X66733972Y-110048595D01*
X66733967Y-110048592D01*
X66733964Y-110048590D01*
X66479185Y-109901492D01*
X66479169Y-109901484D01*
X66207369Y-109788902D01*
X65923171Y-109712751D01*
X65631491Y-109674351D01*
X65631486Y-109674350D01*
X65631481Y-109674350D01*
X65337269Y-109674350D01*
X65337263Y-109674350D01*
X65337258Y-109674351D01*
X65045578Y-109712751D01*
X64761380Y-109788902D01*
X64489580Y-109901484D01*
X64489564Y-109901492D01*
X64234785Y-110048590D01*
X64234769Y-110048601D01*
X64001366Y-110227697D01*
X63851631Y-110377432D01*
X63790308Y-110410916D01*
X63720616Y-110405932D01*
X63664683Y-110364060D01*
X63640266Y-110298596D01*
X63650216Y-110240347D01*
X63651442Y-110237523D01*
X63651447Y-110237514D01*
X63654934Y-110227704D01*
X63718586Y-110048601D01*
X63749967Y-109960304D01*
X63749967Y-109960299D01*
X63749970Y-109960293D01*
X63785585Y-109788900D01*
X63809823Y-109672261D01*
X63829900Y-109378750D01*
X63809823Y-109085239D01*
X63781552Y-108949190D01*
X63749970Y-108797206D01*
X63749965Y-108797190D01*
X63679795Y-108599751D01*
X63651447Y-108519986D01*
X63516097Y-108258774D01*
X63516096Y-108258772D01*
X63516092Y-108258766D01*
X63346442Y-108018426D01*
X63145631Y-107803411D01*
X62917420Y-107617748D01*
X62666055Y-107464889D01*
X62666050Y-107464887D01*
X62396220Y-107347684D01*
X62112935Y-107268311D01*
X62112931Y-107268310D01*
X62112930Y-107268310D01*
X61967201Y-107248280D01*
X61821474Y-107228250D01*
X61821473Y-107228250D01*
X61527277Y-107228250D01*
X61527276Y-107228250D01*
X61235820Y-107268310D01*
X61235814Y-107268311D01*
X60952529Y-107347684D01*
X60682699Y-107464887D01*
X60682694Y-107464889D01*
X60431329Y-107617748D01*
X60203118Y-107803411D01*
X60002307Y-108018426D01*
X59832657Y-108258766D01*
X59832653Y-108258772D01*
X59697302Y-108519987D01*
X59598784Y-108797190D01*
X59598779Y-108797206D01*
X59538927Y-109085236D01*
X59538926Y-109085238D01*
X59518850Y-109378750D01*
X59538926Y-109672261D01*
X59538927Y-109672263D01*
X59598779Y-109960293D01*
X59598784Y-109960309D01*
X59697302Y-110237512D01*
X59832653Y-110498727D01*
X59832657Y-110498733D01*
X59982736Y-110711347D01*
X60005315Y-110777468D01*
X59988561Y-110845299D01*
X59937795Y-110893305D01*
X59937728Y-110893339D01*
X59814486Y-110956134D01*
X59714220Y-111028982D01*
X59671161Y-111060267D01*
X59671159Y-111060269D01*
X59671158Y-111060269D01*
X59545894Y-111185533D01*
X59545894Y-111185534D01*
X59545892Y-111185536D01*
X59538462Y-111195763D01*
X59441761Y-111328859D01*
X59361332Y-111486707D01*
X59361331Y-111486710D01*
X59306589Y-111655193D01*
X59278875Y-111830171D01*
X59278875Y-112007328D01*
X56459875Y-112007328D01*
X56459875Y-106838750D01*
X65868850Y-106838750D01*
X65888926Y-107132261D01*
X65888927Y-107132263D01*
X65948779Y-107420293D01*
X65948784Y-107420309D01*
X66047302Y-107697512D01*
X66182653Y-107958727D01*
X66182657Y-107958733D01*
X66352307Y-108199073D01*
X66553118Y-108414088D01*
X66680759Y-108517931D01*
X66781326Y-108599749D01*
X66781328Y-108599750D01*
X66781329Y-108599751D01*
X67032694Y-108752610D01*
X67032699Y-108752612D01*
X67302529Y-108869815D01*
X67302534Y-108869817D01*
X67585820Y-108949190D01*
X67842056Y-108984409D01*
X67877276Y-108989250D01*
X67877277Y-108989250D01*
X68171474Y-108989250D01*
X68202895Y-108984930D01*
X68462930Y-108949190D01*
X68746216Y-108869817D01*
X69016057Y-108752609D01*
X69267424Y-108599749D01*
X69495635Y-108414085D01*
X69696440Y-108199076D01*
X69866097Y-107958726D01*
X70001447Y-107697514D01*
X70099967Y-107420304D01*
X70099967Y-107420299D01*
X70099970Y-107420293D01*
X70139876Y-107228250D01*
X70159823Y-107132261D01*
X70179900Y-106838750D01*
X89681350Y-106838750D01*
X89701426Y-107132261D01*
X89701427Y-107132263D01*
X89761279Y-107420293D01*
X89761284Y-107420309D01*
X89859802Y-107697512D01*
X89995153Y-107958727D01*
X89995157Y-107958733D01*
X90164807Y-108199073D01*
X90365618Y-108414088D01*
X90493259Y-108517931D01*
X90593826Y-108599749D01*
X90593828Y-108599750D01*
X90593829Y-108599751D01*
X90845194Y-108752610D01*
X90845199Y-108752612D01*
X91115029Y-108869815D01*
X91115034Y-108869817D01*
X91398320Y-108949190D01*
X91654556Y-108984409D01*
X91689776Y-108989250D01*
X91689777Y-108989250D01*
X91983974Y-108989250D01*
X92015395Y-108984930D01*
X92275430Y-108949190D01*
X92558716Y-108869817D01*
X92828557Y-108752609D01*
X93079924Y-108599749D01*
X93308135Y-108414085D01*
X93508940Y-108199076D01*
X93678597Y-107958726D01*
X93813947Y-107697514D01*
X93912467Y-107420304D01*
X93912467Y-107420299D01*
X93912470Y-107420293D01*
X93952376Y-107228250D01*
X93972323Y-107132261D01*
X93992400Y-106838750D01*
X113493850Y-106838750D01*
X113513926Y-107132261D01*
X113513927Y-107132263D01*
X113573779Y-107420293D01*
X113573784Y-107420309D01*
X113672302Y-107697512D01*
X113807653Y-107958727D01*
X113807657Y-107958733D01*
X113977307Y-108199073D01*
X114178118Y-108414088D01*
X114305759Y-108517931D01*
X114406326Y-108599749D01*
X114406328Y-108599750D01*
X114406329Y-108599751D01*
X114657694Y-108752610D01*
X114657699Y-108752612D01*
X114927529Y-108869815D01*
X114927534Y-108869817D01*
X115210820Y-108949190D01*
X115467056Y-108984409D01*
X115502276Y-108989250D01*
X115502277Y-108989250D01*
X115796474Y-108989250D01*
X115827895Y-108984930D01*
X116087930Y-108949190D01*
X116371216Y-108869817D01*
X116641057Y-108752609D01*
X116892424Y-108599749D01*
X117120635Y-108414085D01*
X117321440Y-108199076D01*
X117491097Y-107958726D01*
X117626447Y-107697514D01*
X117724967Y-107420304D01*
X117724967Y-107420299D01*
X117724970Y-107420293D01*
X117764876Y-107228250D01*
X117784823Y-107132261D01*
X117804900Y-106838750D01*
X132543850Y-106838750D01*
X132563926Y-107132261D01*
X132563927Y-107132263D01*
X132623779Y-107420293D01*
X132623784Y-107420309D01*
X132722302Y-107697512D01*
X132857653Y-107958727D01*
X132857657Y-107958733D01*
X133027307Y-108199073D01*
X133228118Y-108414088D01*
X133355759Y-108517931D01*
X133456326Y-108599749D01*
X133456328Y-108599750D01*
X133456329Y-108599751D01*
X133707694Y-108752610D01*
X133707699Y-108752612D01*
X133977529Y-108869815D01*
X133977534Y-108869817D01*
X134260820Y-108949190D01*
X134517056Y-108984409D01*
X134552276Y-108989250D01*
X134552277Y-108989250D01*
X134846474Y-108989250D01*
X134877895Y-108984930D01*
X135137930Y-108949190D01*
X135421216Y-108869817D01*
X135691057Y-108752609D01*
X135942424Y-108599749D01*
X136170635Y-108414085D01*
X136371440Y-108199076D01*
X136541097Y-107958726D01*
X136676447Y-107697514D01*
X136774967Y-107420304D01*
X136774967Y-107420299D01*
X136774970Y-107420293D01*
X136808278Y-107260002D01*
X142834751Y-107260002D01*
X142853685Y-107428056D01*
X142909545Y-107587694D01*
X142909547Y-107587697D01*
X142999518Y-107730884D01*
X142999523Y-107730890D01*
X143119109Y-107850476D01*
X143119115Y-107850481D01*
X143262302Y-107940452D01*
X143262305Y-107940454D01*
X143262309Y-107940455D01*
X143262310Y-107940456D01*
X143314523Y-107958726D01*
X143421943Y-107996314D01*
X143589997Y-108015249D01*
X143590000Y-108015249D01*
X143590003Y-108015249D01*
X143758056Y-107996314D01*
X143758059Y-107996313D01*
X143917690Y-107940456D01*
X143917692Y-107940454D01*
X143917694Y-107940454D01*
X143917697Y-107940452D01*
X144060884Y-107850481D01*
X144060885Y-107850480D01*
X144060890Y-107850477D01*
X144180477Y-107730890D01*
X144201450Y-107697512D01*
X144270452Y-107587697D01*
X144270454Y-107587694D01*
X144270454Y-107587692D01*
X144270456Y-107587690D01*
X144326313Y-107428059D01*
X144326313Y-107428058D01*
X144326314Y-107428056D01*
X144345249Y-107260002D01*
X144744751Y-107260002D01*
X144763685Y-107428056D01*
X144819545Y-107587694D01*
X144819547Y-107587697D01*
X144909518Y-107730884D01*
X144909523Y-107730890D01*
X145029109Y-107850476D01*
X145029115Y-107850481D01*
X145172302Y-107940452D01*
X145172305Y-107940454D01*
X145172309Y-107940455D01*
X145172310Y-107940456D01*
X145224523Y-107958726D01*
X145331943Y-107996314D01*
X145499997Y-108015249D01*
X145500000Y-108015249D01*
X145500003Y-108015249D01*
X145668056Y-107996314D01*
X145668059Y-107996313D01*
X145827690Y-107940456D01*
X145827692Y-107940454D01*
X145827694Y-107940454D01*
X145827697Y-107940452D01*
X145970884Y-107850481D01*
X145970885Y-107850480D01*
X145970890Y-107850477D01*
X146090477Y-107730890D01*
X146111450Y-107697512D01*
X146180452Y-107587697D01*
X146180454Y-107587694D01*
X146180454Y-107587692D01*
X146180456Y-107587690D01*
X146236313Y-107428059D01*
X146236313Y-107428058D01*
X146236314Y-107428056D01*
X146255249Y-107260002D01*
X146255249Y-107259997D01*
X146236314Y-107091943D01*
X146180454Y-106932305D01*
X146180452Y-106932302D01*
X146090481Y-106789115D01*
X146090476Y-106789109D01*
X145970890Y-106669523D01*
X145970884Y-106669518D01*
X145827697Y-106579547D01*
X145827694Y-106579545D01*
X145668056Y-106523685D01*
X145500003Y-106504751D01*
X145499997Y-106504751D01*
X145331943Y-106523685D01*
X145172305Y-106579545D01*
X145172302Y-106579547D01*
X145029115Y-106669518D01*
X145029109Y-106669523D01*
X144909523Y-106789109D01*
X144909518Y-106789115D01*
X144819547Y-106932302D01*
X144819545Y-106932305D01*
X144763685Y-107091943D01*
X144744751Y-107259997D01*
X144744751Y-107260002D01*
X144345249Y-107260002D01*
X144345249Y-107259997D01*
X144326314Y-107091943D01*
X144270454Y-106932305D01*
X144270452Y-106932302D01*
X144180481Y-106789115D01*
X144180476Y-106789109D01*
X144060890Y-106669523D01*
X144060884Y-106669518D01*
X143917697Y-106579547D01*
X143917694Y-106579545D01*
X143758056Y-106523685D01*
X143590003Y-106504751D01*
X143589997Y-106504751D01*
X143421943Y-106523685D01*
X143262305Y-106579545D01*
X143262302Y-106579547D01*
X143119115Y-106669518D01*
X143119109Y-106669523D01*
X142999523Y-106789109D01*
X142999518Y-106789115D01*
X142909547Y-106932302D01*
X142909545Y-106932305D01*
X142853685Y-107091943D01*
X142834751Y-107259997D01*
X142834751Y-107260002D01*
X136808278Y-107260002D01*
X136814876Y-107228250D01*
X136834823Y-107132261D01*
X136854900Y-106838750D01*
X136834823Y-106545239D01*
X136817464Y-106461705D01*
X136774970Y-106257206D01*
X136774965Y-106257190D01*
X136676447Y-105979987D01*
X136676447Y-105979986D01*
X136541097Y-105718774D01*
X136541096Y-105718772D01*
X136541092Y-105718766D01*
X136371442Y-105478426D01*
X136170631Y-105263411D01*
X135942420Y-105077748D01*
X135691055Y-104924889D01*
X135691050Y-104924887D01*
X135421220Y-104807684D01*
X135137935Y-104728311D01*
X135137931Y-104728310D01*
X135137930Y-104728310D01*
X134992201Y-104708280D01*
X134846474Y-104688250D01*
X134846473Y-104688250D01*
X134552277Y-104688250D01*
X134552276Y-104688250D01*
X134260820Y-104728310D01*
X134260814Y-104728311D01*
X133977529Y-104807684D01*
X133707699Y-104924887D01*
X133707694Y-104924889D01*
X133456329Y-105077748D01*
X133228118Y-105263411D01*
X133027307Y-105478426D01*
X132857657Y-105718766D01*
X132857653Y-105718772D01*
X132722302Y-105979987D01*
X132623784Y-106257190D01*
X132623779Y-106257206D01*
X132563927Y-106545236D01*
X132563926Y-106545238D01*
X132543850Y-106838750D01*
X117804900Y-106838750D01*
X117784823Y-106545239D01*
X117767464Y-106461705D01*
X117724970Y-106257206D01*
X117724965Y-106257190D01*
X117626447Y-105979987D01*
X117626447Y-105979986D01*
X117491097Y-105718774D01*
X117491096Y-105718772D01*
X117491092Y-105718766D01*
X117321442Y-105478426D01*
X117120631Y-105263411D01*
X116892420Y-105077748D01*
X116641055Y-104924889D01*
X116641050Y-104924887D01*
X116371220Y-104807684D01*
X116087935Y-104728311D01*
X116087931Y-104728310D01*
X116087930Y-104728310D01*
X115942201Y-104708280D01*
X115796474Y-104688250D01*
X115796473Y-104688250D01*
X115502277Y-104688250D01*
X115502276Y-104688250D01*
X115210820Y-104728310D01*
X115210814Y-104728311D01*
X114927529Y-104807684D01*
X114657699Y-104924887D01*
X114657694Y-104924889D01*
X114406329Y-105077748D01*
X114178118Y-105263411D01*
X113977307Y-105478426D01*
X113807657Y-105718766D01*
X113807653Y-105718772D01*
X113672302Y-105979987D01*
X113573784Y-106257190D01*
X113573779Y-106257206D01*
X113513927Y-106545236D01*
X113513926Y-106545238D01*
X113493850Y-106838750D01*
X93992400Y-106838750D01*
X93972323Y-106545239D01*
X93954964Y-106461705D01*
X93912470Y-106257206D01*
X93912465Y-106257190D01*
X93813947Y-105979987D01*
X93813947Y-105979986D01*
X93678597Y-105718774D01*
X93678596Y-105718772D01*
X93678592Y-105718766D01*
X93508942Y-105478426D01*
X93308131Y-105263411D01*
X93079920Y-105077748D01*
X92828555Y-104924889D01*
X92828550Y-104924887D01*
X92558720Y-104807684D01*
X92275435Y-104728311D01*
X92275431Y-104728310D01*
X92275430Y-104728310D01*
X92129701Y-104708280D01*
X91983974Y-104688250D01*
X91983973Y-104688250D01*
X91689777Y-104688250D01*
X91689776Y-104688250D01*
X91398320Y-104728310D01*
X91398314Y-104728311D01*
X91115029Y-104807684D01*
X90845199Y-104924887D01*
X90845194Y-104924889D01*
X90593829Y-105077748D01*
X90365618Y-105263411D01*
X90164807Y-105478426D01*
X89995157Y-105718766D01*
X89995153Y-105718772D01*
X89859802Y-105979987D01*
X89761284Y-106257190D01*
X89761279Y-106257206D01*
X89701427Y-106545236D01*
X89701426Y-106545238D01*
X89681350Y-106838750D01*
X70179900Y-106838750D01*
X70159823Y-106545239D01*
X70142464Y-106461705D01*
X70099970Y-106257206D01*
X70099965Y-106257190D01*
X70001447Y-105979987D01*
X70001447Y-105979986D01*
X69866097Y-105718774D01*
X69866096Y-105718772D01*
X69866092Y-105718766D01*
X69696442Y-105478426D01*
X69495631Y-105263411D01*
X69267420Y-105077748D01*
X69016055Y-104924889D01*
X69016050Y-104924887D01*
X68746220Y-104807684D01*
X68462935Y-104728311D01*
X68462931Y-104728310D01*
X68462930Y-104728310D01*
X68317201Y-104708280D01*
X68171474Y-104688250D01*
X68171473Y-104688250D01*
X67877277Y-104688250D01*
X67877276Y-104688250D01*
X67585820Y-104728310D01*
X67585814Y-104728311D01*
X67302529Y-104807684D01*
X67032699Y-104924887D01*
X67032694Y-104924889D01*
X66781329Y-105077748D01*
X66553118Y-105263411D01*
X66352307Y-105478426D01*
X66182657Y-105718766D01*
X66182653Y-105718772D01*
X66047302Y-105979987D01*
X65948784Y-106257190D01*
X65948779Y-106257206D01*
X65888927Y-106545236D01*
X65888926Y-106545238D01*
X65868850Y-106838750D01*
X56459875Y-106838750D01*
X56459875Y-102870003D01*
X71704435Y-102870003D01*
X71724630Y-103049249D01*
X71724631Y-103049254D01*
X71784211Y-103219523D01*
X71848680Y-103322124D01*
X71880184Y-103372262D01*
X72007738Y-103499816D01*
X72160478Y-103595789D01*
X72195544Y-103608059D01*
X72330745Y-103655368D01*
X72330750Y-103655369D01*
X72509996Y-103675565D01*
X72510000Y-103675565D01*
X72510004Y-103675565D01*
X72689249Y-103655369D01*
X72689252Y-103655368D01*
X72689255Y-103655368D01*
X72859522Y-103595789D01*
X73012262Y-103499816D01*
X73052319Y-103459759D01*
X73113642Y-103426274D01*
X73183334Y-103431258D01*
X73227681Y-103459759D01*
X73287738Y-103519816D01*
X73378080Y-103576582D01*
X73428175Y-103608059D01*
X73440478Y-103615789D01*
X73553591Y-103655369D01*
X73610745Y-103675368D01*
X73610750Y-103675369D01*
X73789996Y-103695565D01*
X73790000Y-103695565D01*
X73790004Y-103695565D01*
X73969249Y-103675369D01*
X73969252Y-103675368D01*
X73969255Y-103675368D01*
X74139522Y-103615789D01*
X74292262Y-103519816D01*
X74372076Y-103440002D01*
X137674751Y-103440002D01*
X137693685Y-103608056D01*
X137749545Y-103767694D01*
X137749547Y-103767697D01*
X137839518Y-103910884D01*
X137839523Y-103910890D01*
X137959109Y-104030476D01*
X137959115Y-104030481D01*
X138102302Y-104120452D01*
X138102305Y-104120454D01*
X138102309Y-104120455D01*
X138102310Y-104120456D01*
X138174913Y-104145860D01*
X138261943Y-104176314D01*
X138429997Y-104195249D01*
X138430000Y-104195249D01*
X138430003Y-104195249D01*
X138598056Y-104176314D01*
X138598059Y-104176313D01*
X138757690Y-104120456D01*
X138757692Y-104120454D01*
X138757694Y-104120454D01*
X138757697Y-104120452D01*
X138900884Y-104030481D01*
X138900885Y-104030480D01*
X138900890Y-104030477D01*
X139020477Y-103910890D01*
X139110452Y-103767697D01*
X139110454Y-103767694D01*
X139110454Y-103767692D01*
X139110456Y-103767690D01*
X139166313Y-103608059D01*
X139166313Y-103608058D01*
X139166314Y-103608056D01*
X139185249Y-103440002D01*
X139185249Y-103439997D01*
X139166314Y-103271943D01*
X139115584Y-103126965D01*
X139110456Y-103112310D01*
X139110455Y-103112309D01*
X139110454Y-103112305D01*
X139110452Y-103112302D01*
X139020481Y-102969115D01*
X139020476Y-102969109D01*
X138900890Y-102849523D01*
X138900884Y-102849518D01*
X138757697Y-102759547D01*
X138757694Y-102759545D01*
X138598056Y-102703685D01*
X138430003Y-102684751D01*
X138429997Y-102684751D01*
X138261943Y-102703685D01*
X138102305Y-102759545D01*
X138102302Y-102759547D01*
X137959115Y-102849518D01*
X137959109Y-102849523D01*
X137839523Y-102969109D01*
X137839518Y-102969115D01*
X137749547Y-103112302D01*
X137749545Y-103112305D01*
X137693685Y-103271943D01*
X137674751Y-103439997D01*
X137674751Y-103440002D01*
X74372076Y-103440002D01*
X74419816Y-103392262D01*
X74515789Y-103239522D01*
X74575368Y-103069255D01*
X74575369Y-103069249D01*
X74595565Y-102890003D01*
X74595565Y-102889996D01*
X74575369Y-102710750D01*
X74575368Y-102710745D01*
X74556669Y-102657306D01*
X74525026Y-102566877D01*
X140804751Y-102566877D01*
X140823685Y-102734931D01*
X140879545Y-102894569D01*
X140879547Y-102894572D01*
X140969518Y-103037759D01*
X140969523Y-103037765D01*
X141089109Y-103157351D01*
X141089115Y-103157356D01*
X141232302Y-103247327D01*
X141232305Y-103247329D01*
X141232309Y-103247330D01*
X141232310Y-103247331D01*
X141302642Y-103271941D01*
X141391943Y-103303189D01*
X141559997Y-103322124D01*
X141560000Y-103322124D01*
X141560003Y-103322124D01*
X141728056Y-103303189D01*
X141728059Y-103303188D01*
X141887690Y-103247331D01*
X141887692Y-103247329D01*
X141887694Y-103247329D01*
X141887697Y-103247327D01*
X142030884Y-103157356D01*
X142030885Y-103157355D01*
X142030890Y-103157352D01*
X142150477Y-103037765D01*
X142240452Y-102894572D01*
X142240454Y-102894569D01*
X142240454Y-102894567D01*
X142240456Y-102894565D01*
X142296313Y-102734934D01*
X142296313Y-102734933D01*
X142296314Y-102734931D01*
X142315249Y-102566877D01*
X142315249Y-102566872D01*
X142305723Y-102482328D01*
X147385125Y-102482328D01*
X147412839Y-102657306D01*
X147467581Y-102825789D01*
X147467582Y-102825792D01*
X147540610Y-102969115D01*
X147548011Y-102983640D01*
X147652142Y-103126964D01*
X147777411Y-103252233D01*
X147920735Y-103356364D01*
X147998154Y-103395811D01*
X148078582Y-103436792D01*
X148078585Y-103436793D01*
X148088462Y-103440002D01*
X148247070Y-103491536D01*
X148422046Y-103519250D01*
X148422047Y-103519250D01*
X148599203Y-103519250D01*
X148599204Y-103519250D01*
X148774180Y-103491536D01*
X148942667Y-103436792D01*
X149100515Y-103356364D01*
X149243839Y-103252233D01*
X149369108Y-103126964D01*
X149473239Y-102983640D01*
X149553667Y-102825792D01*
X149608411Y-102657305D01*
X149636125Y-102482329D01*
X149636125Y-102305171D01*
X149611175Y-102147646D01*
X149620129Y-102078355D01*
X149665125Y-102024903D01*
X149731877Y-102004263D01*
X149733648Y-102004250D01*
X149927724Y-102004250D01*
X149959145Y-101999930D01*
X150219180Y-101964190D01*
X150502466Y-101884817D01*
X150772307Y-101767609D01*
X151023674Y-101614749D01*
X151251885Y-101429085D01*
X151340114Y-101334614D01*
X151400256Y-101299056D01*
X151470077Y-101301658D01*
X151527408Y-101341596D01*
X151554046Y-101406188D01*
X151545297Y-101466704D01*
X151460777Y-101670755D01*
X151384626Y-101954953D01*
X151346226Y-102246633D01*
X151346225Y-102246650D01*
X151346225Y-102540849D01*
X151346226Y-102540866D01*
X151383736Y-102825789D01*
X151384627Y-102832550D01*
X151459587Y-103112305D01*
X151460777Y-103116744D01*
X151573359Y-103388544D01*
X151573367Y-103388560D01*
X151720465Y-103643339D01*
X151720476Y-103643355D01*
X151899573Y-103876759D01*
X151899579Y-103876766D01*
X152107608Y-104084795D01*
X152107615Y-104084801D01*
X152154079Y-104120454D01*
X152341028Y-104263905D01*
X152341035Y-104263909D01*
X152595814Y-104411007D01*
X152595830Y-104411015D01*
X152867630Y-104523597D01*
X152867632Y-104523597D01*
X152867638Y-104523600D01*
X153151825Y-104599748D01*
X153443519Y-104638150D01*
X153443526Y-104638150D01*
X153737724Y-104638150D01*
X153737731Y-104638150D01*
X154029425Y-104599748D01*
X154313612Y-104523600D01*
X154386943Y-104493225D01*
X154585419Y-104411015D01*
X154585422Y-104411013D01*
X154585428Y-104411011D01*
X154840222Y-104263905D01*
X155073636Y-104084800D01*
X155281675Y-103876761D01*
X155460780Y-103643347D01*
X155607886Y-103388553D01*
X155617206Y-103366054D01*
X155720472Y-103116744D01*
X155720471Y-103116744D01*
X155720475Y-103116737D01*
X155796623Y-102832550D01*
X155835025Y-102540856D01*
X155835025Y-102482328D01*
X157545125Y-102482328D01*
X157572839Y-102657306D01*
X157627581Y-102825789D01*
X157627582Y-102825792D01*
X157700610Y-102969115D01*
X157708011Y-102983640D01*
X157812142Y-103126964D01*
X157937411Y-103252233D01*
X158080735Y-103356364D01*
X158158154Y-103395811D01*
X158238582Y-103436792D01*
X158238585Y-103436793D01*
X158248462Y-103440002D01*
X158407070Y-103491536D01*
X158582046Y-103519250D01*
X158582047Y-103519250D01*
X158759203Y-103519250D01*
X158759204Y-103519250D01*
X158934180Y-103491536D01*
X159102667Y-103436792D01*
X159260515Y-103356364D01*
X159403839Y-103252233D01*
X159529108Y-103126964D01*
X159633239Y-102983640D01*
X159713667Y-102825792D01*
X159768411Y-102657305D01*
X159796125Y-102482329D01*
X159796125Y-102305171D01*
X159768411Y-102130195D01*
X159723153Y-101990902D01*
X159713668Y-101961710D01*
X159713667Y-101961707D01*
X159633238Y-101803859D01*
X159606903Y-101767612D01*
X159529108Y-101660536D01*
X159403839Y-101535267D01*
X159260515Y-101431136D01*
X159256490Y-101429085D01*
X159102667Y-101350707D01*
X159102664Y-101350706D01*
X158934181Y-101295964D01*
X158846692Y-101282107D01*
X158759204Y-101268250D01*
X158582046Y-101268250D01*
X158523720Y-101277488D01*
X158407068Y-101295964D01*
X158238585Y-101350706D01*
X158238582Y-101350707D01*
X158080734Y-101431136D01*
X157998963Y-101490546D01*
X157937411Y-101535267D01*
X157937409Y-101535269D01*
X157937408Y-101535269D01*
X157812144Y-101660533D01*
X157812144Y-101660534D01*
X157812142Y-101660536D01*
X157804712Y-101670763D01*
X157708011Y-101803859D01*
X157627582Y-101961707D01*
X157627581Y-101961710D01*
X157572839Y-102130193D01*
X157545125Y-102305171D01*
X157545125Y-102482328D01*
X155835025Y-102482328D01*
X155835025Y-102246644D01*
X155796623Y-101954950D01*
X155720475Y-101670763D01*
X155716238Y-101660533D01*
X155607890Y-101398955D01*
X155607882Y-101398939D01*
X155460784Y-101144160D01*
X155460780Y-101144153D01*
X155330012Y-100973733D01*
X155281676Y-100910740D01*
X155281670Y-100910733D01*
X155073641Y-100702704D01*
X155073634Y-100702698D01*
X154840230Y-100523601D01*
X154840228Y-100523599D01*
X154840222Y-100523595D01*
X154840217Y-100523592D01*
X154840214Y-100523590D01*
X154585435Y-100376492D01*
X154585419Y-100376484D01*
X154313619Y-100263902D01*
X154029421Y-100187751D01*
X153737741Y-100149351D01*
X153737736Y-100149350D01*
X153737731Y-100149350D01*
X153443519Y-100149350D01*
X153443513Y-100149350D01*
X153443508Y-100149351D01*
X153151828Y-100187751D01*
X152867630Y-100263902D01*
X152595830Y-100376484D01*
X152595814Y-100376492D01*
X152341035Y-100523590D01*
X152341019Y-100523601D01*
X152107616Y-100702697D01*
X151957881Y-100852432D01*
X151896558Y-100885916D01*
X151826866Y-100880932D01*
X151770933Y-100839060D01*
X151746516Y-100773596D01*
X151756466Y-100715347D01*
X151757692Y-100712523D01*
X151757697Y-100712514D01*
X151761184Y-100702704D01*
X151824836Y-100523601D01*
X151856217Y-100435304D01*
X151856217Y-100435299D01*
X151856220Y-100435293D01*
X151891835Y-100263900D01*
X151916073Y-100147261D01*
X151936150Y-99853750D01*
X151916073Y-99560239D01*
X151887802Y-99424190D01*
X151856220Y-99272206D01*
X151856215Y-99272190D01*
X151786045Y-99074751D01*
X151757697Y-98994986D01*
X151622347Y-98733774D01*
X151622346Y-98733772D01*
X151622342Y-98733766D01*
X151452692Y-98493426D01*
X151251881Y-98278411D01*
X151069443Y-98129987D01*
X151023674Y-98092751D01*
X151023672Y-98092750D01*
X151023670Y-98092748D01*
X150772305Y-97939889D01*
X150772300Y-97939887D01*
X150502470Y-97822684D01*
X150219185Y-97743311D01*
X150219181Y-97743310D01*
X150219180Y-97743310D01*
X150073451Y-97723280D01*
X149927724Y-97703250D01*
X149927723Y-97703250D01*
X149633527Y-97703250D01*
X149633526Y-97703250D01*
X149342070Y-97743310D01*
X149342064Y-97743311D01*
X149058779Y-97822684D01*
X148788949Y-97939887D01*
X148788944Y-97939889D01*
X148537579Y-98092748D01*
X148309368Y-98278411D01*
X148108557Y-98493426D01*
X147938907Y-98733766D01*
X147938903Y-98733772D01*
X147803552Y-98994987D01*
X147705034Y-99272190D01*
X147705029Y-99272206D01*
X147645177Y-99560236D01*
X147645176Y-99560238D01*
X147625100Y-99853750D01*
X147645176Y-100147261D01*
X147645177Y-100147263D01*
X147705029Y-100435293D01*
X147705034Y-100435309D01*
X147803552Y-100712512D01*
X147938903Y-100973727D01*
X147938907Y-100973733D01*
X148088986Y-101186347D01*
X148111565Y-101252468D01*
X148094811Y-101320299D01*
X148044045Y-101368305D01*
X148043978Y-101368339D01*
X147920736Y-101431134D01*
X147820470Y-101503982D01*
X147777411Y-101535267D01*
X147777409Y-101535269D01*
X147777408Y-101535269D01*
X147652144Y-101660533D01*
X147652144Y-101660534D01*
X147652142Y-101660536D01*
X147644712Y-101670763D01*
X147548011Y-101803859D01*
X147467582Y-101961707D01*
X147467581Y-101961710D01*
X147412839Y-102130193D01*
X147385125Y-102305171D01*
X147385125Y-102482328D01*
X142305723Y-102482328D01*
X142296314Y-102398818D01*
X142271793Y-102328742D01*
X142240456Y-102239185D01*
X142240454Y-102239182D01*
X142240454Y-102239181D01*
X142182939Y-102147648D01*
X142167355Y-102122847D01*
X142148355Y-102055611D01*
X142167356Y-101990902D01*
X142184141Y-101964190D01*
X142240456Y-101874565D01*
X142296313Y-101714934D01*
X142296313Y-101714933D01*
X142296314Y-101714931D01*
X142315249Y-101546877D01*
X142315249Y-101546872D01*
X142296314Y-101378818D01*
X142240454Y-101219180D01*
X142240452Y-101219177D01*
X142150481Y-101075990D01*
X142150476Y-101075984D01*
X142030890Y-100956398D01*
X142030884Y-100956393D01*
X141887697Y-100866422D01*
X141887694Y-100866420D01*
X141728056Y-100810560D01*
X141560003Y-100791626D01*
X141559997Y-100791626D01*
X141391943Y-100810560D01*
X141232305Y-100866420D01*
X141232302Y-100866422D01*
X141089115Y-100956393D01*
X141089109Y-100956398D01*
X140969523Y-101075984D01*
X140969518Y-101075990D01*
X140879547Y-101219177D01*
X140879545Y-101219180D01*
X140823685Y-101378818D01*
X140804751Y-101546872D01*
X140804751Y-101546877D01*
X140823685Y-101714931D01*
X140879545Y-101874567D01*
X140952644Y-101990903D01*
X140971644Y-102058140D01*
X140952644Y-102122847D01*
X140879545Y-102239182D01*
X140823685Y-102398818D01*
X140804751Y-102566872D01*
X140804751Y-102566877D01*
X74525026Y-102566877D01*
X74515789Y-102540478D01*
X74419816Y-102387738D01*
X74292262Y-102260184D01*
X74260432Y-102240184D01*
X74139523Y-102164211D01*
X73969254Y-102104631D01*
X73969249Y-102104630D01*
X73790004Y-102084435D01*
X73789996Y-102084435D01*
X73610750Y-102104630D01*
X73610745Y-102104631D01*
X73440476Y-102164211D01*
X73287737Y-102260184D01*
X73247681Y-102300241D01*
X73186358Y-102333726D01*
X73116666Y-102328742D01*
X73072319Y-102300241D01*
X73012262Y-102240184D01*
X72859523Y-102144211D01*
X72689254Y-102084631D01*
X72689249Y-102084630D01*
X72510004Y-102064435D01*
X72509996Y-102064435D01*
X72330750Y-102084630D01*
X72330745Y-102084631D01*
X72160476Y-102144211D01*
X72007737Y-102240184D01*
X71880184Y-102367737D01*
X71784211Y-102520476D01*
X71724631Y-102690745D01*
X71724630Y-102690750D01*
X71704435Y-102869996D01*
X71704435Y-102870003D01*
X56459875Y-102870003D01*
X56459875Y-98631252D01*
X136357251Y-98631252D01*
X136376185Y-98799306D01*
X136432045Y-98958944D01*
X136432047Y-98958947D01*
X136522018Y-99102134D01*
X136522023Y-99102140D01*
X136641609Y-99221726D01*
X136641615Y-99221731D01*
X136784802Y-99311702D01*
X136784805Y-99311704D01*
X136784809Y-99311705D01*
X136784810Y-99311706D01*
X136857413Y-99337110D01*
X136944443Y-99367564D01*
X137112497Y-99386499D01*
X137112500Y-99386499D01*
X137112503Y-99386499D01*
X137280556Y-99367564D01*
X137280559Y-99367563D01*
X137440190Y-99311706D01*
X137546528Y-99244888D01*
X137613763Y-99225888D01*
X137678470Y-99244888D01*
X137739089Y-99282977D01*
X137784806Y-99311704D01*
X137784807Y-99311704D01*
X137784810Y-99311706D01*
X137891230Y-99348944D01*
X137944443Y-99367564D01*
X138112497Y-99386499D01*
X138112500Y-99386499D01*
X138112503Y-99386499D01*
X138280556Y-99367564D01*
X138280559Y-99367563D01*
X138440190Y-99311706D01*
X138546528Y-99244888D01*
X138613763Y-99225888D01*
X138678470Y-99244888D01*
X138739089Y-99282977D01*
X138784806Y-99311704D01*
X138784807Y-99311704D01*
X138784810Y-99311706D01*
X138891230Y-99348944D01*
X138944443Y-99367564D01*
X139112497Y-99386499D01*
X139112500Y-99386499D01*
X139112503Y-99386499D01*
X139280556Y-99367564D01*
X139280559Y-99367563D01*
X139440190Y-99311706D01*
X139440192Y-99311704D01*
X139440194Y-99311704D01*
X139440197Y-99311702D01*
X139583384Y-99221731D01*
X139583385Y-99221730D01*
X139583390Y-99221727D01*
X139702977Y-99102140D01*
X139792952Y-98958947D01*
X139792954Y-98958944D01*
X139792954Y-98958942D01*
X139792956Y-98958940D01*
X139848813Y-98799309D01*
X139848813Y-98799308D01*
X139848814Y-98799306D01*
X139867749Y-98631252D01*
X139867749Y-98631247D01*
X139848814Y-98463193D01*
X139830194Y-98409980D01*
X139792956Y-98303560D01*
X139792954Y-98303557D01*
X139792954Y-98303556D01*
X139764227Y-98257839D01*
X139726138Y-98197221D01*
X139707138Y-98129987D01*
X139726139Y-98065278D01*
X139792956Y-97958940D01*
X139848813Y-97799309D01*
X139848813Y-97799308D01*
X139848814Y-97799306D01*
X139867749Y-97631252D01*
X139867749Y-97631247D01*
X139848814Y-97463193D01*
X139830194Y-97409980D01*
X139792956Y-97303560D01*
X139792954Y-97303557D01*
X139792954Y-97303556D01*
X139764227Y-97257839D01*
X139726138Y-97197221D01*
X139707138Y-97129987D01*
X139726139Y-97065278D01*
X139792956Y-96958940D01*
X139848813Y-96799309D01*
X139848813Y-96799308D01*
X139848814Y-96799306D01*
X139867749Y-96631252D01*
X139867749Y-96631247D01*
X139848814Y-96463193D01*
X139792954Y-96303555D01*
X139792952Y-96303552D01*
X139702981Y-96160365D01*
X139702976Y-96160359D01*
X139583390Y-96040773D01*
X139583384Y-96040768D01*
X139440197Y-95950797D01*
X139440194Y-95950795D01*
X139280556Y-95894935D01*
X139112503Y-95876001D01*
X139112497Y-95876001D01*
X138944443Y-95894935D01*
X138784807Y-95950795D01*
X138678472Y-96017611D01*
X138611236Y-96036611D01*
X138546528Y-96017611D01*
X138440192Y-95950795D01*
X138440191Y-95950794D01*
X138440190Y-95950794D01*
X138401870Y-95937385D01*
X138280556Y-95894935D01*
X138112503Y-95876001D01*
X138112497Y-95876001D01*
X137944443Y-95894935D01*
X137784807Y-95950795D01*
X137678472Y-96017611D01*
X137611236Y-96036611D01*
X137546528Y-96017611D01*
X137440192Y-95950795D01*
X137440191Y-95950794D01*
X137440190Y-95950794D01*
X137401870Y-95937385D01*
X137280556Y-95894935D01*
X137112503Y-95876001D01*
X137112497Y-95876001D01*
X136944443Y-95894935D01*
X136784805Y-95950795D01*
X136784802Y-95950797D01*
X136641615Y-96040768D01*
X136641609Y-96040773D01*
X136522023Y-96160359D01*
X136522018Y-96160365D01*
X136432047Y-96303552D01*
X136432045Y-96303555D01*
X136376185Y-96463193D01*
X136357251Y-96631247D01*
X136357251Y-96631252D01*
X136376185Y-96799306D01*
X136432045Y-96958942D01*
X136498861Y-97065278D01*
X136517861Y-97132514D01*
X136498861Y-97197222D01*
X136432045Y-97303557D01*
X136376185Y-97463193D01*
X136357251Y-97631247D01*
X136357251Y-97631252D01*
X136376185Y-97799306D01*
X136432045Y-97958942D01*
X136498861Y-98065278D01*
X136517861Y-98132514D01*
X136498861Y-98197222D01*
X136432045Y-98303557D01*
X136376185Y-98463193D01*
X136357251Y-98631247D01*
X136357251Y-98631252D01*
X56459875Y-98631252D01*
X56459875Y-92957328D01*
X61660125Y-92957328D01*
X61687839Y-93132306D01*
X61742581Y-93300789D01*
X61742582Y-93300792D01*
X61787805Y-93389545D01*
X61823011Y-93458640D01*
X61927142Y-93601964D01*
X62052411Y-93727233D01*
X62195735Y-93831364D01*
X62258909Y-93863553D01*
X62353582Y-93911792D01*
X62353585Y-93911793D01*
X62437826Y-93939164D01*
X62522070Y-93966536D01*
X62697046Y-93994250D01*
X62697047Y-93994250D01*
X62874203Y-93994250D01*
X62874204Y-93994250D01*
X63049180Y-93966536D01*
X63217667Y-93911792D01*
X63375515Y-93831364D01*
X63518839Y-93727233D01*
X63644108Y-93601964D01*
X63748239Y-93458640D01*
X63828667Y-93300792D01*
X63883411Y-93132305D01*
X63911125Y-92957329D01*
X63911125Y-92780171D01*
X63886175Y-92622646D01*
X63895129Y-92553355D01*
X63940125Y-92499903D01*
X64006877Y-92479263D01*
X64008648Y-92479250D01*
X64202724Y-92479250D01*
X64234145Y-92474930D01*
X64494180Y-92439190D01*
X64777466Y-92359817D01*
X65047307Y-92242609D01*
X65298674Y-92089749D01*
X65526885Y-91904085D01*
X65615114Y-91809614D01*
X65675256Y-91774056D01*
X65745077Y-91776658D01*
X65802408Y-91816596D01*
X65829046Y-91881188D01*
X65820297Y-91941704D01*
X65735777Y-92145755D01*
X65659626Y-92429953D01*
X65621226Y-92721633D01*
X65621225Y-92721650D01*
X65621225Y-93015849D01*
X65621226Y-93015866D01*
X65659626Y-93307546D01*
X65735777Y-93591744D01*
X65848359Y-93863544D01*
X65848367Y-93863560D01*
X65995465Y-94118339D01*
X65995476Y-94118355D01*
X66174573Y-94351759D01*
X66174579Y-94351766D01*
X66382608Y-94559795D01*
X66382615Y-94559801D01*
X66428008Y-94594632D01*
X66616028Y-94738905D01*
X66616035Y-94738909D01*
X66870814Y-94886007D01*
X66870830Y-94886015D01*
X67142630Y-94998597D01*
X67142632Y-94998597D01*
X67142638Y-94998600D01*
X67426825Y-95074748D01*
X67718519Y-95113150D01*
X67718526Y-95113150D01*
X68012724Y-95113150D01*
X68012731Y-95113150D01*
X68304425Y-95074748D01*
X68588612Y-94998600D01*
X68819705Y-94902879D01*
X68860419Y-94886015D01*
X68860422Y-94886013D01*
X68860428Y-94886011D01*
X69115222Y-94738905D01*
X69348636Y-94559800D01*
X69556675Y-94351761D01*
X69735780Y-94118347D01*
X69882886Y-93863553D01*
X69896220Y-93831363D01*
X69995472Y-93591744D01*
X69995471Y-93591744D01*
X69995475Y-93591737D01*
X70071623Y-93307550D01*
X70110025Y-93015856D01*
X70110025Y-92957328D01*
X71820125Y-92957328D01*
X71847839Y-93132306D01*
X71902581Y-93300789D01*
X71902582Y-93300792D01*
X71947805Y-93389545D01*
X71983011Y-93458640D01*
X72087142Y-93601964D01*
X72212411Y-93727233D01*
X72355735Y-93831364D01*
X72418909Y-93863553D01*
X72513582Y-93911792D01*
X72513585Y-93911793D01*
X72597826Y-93939164D01*
X72682070Y-93966536D01*
X72857046Y-93994250D01*
X72857047Y-93994250D01*
X73034203Y-93994250D01*
X73034204Y-93994250D01*
X73209180Y-93966536D01*
X73377667Y-93911792D01*
X73535515Y-93831364D01*
X73678839Y-93727233D01*
X73804108Y-93601964D01*
X73908239Y-93458640D01*
X73988667Y-93300792D01*
X74043411Y-93132305D01*
X74071125Y-92957329D01*
X74071125Y-92957328D01*
X83091375Y-92957328D01*
X83119089Y-93132306D01*
X83173831Y-93300789D01*
X83173832Y-93300792D01*
X83219055Y-93389545D01*
X83254261Y-93458640D01*
X83358392Y-93601964D01*
X83483661Y-93727233D01*
X83626985Y-93831364D01*
X83690159Y-93863553D01*
X83784832Y-93911792D01*
X83784835Y-93911793D01*
X83869076Y-93939164D01*
X83953320Y-93966536D01*
X84128296Y-93994250D01*
X84128297Y-93994250D01*
X84305453Y-93994250D01*
X84305454Y-93994250D01*
X84480430Y-93966536D01*
X84648917Y-93911792D01*
X84806765Y-93831364D01*
X84950089Y-93727233D01*
X85075358Y-93601964D01*
X85179489Y-93458640D01*
X85259917Y-93300792D01*
X85314661Y-93132305D01*
X85342375Y-92957329D01*
X85342375Y-92780171D01*
X85317425Y-92622646D01*
X85326379Y-92553355D01*
X85371375Y-92499903D01*
X85438127Y-92479263D01*
X85439898Y-92479250D01*
X85633974Y-92479250D01*
X85665395Y-92474930D01*
X85925430Y-92439190D01*
X86208716Y-92359817D01*
X86478557Y-92242609D01*
X86729924Y-92089749D01*
X86958135Y-91904085D01*
X87046364Y-91809614D01*
X87106506Y-91774056D01*
X87176327Y-91776658D01*
X87233658Y-91816596D01*
X87260296Y-91881188D01*
X87251547Y-91941704D01*
X87167027Y-92145755D01*
X87090876Y-92429953D01*
X87052476Y-92721633D01*
X87052475Y-92721650D01*
X87052475Y-93015849D01*
X87052476Y-93015866D01*
X87090876Y-93307546D01*
X87167027Y-93591744D01*
X87279609Y-93863544D01*
X87279617Y-93863560D01*
X87426715Y-94118339D01*
X87426726Y-94118355D01*
X87605823Y-94351759D01*
X87605829Y-94351766D01*
X87813858Y-94559795D01*
X87813865Y-94559801D01*
X87859258Y-94594632D01*
X88047278Y-94738905D01*
X88047285Y-94738909D01*
X88302064Y-94886007D01*
X88302080Y-94886015D01*
X88573880Y-94998597D01*
X88573882Y-94998597D01*
X88573888Y-94998600D01*
X88858075Y-95074748D01*
X89149769Y-95113150D01*
X89149776Y-95113150D01*
X89443974Y-95113150D01*
X89443981Y-95113150D01*
X89735675Y-95074748D01*
X90019862Y-94998600D01*
X90250955Y-94902879D01*
X90291669Y-94886015D01*
X90291672Y-94886013D01*
X90291678Y-94886011D01*
X90546472Y-94738905D01*
X90779886Y-94559800D01*
X90987925Y-94351761D01*
X91167030Y-94118347D01*
X91314136Y-93863553D01*
X91327470Y-93831363D01*
X91426722Y-93591744D01*
X91426721Y-93591744D01*
X91426725Y-93591737D01*
X91502873Y-93307550D01*
X91541275Y-93015856D01*
X91541275Y-92957328D01*
X93251375Y-92957328D01*
X93279089Y-93132306D01*
X93333831Y-93300789D01*
X93333832Y-93300792D01*
X93379055Y-93389545D01*
X93414261Y-93458640D01*
X93518392Y-93601964D01*
X93643661Y-93727233D01*
X93786985Y-93831364D01*
X93850159Y-93863553D01*
X93944832Y-93911792D01*
X93944835Y-93911793D01*
X94029076Y-93939164D01*
X94113320Y-93966536D01*
X94288296Y-93994250D01*
X94288297Y-93994250D01*
X94465453Y-93994250D01*
X94465454Y-93994250D01*
X94640430Y-93966536D01*
X94808917Y-93911792D01*
X94966765Y-93831364D01*
X95110089Y-93727233D01*
X95235358Y-93601964D01*
X95339489Y-93458640D01*
X95419917Y-93300792D01*
X95474661Y-93132305D01*
X95502375Y-92957329D01*
X95502375Y-92957328D01*
X102141375Y-92957328D01*
X102169089Y-93132306D01*
X102223831Y-93300789D01*
X102223832Y-93300792D01*
X102269055Y-93389545D01*
X102304261Y-93458640D01*
X102408392Y-93601964D01*
X102533661Y-93727233D01*
X102676985Y-93831364D01*
X102740159Y-93863553D01*
X102834832Y-93911792D01*
X102834835Y-93911793D01*
X102919076Y-93939164D01*
X103003320Y-93966536D01*
X103178296Y-93994250D01*
X103178297Y-93994250D01*
X103355453Y-93994250D01*
X103355454Y-93994250D01*
X103530430Y-93966536D01*
X103698917Y-93911792D01*
X103856765Y-93831364D01*
X104000089Y-93727233D01*
X104125358Y-93601964D01*
X104229489Y-93458640D01*
X104309917Y-93300792D01*
X104364661Y-93132305D01*
X104392375Y-92957329D01*
X104392375Y-92780171D01*
X104367425Y-92622646D01*
X104376379Y-92553355D01*
X104421375Y-92499903D01*
X104488127Y-92479263D01*
X104489898Y-92479250D01*
X104683974Y-92479250D01*
X104715395Y-92474930D01*
X104975430Y-92439190D01*
X105258716Y-92359817D01*
X105528557Y-92242609D01*
X105779924Y-92089749D01*
X106008135Y-91904085D01*
X106096364Y-91809614D01*
X106156506Y-91774056D01*
X106226327Y-91776658D01*
X106283658Y-91816596D01*
X106310296Y-91881188D01*
X106301547Y-91941704D01*
X106217027Y-92145755D01*
X106140876Y-92429953D01*
X106102476Y-92721633D01*
X106102475Y-92721650D01*
X106102475Y-93015849D01*
X106102476Y-93015866D01*
X106140876Y-93307546D01*
X106217027Y-93591744D01*
X106329609Y-93863544D01*
X106329617Y-93863560D01*
X106476715Y-94118339D01*
X106476726Y-94118355D01*
X106655823Y-94351759D01*
X106655829Y-94351766D01*
X106863858Y-94559795D01*
X106863865Y-94559801D01*
X106909258Y-94594632D01*
X107097278Y-94738905D01*
X107097285Y-94738909D01*
X107352064Y-94886007D01*
X107352080Y-94886015D01*
X107623880Y-94998597D01*
X107623882Y-94998597D01*
X107623888Y-94998600D01*
X107908075Y-95074748D01*
X108199769Y-95113150D01*
X108199776Y-95113150D01*
X108493974Y-95113150D01*
X108493981Y-95113150D01*
X108785675Y-95074748D01*
X109069862Y-94998600D01*
X109300955Y-94902879D01*
X109341669Y-94886015D01*
X109341672Y-94886013D01*
X109341678Y-94886011D01*
X109596472Y-94738905D01*
X109829886Y-94559800D01*
X110037925Y-94351761D01*
X110217030Y-94118347D01*
X110364136Y-93863553D01*
X110377470Y-93831363D01*
X110476722Y-93591744D01*
X110476721Y-93591744D01*
X110476725Y-93591737D01*
X110552873Y-93307550D01*
X110591275Y-93015856D01*
X110591275Y-92957328D01*
X112301375Y-92957328D01*
X112329089Y-93132306D01*
X112383831Y-93300789D01*
X112383832Y-93300792D01*
X112429055Y-93389545D01*
X112464261Y-93458640D01*
X112568392Y-93601964D01*
X112693661Y-93727233D01*
X112836985Y-93831364D01*
X112900159Y-93863553D01*
X112994832Y-93911792D01*
X112994835Y-93911793D01*
X113079076Y-93939164D01*
X113163320Y-93966536D01*
X113338296Y-93994250D01*
X113338297Y-93994250D01*
X113515453Y-93994250D01*
X113515454Y-93994250D01*
X113690430Y-93966536D01*
X113858917Y-93911792D01*
X114016765Y-93831364D01*
X114160089Y-93727233D01*
X114285358Y-93601964D01*
X114389489Y-93458640D01*
X114469917Y-93300792D01*
X114524661Y-93132305D01*
X114552375Y-92957329D01*
X114552375Y-92957328D01*
X121191375Y-92957328D01*
X121219089Y-93132306D01*
X121273831Y-93300789D01*
X121273832Y-93300792D01*
X121319055Y-93389545D01*
X121354261Y-93458640D01*
X121458392Y-93601964D01*
X121583661Y-93727233D01*
X121726985Y-93831364D01*
X121790159Y-93863553D01*
X121884832Y-93911792D01*
X121884835Y-93911793D01*
X121969076Y-93939164D01*
X122053320Y-93966536D01*
X122228296Y-93994250D01*
X122228297Y-93994250D01*
X122405453Y-93994250D01*
X122405454Y-93994250D01*
X122580430Y-93966536D01*
X122748917Y-93911792D01*
X122906765Y-93831364D01*
X123050089Y-93727233D01*
X123175358Y-93601964D01*
X123279489Y-93458640D01*
X123359917Y-93300792D01*
X123414661Y-93132305D01*
X123442375Y-92957329D01*
X123442375Y-92780171D01*
X123417425Y-92622646D01*
X123426379Y-92553355D01*
X123471375Y-92499903D01*
X123538127Y-92479263D01*
X123539898Y-92479250D01*
X123733974Y-92479250D01*
X123765395Y-92474930D01*
X124025430Y-92439190D01*
X124308716Y-92359817D01*
X124578557Y-92242609D01*
X124829924Y-92089749D01*
X125058135Y-91904085D01*
X125146364Y-91809614D01*
X125206506Y-91774056D01*
X125276327Y-91776658D01*
X125333658Y-91816596D01*
X125360296Y-91881188D01*
X125351547Y-91941704D01*
X125267027Y-92145755D01*
X125190876Y-92429953D01*
X125152476Y-92721633D01*
X125152475Y-92721650D01*
X125152475Y-93015849D01*
X125152476Y-93015866D01*
X125190876Y-93307546D01*
X125267027Y-93591744D01*
X125379609Y-93863544D01*
X125379617Y-93863560D01*
X125526715Y-94118339D01*
X125526726Y-94118355D01*
X125705823Y-94351759D01*
X125705829Y-94351766D01*
X125913858Y-94559795D01*
X125913865Y-94559801D01*
X125959258Y-94594632D01*
X126147278Y-94738905D01*
X126147285Y-94738909D01*
X126402064Y-94886007D01*
X126402080Y-94886015D01*
X126673880Y-94998597D01*
X126673882Y-94998597D01*
X126673888Y-94998600D01*
X126958075Y-95074748D01*
X127249769Y-95113150D01*
X127249776Y-95113150D01*
X127543974Y-95113150D01*
X127543981Y-95113150D01*
X127835675Y-95074748D01*
X128119862Y-94998600D01*
X128350955Y-94902879D01*
X128391669Y-94886015D01*
X128391672Y-94886013D01*
X128391678Y-94886011D01*
X128646472Y-94738905D01*
X128879886Y-94559800D01*
X129087925Y-94351761D01*
X129267030Y-94118347D01*
X129294942Y-94070002D01*
X152744751Y-94070002D01*
X152763685Y-94238056D01*
X152819545Y-94397694D01*
X152819547Y-94397697D01*
X152909518Y-94540884D01*
X152909523Y-94540890D01*
X153029109Y-94660476D01*
X153029115Y-94660481D01*
X153172302Y-94750452D01*
X153172305Y-94750454D01*
X153172309Y-94750455D01*
X153172310Y-94750456D01*
X153244913Y-94775860D01*
X153331943Y-94806314D01*
X153437595Y-94818218D01*
X153502009Y-94845284D01*
X153541564Y-94902879D01*
X153543701Y-94972716D01*
X153528705Y-95007409D01*
X153514212Y-95030474D01*
X153454631Y-95200745D01*
X153454630Y-95200750D01*
X153434435Y-95379996D01*
X153434435Y-95380003D01*
X153454630Y-95559249D01*
X153454631Y-95559254D01*
X153514211Y-95729523D01*
X153606250Y-95876001D01*
X153610184Y-95882262D01*
X153737738Y-96009816D01*
X153890478Y-96105789D01*
X154060745Y-96165368D01*
X154111062Y-96171037D01*
X154175473Y-96198102D01*
X154215029Y-96255697D01*
X154217168Y-96325534D01*
X154207275Y-96351304D01*
X154153554Y-96454982D01*
X154153552Y-96454985D01*
X154055034Y-96732190D01*
X154055029Y-96732206D01*
X153995177Y-97020236D01*
X153995176Y-97020238D01*
X153975100Y-97313750D01*
X153995176Y-97607261D01*
X153995177Y-97607263D01*
X154055029Y-97895293D01*
X154055034Y-97895309D01*
X154153552Y-98172512D01*
X154288903Y-98433727D01*
X154288907Y-98433733D01*
X154458557Y-98674073D01*
X154659368Y-98889088D01*
X154787009Y-98992931D01*
X154887576Y-99074749D01*
X154887578Y-99074750D01*
X154887579Y-99074751D01*
X155138944Y-99227610D01*
X155138949Y-99227612D01*
X155408779Y-99344815D01*
X155408784Y-99344817D01*
X155692070Y-99424190D01*
X155948306Y-99459409D01*
X155983526Y-99464250D01*
X155983527Y-99464250D01*
X156277724Y-99464250D01*
X156309145Y-99459930D01*
X156569180Y-99424190D01*
X156852466Y-99344817D01*
X157122307Y-99227609D01*
X157373674Y-99074749D01*
X157601885Y-98889085D01*
X157802690Y-98674076D01*
X157972347Y-98433726D01*
X158107697Y-98172514D01*
X158206217Y-97895304D01*
X158206217Y-97895299D01*
X158206220Y-97895293D01*
X158246126Y-97703250D01*
X158266073Y-97607261D01*
X158286150Y-97313750D01*
X158266073Y-97020239D01*
X158248714Y-96936705D01*
X158206220Y-96732206D01*
X158206215Y-96732190D01*
X158170340Y-96631247D01*
X158107697Y-96454986D01*
X157972347Y-96193774D01*
X157972346Y-96193772D01*
X157972342Y-96193766D01*
X157802692Y-95953426D01*
X157601881Y-95738411D01*
X157373670Y-95552748D01*
X157122305Y-95399889D01*
X157122300Y-95399887D01*
X156852470Y-95282684D01*
X156569185Y-95203311D01*
X156569181Y-95203310D01*
X156569180Y-95203310D01*
X156423451Y-95183280D01*
X156277724Y-95163250D01*
X156277723Y-95163250D01*
X155983527Y-95163250D01*
X155983526Y-95163250D01*
X155692070Y-95203310D01*
X155692064Y-95203311D01*
X155408779Y-95282684D01*
X155205900Y-95370806D01*
X155136568Y-95379460D01*
X155073564Y-95349256D01*
X155036892Y-95289784D01*
X155033279Y-95270955D01*
X155025369Y-95200750D01*
X155025368Y-95200745D01*
X154965788Y-95030476D01*
X154885613Y-94902879D01*
X154869816Y-94877738D01*
X154742262Y-94750184D01*
X154724312Y-94738905D01*
X154589523Y-94654211D01*
X154419254Y-94594631D01*
X154419250Y-94594630D01*
X154276448Y-94578541D01*
X154212034Y-94551475D01*
X154172479Y-94493880D01*
X154170342Y-94424043D01*
X154178613Y-94401518D01*
X154180453Y-94397696D01*
X154180453Y-94397693D01*
X154180456Y-94397690D01*
X154236313Y-94238059D01*
X154236313Y-94238058D01*
X154236314Y-94238056D01*
X154255249Y-94070002D01*
X154255249Y-94069997D01*
X154236314Y-93901943D01*
X154180454Y-93742305D01*
X154180452Y-93742302D01*
X154090481Y-93599115D01*
X154090476Y-93599109D01*
X153970890Y-93479523D01*
X153970884Y-93479518D01*
X153827697Y-93389547D01*
X153827694Y-93389545D01*
X153668056Y-93333685D01*
X153500003Y-93314751D01*
X153499997Y-93314751D01*
X153331943Y-93333685D01*
X153172305Y-93389545D01*
X153172302Y-93389547D01*
X153029115Y-93479518D01*
X153029109Y-93479523D01*
X152909523Y-93599109D01*
X152909518Y-93599115D01*
X152819547Y-93742302D01*
X152819545Y-93742305D01*
X152763685Y-93901943D01*
X152744751Y-94069997D01*
X152744751Y-94070002D01*
X129294942Y-94070002D01*
X129414136Y-93863553D01*
X129427470Y-93831363D01*
X129526722Y-93591744D01*
X129526721Y-93591744D01*
X129526725Y-93591737D01*
X129602873Y-93307550D01*
X129641275Y-93015856D01*
X129641275Y-92957328D01*
X131351375Y-92957328D01*
X131379089Y-93132306D01*
X131433831Y-93300789D01*
X131433832Y-93300792D01*
X131479055Y-93389545D01*
X131514261Y-93458640D01*
X131618392Y-93601964D01*
X131743661Y-93727233D01*
X131886985Y-93831364D01*
X131950159Y-93863553D01*
X132044832Y-93911792D01*
X132044835Y-93911793D01*
X132129076Y-93939164D01*
X132213320Y-93966536D01*
X132388296Y-93994250D01*
X132388297Y-93994250D01*
X132565453Y-93994250D01*
X132565454Y-93994250D01*
X132740430Y-93966536D01*
X132908917Y-93911792D01*
X133066765Y-93831364D01*
X133210089Y-93727233D01*
X133335358Y-93601964D01*
X133439489Y-93458640D01*
X133519917Y-93300792D01*
X133574661Y-93132305D01*
X133602375Y-92957329D01*
X133602375Y-92780171D01*
X133574661Y-92605195D01*
X133542030Y-92504765D01*
X133519918Y-92436710D01*
X133519917Y-92436707D01*
X133454182Y-92307697D01*
X133439489Y-92278860D01*
X133345868Y-92150002D01*
X135604751Y-92150002D01*
X135623685Y-92318056D01*
X135679545Y-92477694D01*
X135679547Y-92477697D01*
X135769518Y-92620884D01*
X135769523Y-92620890D01*
X135889109Y-92740476D01*
X135889115Y-92740481D01*
X136032302Y-92830452D01*
X136032305Y-92830454D01*
X136032309Y-92830455D01*
X136032310Y-92830456D01*
X136104913Y-92855860D01*
X136191943Y-92886314D01*
X136359997Y-92905249D01*
X136360000Y-92905249D01*
X136360003Y-92905249D01*
X136528056Y-92886314D01*
X136573770Y-92870318D01*
X136687690Y-92830456D01*
X136687692Y-92830454D01*
X136687694Y-92830454D01*
X136687697Y-92830452D01*
X136830884Y-92740481D01*
X136830885Y-92740480D01*
X136830890Y-92740477D01*
X136950477Y-92620890D01*
X136950481Y-92620884D01*
X137040452Y-92477697D01*
X137040454Y-92477694D01*
X137040454Y-92477692D01*
X137040456Y-92477690D01*
X137096313Y-92318059D01*
X137096313Y-92318058D01*
X137096314Y-92318056D01*
X137115249Y-92150002D01*
X137115249Y-92149997D01*
X137096314Y-91981943D01*
X137052514Y-91856769D01*
X137040456Y-91822310D01*
X137040455Y-91822309D01*
X137040454Y-91822305D01*
X137040452Y-91822302D01*
X136950481Y-91679115D01*
X136950476Y-91679109D01*
X136830890Y-91559523D01*
X136830884Y-91559518D01*
X136687697Y-91469547D01*
X136687694Y-91469545D01*
X136528056Y-91413685D01*
X136360003Y-91394751D01*
X136359997Y-91394751D01*
X136191943Y-91413685D01*
X136032305Y-91469545D01*
X136032302Y-91469547D01*
X135889115Y-91559518D01*
X135889109Y-91559523D01*
X135769523Y-91679109D01*
X135769518Y-91679115D01*
X135679547Y-91822302D01*
X135679545Y-91822305D01*
X135623685Y-91981943D01*
X135604751Y-92149997D01*
X135604751Y-92150002D01*
X133345868Y-92150002D01*
X133335358Y-92135536D01*
X133210089Y-92010267D01*
X133066765Y-91906136D01*
X133062740Y-91904085D01*
X132908917Y-91825707D01*
X132908914Y-91825706D01*
X132740431Y-91770964D01*
X132652942Y-91757107D01*
X132565454Y-91743250D01*
X132388296Y-91743250D01*
X132329970Y-91752488D01*
X132213318Y-91770964D01*
X132044835Y-91825706D01*
X132044832Y-91825707D01*
X131886984Y-91906136D01*
X131805213Y-91965546D01*
X131743661Y-92010267D01*
X131743659Y-92010269D01*
X131743658Y-92010269D01*
X131618394Y-92135533D01*
X131618394Y-92135534D01*
X131618392Y-92135536D01*
X131587140Y-92178551D01*
X131514261Y-92278859D01*
X131433832Y-92436707D01*
X131433831Y-92436710D01*
X131379089Y-92605193D01*
X131351375Y-92780171D01*
X131351375Y-92957328D01*
X129641275Y-92957328D01*
X129641275Y-92721644D01*
X129602873Y-92429950D01*
X129526725Y-92145763D01*
X129510385Y-92106314D01*
X129414140Y-91873955D01*
X129414132Y-91873939D01*
X129267034Y-91619160D01*
X129267030Y-91619153D01*
X129136262Y-91448733D01*
X129087926Y-91385740D01*
X129087920Y-91385733D01*
X129072189Y-91370002D01*
X138254751Y-91370002D01*
X138273685Y-91538056D01*
X138329545Y-91697694D01*
X138329547Y-91697697D01*
X138419518Y-91840884D01*
X138419523Y-91840890D01*
X138539109Y-91960476D01*
X138539115Y-91960481D01*
X138682302Y-92050452D01*
X138682305Y-92050454D01*
X138682309Y-92050455D01*
X138682310Y-92050456D01*
X138754913Y-92075860D01*
X138841943Y-92106314D01*
X139009997Y-92125249D01*
X139010000Y-92125249D01*
X139010003Y-92125249D01*
X139178056Y-92106314D01*
X139178059Y-92106313D01*
X139337690Y-92050456D01*
X139337692Y-92050454D01*
X139337694Y-92050454D01*
X139337697Y-92050452D01*
X139480884Y-91960481D01*
X139480885Y-91960480D01*
X139480890Y-91960477D01*
X139600477Y-91840890D01*
X139665700Y-91737089D01*
X139690452Y-91697697D01*
X139690454Y-91697694D01*
X139690454Y-91697692D01*
X139690456Y-91697690D01*
X139746313Y-91538059D01*
X139746313Y-91538058D01*
X139746314Y-91538056D01*
X139765249Y-91370002D01*
X139765249Y-91369997D01*
X139746313Y-91201942D01*
X139738767Y-91180374D01*
X139735206Y-91110595D01*
X139769935Y-91049968D01*
X139831929Y-91017741D01*
X139869690Y-91016200D01*
X139936226Y-91023697D01*
X139949999Y-91025249D01*
X139950000Y-91025249D01*
X139950003Y-91025249D01*
X140118056Y-91006314D01*
X140118059Y-91006313D01*
X140277690Y-90950456D01*
X140277692Y-90950454D01*
X140277694Y-90950454D01*
X140277697Y-90950452D01*
X140420884Y-90860481D01*
X140420885Y-90860480D01*
X140420890Y-90860477D01*
X140540477Y-90740890D01*
X140541726Y-90738902D01*
X140630452Y-90597697D01*
X140630454Y-90597694D01*
X140630454Y-90597692D01*
X140630456Y-90597690D01*
X140669011Y-90487505D01*
X144100181Y-90487505D01*
X144119935Y-90801504D01*
X144119936Y-90801511D01*
X144143340Y-90924198D01*
X144170542Y-91066798D01*
X144178895Y-91110583D01*
X144276122Y-91409816D01*
X144276124Y-91409821D01*
X144410086Y-91694503D01*
X144410089Y-91694509D01*
X144578676Y-91960161D01*
X144578679Y-91960165D01*
X144779231Y-92202590D01*
X144779233Y-92202592D01*
X144779235Y-92202594D01*
X144902193Y-92318059D01*
X145008593Y-92417976D01*
X145008603Y-92417984D01*
X145263129Y-92602908D01*
X145263134Y-92602910D01*
X145263141Y-92602916D01*
X145538859Y-92754494D01*
X145538864Y-92754496D01*
X145538866Y-92754497D01*
X145538867Y-92754498D01*
X145831396Y-92870318D01*
X145831399Y-92870319D01*
X145893696Y-92886314D01*
X146136152Y-92948566D01*
X146201635Y-92956838D01*
X146448295Y-92987999D01*
X146448304Y-92987999D01*
X146448307Y-92988000D01*
X146448309Y-92988000D01*
X146762941Y-92988000D01*
X146762943Y-92988000D01*
X146762946Y-92987999D01*
X146762954Y-92987999D01*
X146949218Y-92964468D01*
X147075098Y-92948566D01*
X147379850Y-92870319D01*
X147480543Y-92830452D01*
X147672382Y-92754498D01*
X147672383Y-92754497D01*
X147672381Y-92754497D01*
X147672391Y-92754494D01*
X147948109Y-92602916D01*
X148202655Y-92417978D01*
X148432015Y-92202594D01*
X148616160Y-91980002D01*
X152744751Y-91980002D01*
X152763685Y-92148056D01*
X152819545Y-92307694D01*
X152819547Y-92307697D01*
X152909518Y-92450884D01*
X152909523Y-92450890D01*
X153029109Y-92570476D01*
X153029115Y-92570481D01*
X153172302Y-92660452D01*
X153172305Y-92660454D01*
X153172309Y-92660455D01*
X153172310Y-92660456D01*
X153244913Y-92685860D01*
X153331943Y-92716314D01*
X153499997Y-92735249D01*
X153500000Y-92735249D01*
X153500003Y-92735249D01*
X153668056Y-92716314D01*
X153668059Y-92716313D01*
X153827690Y-92660456D01*
X153827692Y-92660454D01*
X153827694Y-92660454D01*
X153827697Y-92660452D01*
X153970884Y-92570481D01*
X153970885Y-92570480D01*
X153970890Y-92570477D01*
X154090477Y-92450890D01*
X154097829Y-92439190D01*
X154180452Y-92307697D01*
X154180454Y-92307694D01*
X154180454Y-92307692D01*
X154180456Y-92307690D01*
X154236313Y-92148059D01*
X154236313Y-92148058D01*
X154236314Y-92148056D01*
X154255249Y-91980002D01*
X154255249Y-91979997D01*
X154236314Y-91811943D01*
X154204503Y-91721034D01*
X154180456Y-91652310D01*
X154180455Y-91652309D01*
X154180454Y-91652305D01*
X154180452Y-91652302D01*
X154133111Y-91576959D01*
X156575450Y-91576959D01*
X156604108Y-91721034D01*
X156604111Y-91721044D01*
X156660328Y-91856766D01*
X156660333Y-91856775D01*
X156741948Y-91978919D01*
X156741951Y-91978923D01*
X156845826Y-92082798D01*
X156845830Y-92082801D01*
X156967974Y-92164416D01*
X156967980Y-92164419D01*
X156967981Y-92164420D01*
X157103708Y-92220640D01*
X157247790Y-92249299D01*
X157247794Y-92249300D01*
X157247795Y-92249300D01*
X157394706Y-92249300D01*
X157394707Y-92249299D01*
X157538792Y-92220640D01*
X157674519Y-92164420D01*
X157796670Y-92082801D01*
X157900551Y-91978920D01*
X157982170Y-91856769D01*
X158038390Y-91721042D01*
X158067050Y-91576955D01*
X158067050Y-91430045D01*
X158038390Y-91285958D01*
X157982170Y-91150231D01*
X157982169Y-91150230D01*
X157982166Y-91150224D01*
X157900551Y-91028080D01*
X157900548Y-91028076D01*
X157796673Y-90924201D01*
X157796669Y-90924198D01*
X157674525Y-90842583D01*
X157674516Y-90842578D01*
X157538794Y-90786361D01*
X157538795Y-90786361D01*
X157538792Y-90786360D01*
X157538788Y-90786359D01*
X157538784Y-90786358D01*
X157394709Y-90757700D01*
X157394705Y-90757700D01*
X157247795Y-90757700D01*
X157247790Y-90757700D01*
X157103715Y-90786358D01*
X157103705Y-90786361D01*
X156967983Y-90842578D01*
X156967974Y-90842583D01*
X156845830Y-90924198D01*
X156845826Y-90924201D01*
X156741951Y-91028076D01*
X156741948Y-91028080D01*
X156660333Y-91150224D01*
X156660328Y-91150233D01*
X156604111Y-91285955D01*
X156604108Y-91285965D01*
X156575450Y-91430040D01*
X156575450Y-91576959D01*
X154133111Y-91576959D01*
X154090481Y-91509115D01*
X154090476Y-91509109D01*
X153970890Y-91389523D01*
X153970884Y-91389518D01*
X153827697Y-91299547D01*
X153827694Y-91299545D01*
X153668056Y-91243685D01*
X153500003Y-91224751D01*
X153499997Y-91224751D01*
X153331943Y-91243685D01*
X153172305Y-91299545D01*
X153172302Y-91299547D01*
X153029115Y-91389518D01*
X153029109Y-91389523D01*
X152909523Y-91509109D01*
X152909518Y-91509115D01*
X152819547Y-91652302D01*
X152819545Y-91652305D01*
X152763685Y-91811943D01*
X152744751Y-91979997D01*
X152744751Y-91980002D01*
X148616160Y-91980002D01*
X148632572Y-91960163D01*
X148801162Y-91694507D01*
X148935128Y-91409815D01*
X149032356Y-91110579D01*
X149091313Y-90801515D01*
X149091314Y-90801504D01*
X149106448Y-90560959D01*
X151495450Y-90560959D01*
X151524108Y-90705034D01*
X151524111Y-90705044D01*
X151580328Y-90840766D01*
X151580333Y-90840775D01*
X151661948Y-90962919D01*
X151661951Y-90962923D01*
X151765826Y-91066798D01*
X151765830Y-91066801D01*
X151887974Y-91148416D01*
X151887980Y-91148419D01*
X151887981Y-91148420D01*
X152023708Y-91204640D01*
X152167790Y-91233299D01*
X152167794Y-91233300D01*
X152167795Y-91233300D01*
X152314706Y-91233300D01*
X152314707Y-91233299D01*
X152458792Y-91204640D01*
X152594519Y-91148420D01*
X152716670Y-91066801D01*
X152820551Y-90962920D01*
X152902170Y-90840769D01*
X152958390Y-90705042D01*
X152972402Y-90634599D01*
X159601225Y-90634599D01*
X159601226Y-90634616D01*
X159639350Y-90924201D01*
X159639627Y-90926300D01*
X159710378Y-91190347D01*
X159715777Y-91210494D01*
X159828359Y-91482294D01*
X159828367Y-91482310D01*
X159975465Y-91737089D01*
X159975476Y-91737105D01*
X160154573Y-91970509D01*
X160154579Y-91970516D01*
X160362608Y-92178545D01*
X160362615Y-92178551D01*
X160446101Y-92242612D01*
X160596028Y-92357655D01*
X160596035Y-92357659D01*
X160850814Y-92504757D01*
X160850830Y-92504765D01*
X161122630Y-92617347D01*
X161122632Y-92617347D01*
X161122638Y-92617350D01*
X161406825Y-92693498D01*
X161698519Y-92731900D01*
X161698526Y-92731900D01*
X161992724Y-92731900D01*
X161992731Y-92731900D01*
X162284425Y-92693498D01*
X162568612Y-92617350D01*
X162723111Y-92553355D01*
X162840419Y-92504765D01*
X162840422Y-92504763D01*
X162840428Y-92504761D01*
X163095222Y-92357655D01*
X163328636Y-92178550D01*
X163536675Y-91970511D01*
X163715780Y-91737097D01*
X163862886Y-91482303D01*
X163868171Y-91469545D01*
X163975472Y-91210494D01*
X163975471Y-91210494D01*
X163975475Y-91210487D01*
X164051623Y-90926300D01*
X164090025Y-90634606D01*
X164090025Y-90340394D01*
X164051623Y-90048700D01*
X163975475Y-89764513D01*
X163975472Y-89764505D01*
X163862890Y-89492705D01*
X163862882Y-89492689D01*
X163715784Y-89237910D01*
X163715780Y-89237903D01*
X163664217Y-89170705D01*
X163536676Y-89004490D01*
X163536670Y-89004483D01*
X163328641Y-88796454D01*
X163328634Y-88796448D01*
X163095230Y-88617351D01*
X163095228Y-88617349D01*
X163095222Y-88617345D01*
X163095217Y-88617342D01*
X163095214Y-88617340D01*
X162840435Y-88470242D01*
X162840419Y-88470234D01*
X162568619Y-88357652D01*
X162389078Y-88309544D01*
X162284425Y-88281502D01*
X162284424Y-88281501D01*
X162284421Y-88281501D01*
X161992741Y-88243101D01*
X161992736Y-88243100D01*
X161992731Y-88243100D01*
X161698519Y-88243100D01*
X161698513Y-88243100D01*
X161698508Y-88243101D01*
X161406828Y-88281501D01*
X161122630Y-88357652D01*
X160850830Y-88470234D01*
X160850814Y-88470242D01*
X160596035Y-88617340D01*
X160596019Y-88617351D01*
X160362615Y-88796448D01*
X160362608Y-88796454D01*
X160154579Y-89004483D01*
X160154573Y-89004490D01*
X159975476Y-89237894D01*
X159975465Y-89237910D01*
X159828367Y-89492689D01*
X159828359Y-89492705D01*
X159715777Y-89764505D01*
X159639626Y-90048703D01*
X159601226Y-90340383D01*
X159601225Y-90340400D01*
X159601225Y-90634599D01*
X152972402Y-90634599D01*
X152987050Y-90560955D01*
X152987050Y-90414045D01*
X152958390Y-90269958D01*
X152902170Y-90134231D01*
X152902169Y-90134230D01*
X152902166Y-90134224D01*
X152820551Y-90012080D01*
X152820548Y-90012076D01*
X152716673Y-89908201D01*
X152716669Y-89908198D01*
X152594525Y-89826583D01*
X152594516Y-89826578D01*
X152458794Y-89770361D01*
X152458795Y-89770361D01*
X152458792Y-89770360D01*
X152458788Y-89770359D01*
X152458784Y-89770358D01*
X152314709Y-89741700D01*
X152314705Y-89741700D01*
X152167795Y-89741700D01*
X152167790Y-89741700D01*
X152023715Y-89770358D01*
X152023705Y-89770361D01*
X151887983Y-89826578D01*
X151887974Y-89826583D01*
X151765830Y-89908198D01*
X151765826Y-89908201D01*
X151661951Y-90012076D01*
X151661948Y-90012080D01*
X151580333Y-90134224D01*
X151580328Y-90134233D01*
X151524111Y-90269955D01*
X151524108Y-90269965D01*
X151495450Y-90414040D01*
X151495450Y-90560959D01*
X149106448Y-90560959D01*
X149111069Y-90487505D01*
X149111069Y-90487494D01*
X149091314Y-90173495D01*
X149091313Y-90173488D01*
X149091313Y-90173485D01*
X149032356Y-89864421D01*
X148935128Y-89565185D01*
X148927865Y-89549751D01*
X148818667Y-89317694D01*
X148801162Y-89280493D01*
X148723461Y-89158056D01*
X148632573Y-89014838D01*
X148632570Y-89014834D01*
X148612027Y-88990002D01*
X155294751Y-88990002D01*
X155313685Y-89158056D01*
X155369545Y-89317694D01*
X155369547Y-89317697D01*
X155459518Y-89460884D01*
X155459523Y-89460890D01*
X155579109Y-89580476D01*
X155579115Y-89580481D01*
X155722302Y-89670452D01*
X155722305Y-89670454D01*
X155722309Y-89670455D01*
X155722310Y-89670456D01*
X155775403Y-89689034D01*
X155881943Y-89726314D01*
X156049997Y-89745249D01*
X156050000Y-89745249D01*
X156050003Y-89745249D01*
X156218056Y-89726314D01*
X156218059Y-89726313D01*
X156377690Y-89670456D01*
X156426903Y-89639532D01*
X156494139Y-89620532D01*
X156560974Y-89640899D01*
X156606189Y-89694166D01*
X156607437Y-89697074D01*
X156660326Y-89824762D01*
X156660333Y-89824775D01*
X156741948Y-89946919D01*
X156741951Y-89946923D01*
X156845826Y-90050798D01*
X156845830Y-90050801D01*
X156967974Y-90132416D01*
X156967980Y-90132419D01*
X156967981Y-90132420D01*
X157103708Y-90188640D01*
X157247790Y-90217299D01*
X157247794Y-90217300D01*
X157247795Y-90217300D01*
X157394706Y-90217300D01*
X157394707Y-90217299D01*
X157538792Y-90188640D01*
X157674519Y-90132420D01*
X157796670Y-90050801D01*
X157900551Y-89946920D01*
X157982170Y-89824769D01*
X158038390Y-89689042D01*
X158067050Y-89544955D01*
X158067050Y-89398045D01*
X158038390Y-89253958D01*
X157982170Y-89118231D01*
X157982169Y-89118230D01*
X157982166Y-89118224D01*
X157900551Y-88996080D01*
X157900548Y-88996076D01*
X157796673Y-88892201D01*
X157796669Y-88892198D01*
X157674525Y-88810583D01*
X157674516Y-88810578D01*
X157538794Y-88754361D01*
X157538795Y-88754361D01*
X157538792Y-88754360D01*
X157538788Y-88754359D01*
X157538784Y-88754358D01*
X157394709Y-88725700D01*
X157394705Y-88725700D01*
X157247795Y-88725700D01*
X157247790Y-88725700D01*
X157103715Y-88754358D01*
X157103705Y-88754361D01*
X156967983Y-88810578D01*
X156967978Y-88810581D01*
X156950588Y-88822201D01*
X156883910Y-88843077D01*
X156816530Y-88824591D01*
X156769841Y-88772611D01*
X156764657Y-88760052D01*
X156762666Y-88754361D01*
X156730456Y-88662310D01*
X156730455Y-88662309D01*
X156730454Y-88662305D01*
X156730452Y-88662302D01*
X156640481Y-88519115D01*
X156640476Y-88519109D01*
X156520890Y-88399523D01*
X156520884Y-88399518D01*
X156377697Y-88309547D01*
X156377694Y-88309545D01*
X156218056Y-88253685D01*
X156050003Y-88234751D01*
X156049997Y-88234751D01*
X155881943Y-88253685D01*
X155722305Y-88309545D01*
X155722302Y-88309547D01*
X155579115Y-88399518D01*
X155579109Y-88399523D01*
X155459523Y-88519109D01*
X155459518Y-88519115D01*
X155369547Y-88662302D01*
X155369545Y-88662305D01*
X155313685Y-88821943D01*
X155294751Y-88989997D01*
X155294751Y-88990002D01*
X148612027Y-88990002D01*
X148432018Y-88772409D01*
X148432016Y-88772407D01*
X148202656Y-88557023D01*
X148202646Y-88557015D01*
X147948120Y-88372091D01*
X147948113Y-88372086D01*
X147948109Y-88372084D01*
X147672391Y-88220506D01*
X147672388Y-88220504D01*
X147672383Y-88220502D01*
X147672382Y-88220501D01*
X147379853Y-88104681D01*
X147379850Y-88104680D01*
X147075101Y-88026434D01*
X147075088Y-88026432D01*
X146762954Y-87987000D01*
X146762943Y-87987000D01*
X146448307Y-87987000D01*
X146448295Y-87987000D01*
X146136161Y-88026432D01*
X146136148Y-88026434D01*
X145831399Y-88104680D01*
X145831396Y-88104681D01*
X145538867Y-88220501D01*
X145538866Y-88220502D01*
X145263141Y-88372084D01*
X145263129Y-88372091D01*
X145008603Y-88557015D01*
X145008593Y-88557023D01*
X144779233Y-88772407D01*
X144779231Y-88772409D01*
X144578679Y-89014834D01*
X144578676Y-89014838D01*
X144410089Y-89280490D01*
X144410086Y-89280496D01*
X144276124Y-89565178D01*
X144276122Y-89565183D01*
X144178895Y-89864416D01*
X144119936Y-90173488D01*
X144119935Y-90173495D01*
X144100181Y-90487494D01*
X144100181Y-90487505D01*
X140669011Y-90487505D01*
X140686313Y-90438059D01*
X140686313Y-90438058D01*
X140686314Y-90438056D01*
X140705249Y-90270002D01*
X140705249Y-90269997D01*
X140686314Y-90101943D01*
X140630454Y-89942305D01*
X140630452Y-89942302D01*
X140540481Y-89799115D01*
X140540476Y-89799109D01*
X140420890Y-89679523D01*
X140420884Y-89679518D01*
X140277697Y-89589547D01*
X140277694Y-89589545D01*
X140118056Y-89533685D01*
X139950003Y-89514751D01*
X139949997Y-89514751D01*
X139781943Y-89533685D01*
X139622305Y-89589545D01*
X139622302Y-89589547D01*
X139479115Y-89679518D01*
X139479109Y-89679523D01*
X139359523Y-89799109D01*
X139359518Y-89799115D01*
X139269547Y-89942302D01*
X139269545Y-89942305D01*
X139213685Y-90101943D01*
X139194751Y-90269997D01*
X139194751Y-90270002D01*
X139213686Y-90438058D01*
X139221233Y-90459628D01*
X139224793Y-90529407D01*
X139190062Y-90590033D01*
X139128067Y-90622258D01*
X139090306Y-90623799D01*
X139010003Y-90614751D01*
X139009997Y-90614751D01*
X138841943Y-90633685D01*
X138682305Y-90689545D01*
X138682302Y-90689547D01*
X138539115Y-90779518D01*
X138539109Y-90779523D01*
X138419523Y-90899109D01*
X138419518Y-90899115D01*
X138329547Y-91042302D01*
X138329545Y-91042305D01*
X138273685Y-91201943D01*
X138254751Y-91369997D01*
X138254751Y-91370002D01*
X129072189Y-91370002D01*
X128879891Y-91177704D01*
X128879884Y-91177698D01*
X128646480Y-90998601D01*
X128646478Y-90998599D01*
X128646472Y-90998595D01*
X128646467Y-90998592D01*
X128646464Y-90998590D01*
X128391685Y-90851492D01*
X128391669Y-90851484D01*
X128119869Y-90738902D01*
X127993502Y-90705042D01*
X127835675Y-90662752D01*
X127835674Y-90662751D01*
X127835671Y-90662751D01*
X127543991Y-90624351D01*
X127543986Y-90624350D01*
X127543981Y-90624350D01*
X127249769Y-90624350D01*
X127249763Y-90624350D01*
X127249758Y-90624351D01*
X126958078Y-90662751D01*
X126673880Y-90738902D01*
X126402080Y-90851484D01*
X126402064Y-90851492D01*
X126147285Y-90998590D01*
X126147269Y-90998601D01*
X125913866Y-91177697D01*
X125764131Y-91327432D01*
X125702808Y-91360916D01*
X125633116Y-91355932D01*
X125577183Y-91314060D01*
X125552766Y-91248596D01*
X125562716Y-91190347D01*
X125563942Y-91187523D01*
X125563947Y-91187514D01*
X125567434Y-91177704D01*
X125628345Y-91006314D01*
X125662467Y-90910304D01*
X125662467Y-90910299D01*
X125662470Y-90910293D01*
X125694178Y-90757700D01*
X125722323Y-90622261D01*
X125742400Y-90328750D01*
X125722323Y-90035239D01*
X125703011Y-89942305D01*
X125662470Y-89747206D01*
X125662465Y-89747190D01*
X125603215Y-89580476D01*
X125563947Y-89469986D01*
X125428597Y-89208774D01*
X125428596Y-89208772D01*
X125428592Y-89208766D01*
X125258942Y-88968426D01*
X125111524Y-88810581D01*
X125058135Y-88753415D01*
X125058133Y-88753414D01*
X125058131Y-88753411D01*
X124829920Y-88567748D01*
X124578555Y-88414889D01*
X124578550Y-88414887D01*
X124308720Y-88297684D01*
X124025435Y-88218311D01*
X124025431Y-88218310D01*
X124025430Y-88218310D01*
X123879701Y-88198280D01*
X123733974Y-88178250D01*
X123733973Y-88178250D01*
X123439777Y-88178250D01*
X123439776Y-88178250D01*
X123148320Y-88218310D01*
X123148314Y-88218311D01*
X122865029Y-88297684D01*
X122595199Y-88414887D01*
X122595194Y-88414889D01*
X122343829Y-88567748D01*
X122115618Y-88753411D01*
X121914807Y-88968426D01*
X121745157Y-89208766D01*
X121745153Y-89208772D01*
X121609802Y-89469987D01*
X121511284Y-89747190D01*
X121511279Y-89747206D01*
X121451427Y-90035236D01*
X121451426Y-90035238D01*
X121431350Y-90328750D01*
X121451427Y-90622262D01*
X121511279Y-90910293D01*
X121511284Y-90910309D01*
X121609802Y-91187512D01*
X121745153Y-91448727D01*
X121745157Y-91448733D01*
X121895236Y-91661347D01*
X121917815Y-91727468D01*
X121901061Y-91795299D01*
X121850295Y-91843305D01*
X121850228Y-91843339D01*
X121726986Y-91906134D01*
X121626808Y-91978919D01*
X121583661Y-92010267D01*
X121583659Y-92010269D01*
X121583658Y-92010269D01*
X121458394Y-92135533D01*
X121458394Y-92135534D01*
X121458392Y-92135536D01*
X121427140Y-92178551D01*
X121354261Y-92278859D01*
X121273832Y-92436707D01*
X121273831Y-92436710D01*
X121219089Y-92605193D01*
X121191375Y-92780171D01*
X121191375Y-92957328D01*
X114552375Y-92957328D01*
X114552375Y-92780171D01*
X114524661Y-92605195D01*
X114492030Y-92504765D01*
X114469918Y-92436710D01*
X114469917Y-92436707D01*
X114404182Y-92307697D01*
X114389489Y-92278860D01*
X114285358Y-92135536D01*
X114160089Y-92010267D01*
X114016765Y-91906136D01*
X114012740Y-91904085D01*
X113858917Y-91825707D01*
X113858914Y-91825706D01*
X113690431Y-91770964D01*
X113602942Y-91757107D01*
X113515454Y-91743250D01*
X113338296Y-91743250D01*
X113279970Y-91752488D01*
X113163318Y-91770964D01*
X112994835Y-91825706D01*
X112994832Y-91825707D01*
X112836984Y-91906136D01*
X112755213Y-91965546D01*
X112693661Y-92010267D01*
X112693659Y-92010269D01*
X112693658Y-92010269D01*
X112568394Y-92135533D01*
X112568394Y-92135534D01*
X112568392Y-92135536D01*
X112537140Y-92178551D01*
X112464261Y-92278859D01*
X112383832Y-92436707D01*
X112383831Y-92436710D01*
X112329089Y-92605193D01*
X112301375Y-92780171D01*
X112301375Y-92957328D01*
X110591275Y-92957328D01*
X110591275Y-92721644D01*
X110552873Y-92429950D01*
X110476725Y-92145763D01*
X110460385Y-92106314D01*
X110364140Y-91873955D01*
X110364132Y-91873939D01*
X110217034Y-91619160D01*
X110217030Y-91619153D01*
X110086262Y-91448733D01*
X110037926Y-91385740D01*
X110037920Y-91385733D01*
X109829891Y-91177704D01*
X109829884Y-91177698D01*
X109596480Y-90998601D01*
X109596478Y-90998599D01*
X109596472Y-90998595D01*
X109596467Y-90998592D01*
X109596464Y-90998590D01*
X109341685Y-90851492D01*
X109341669Y-90851484D01*
X109069869Y-90738902D01*
X108943502Y-90705042D01*
X108785675Y-90662752D01*
X108785674Y-90662751D01*
X108785671Y-90662751D01*
X108493991Y-90624351D01*
X108493986Y-90624350D01*
X108493981Y-90624350D01*
X108199769Y-90624350D01*
X108199763Y-90624350D01*
X108199758Y-90624351D01*
X107908078Y-90662751D01*
X107623880Y-90738902D01*
X107352080Y-90851484D01*
X107352064Y-90851492D01*
X107097285Y-90998590D01*
X107097269Y-90998601D01*
X106863866Y-91177697D01*
X106714131Y-91327432D01*
X106652808Y-91360916D01*
X106583116Y-91355932D01*
X106527183Y-91314060D01*
X106502766Y-91248596D01*
X106512716Y-91190347D01*
X106513942Y-91187523D01*
X106513947Y-91187514D01*
X106517434Y-91177704D01*
X106578345Y-91006314D01*
X106612467Y-90910304D01*
X106612467Y-90910299D01*
X106612470Y-90910293D01*
X106644178Y-90757700D01*
X106672323Y-90622261D01*
X106692400Y-90328750D01*
X106672323Y-90035239D01*
X106653011Y-89942305D01*
X106612470Y-89747206D01*
X106612465Y-89747190D01*
X106553215Y-89580476D01*
X106513947Y-89469986D01*
X106378597Y-89208774D01*
X106378596Y-89208772D01*
X106378592Y-89208766D01*
X106208942Y-88968426D01*
X106061524Y-88810581D01*
X106008135Y-88753415D01*
X106008133Y-88753414D01*
X106008131Y-88753411D01*
X105779920Y-88567748D01*
X105528555Y-88414889D01*
X105528550Y-88414887D01*
X105258720Y-88297684D01*
X104975435Y-88218311D01*
X104975431Y-88218310D01*
X104975430Y-88218310D01*
X104829701Y-88198280D01*
X104683974Y-88178250D01*
X104683973Y-88178250D01*
X104389777Y-88178250D01*
X104389776Y-88178250D01*
X104098320Y-88218310D01*
X104098314Y-88218311D01*
X103815029Y-88297684D01*
X103545199Y-88414887D01*
X103545194Y-88414889D01*
X103293829Y-88567748D01*
X103065618Y-88753411D01*
X102864807Y-88968426D01*
X102695157Y-89208766D01*
X102695153Y-89208772D01*
X102559802Y-89469987D01*
X102461284Y-89747190D01*
X102461279Y-89747206D01*
X102401427Y-90035236D01*
X102401426Y-90035238D01*
X102381350Y-90328750D01*
X102401427Y-90622262D01*
X102461279Y-90910293D01*
X102461284Y-90910309D01*
X102559802Y-91187512D01*
X102695153Y-91448727D01*
X102695157Y-91448733D01*
X102845236Y-91661347D01*
X102867815Y-91727468D01*
X102851061Y-91795299D01*
X102800295Y-91843305D01*
X102800228Y-91843339D01*
X102676986Y-91906134D01*
X102576808Y-91978919D01*
X102533661Y-92010267D01*
X102533659Y-92010269D01*
X102533658Y-92010269D01*
X102408394Y-92135533D01*
X102408394Y-92135534D01*
X102408392Y-92135536D01*
X102377140Y-92178551D01*
X102304261Y-92278859D01*
X102223832Y-92436707D01*
X102223831Y-92436710D01*
X102169089Y-92605193D01*
X102141375Y-92780171D01*
X102141375Y-92957328D01*
X95502375Y-92957328D01*
X95502375Y-92780171D01*
X95474661Y-92605195D01*
X95442030Y-92504765D01*
X95419918Y-92436710D01*
X95419917Y-92436707D01*
X95354182Y-92307697D01*
X95339489Y-92278860D01*
X95235358Y-92135536D01*
X95110089Y-92010267D01*
X94966765Y-91906136D01*
X94962740Y-91904085D01*
X94808917Y-91825707D01*
X94808914Y-91825706D01*
X94640431Y-91770964D01*
X94552942Y-91757107D01*
X94465454Y-91743250D01*
X94288296Y-91743250D01*
X94229970Y-91752488D01*
X94113318Y-91770964D01*
X93944835Y-91825706D01*
X93944832Y-91825707D01*
X93786984Y-91906136D01*
X93705213Y-91965546D01*
X93643661Y-92010267D01*
X93643659Y-92010269D01*
X93643658Y-92010269D01*
X93518394Y-92135533D01*
X93518394Y-92135534D01*
X93518392Y-92135536D01*
X93487140Y-92178551D01*
X93414261Y-92278859D01*
X93333832Y-92436707D01*
X93333831Y-92436710D01*
X93279089Y-92605193D01*
X93251375Y-92780171D01*
X93251375Y-92957328D01*
X91541275Y-92957328D01*
X91541275Y-92721644D01*
X91502873Y-92429950D01*
X91426725Y-92145763D01*
X91410385Y-92106314D01*
X91314140Y-91873955D01*
X91314132Y-91873939D01*
X91167034Y-91619160D01*
X91167030Y-91619153D01*
X91036262Y-91448733D01*
X90987926Y-91385740D01*
X90987920Y-91385733D01*
X90779891Y-91177704D01*
X90779884Y-91177698D01*
X90546480Y-90998601D01*
X90546478Y-90998599D01*
X90546472Y-90998595D01*
X90546467Y-90998592D01*
X90546464Y-90998590D01*
X90291685Y-90851492D01*
X90291669Y-90851484D01*
X90019869Y-90738902D01*
X89893502Y-90705042D01*
X89735675Y-90662752D01*
X89735674Y-90662751D01*
X89735671Y-90662751D01*
X89443991Y-90624351D01*
X89443986Y-90624350D01*
X89443981Y-90624350D01*
X89149769Y-90624350D01*
X89149763Y-90624350D01*
X89149758Y-90624351D01*
X88858078Y-90662751D01*
X88573880Y-90738902D01*
X88302080Y-90851484D01*
X88302064Y-90851492D01*
X88047285Y-90998590D01*
X88047269Y-90998601D01*
X87813866Y-91177697D01*
X87664131Y-91327432D01*
X87602808Y-91360916D01*
X87533116Y-91355932D01*
X87477183Y-91314060D01*
X87452766Y-91248596D01*
X87462716Y-91190347D01*
X87463942Y-91187523D01*
X87463947Y-91187514D01*
X87467434Y-91177704D01*
X87528345Y-91006314D01*
X87562467Y-90910304D01*
X87562467Y-90910299D01*
X87562470Y-90910293D01*
X87594178Y-90757700D01*
X87622323Y-90622261D01*
X87642400Y-90328750D01*
X87622323Y-90035239D01*
X87603011Y-89942305D01*
X87562470Y-89747206D01*
X87562465Y-89747190D01*
X87503215Y-89580476D01*
X87463947Y-89469986D01*
X87328597Y-89208774D01*
X87328596Y-89208772D01*
X87328592Y-89208766D01*
X87158942Y-88968426D01*
X87011524Y-88810581D01*
X86958135Y-88753415D01*
X86958133Y-88753414D01*
X86958131Y-88753411D01*
X86729920Y-88567748D01*
X86478555Y-88414889D01*
X86478550Y-88414887D01*
X86208720Y-88297684D01*
X85925435Y-88218311D01*
X85925431Y-88218310D01*
X85925430Y-88218310D01*
X85779701Y-88198280D01*
X85633974Y-88178250D01*
X85633973Y-88178250D01*
X85339777Y-88178250D01*
X85339776Y-88178250D01*
X85048320Y-88218310D01*
X85048314Y-88218311D01*
X84765029Y-88297684D01*
X84495199Y-88414887D01*
X84495194Y-88414889D01*
X84243829Y-88567748D01*
X84015618Y-88753411D01*
X83814807Y-88968426D01*
X83645157Y-89208766D01*
X83645153Y-89208772D01*
X83509802Y-89469987D01*
X83411284Y-89747190D01*
X83411279Y-89747206D01*
X83351427Y-90035236D01*
X83351426Y-90035238D01*
X83331350Y-90328750D01*
X83351427Y-90622262D01*
X83411279Y-90910293D01*
X83411284Y-90910309D01*
X83509802Y-91187512D01*
X83645153Y-91448727D01*
X83645157Y-91448733D01*
X83795236Y-91661347D01*
X83817815Y-91727468D01*
X83801061Y-91795299D01*
X83750295Y-91843305D01*
X83750228Y-91843339D01*
X83626986Y-91906134D01*
X83526808Y-91978919D01*
X83483661Y-92010267D01*
X83483659Y-92010269D01*
X83483658Y-92010269D01*
X83358394Y-92135533D01*
X83358394Y-92135534D01*
X83358392Y-92135536D01*
X83327140Y-92178551D01*
X83254261Y-92278859D01*
X83173832Y-92436707D01*
X83173831Y-92436710D01*
X83119089Y-92605193D01*
X83091375Y-92780171D01*
X83091375Y-92957328D01*
X74071125Y-92957328D01*
X74071125Y-92780171D01*
X74043411Y-92605195D01*
X74010780Y-92504765D01*
X73988668Y-92436710D01*
X73988667Y-92436707D01*
X73922932Y-92307697D01*
X73908239Y-92278860D01*
X73804108Y-92135536D01*
X73678839Y-92010267D01*
X73535515Y-91906136D01*
X73531490Y-91904085D01*
X73377667Y-91825707D01*
X73377664Y-91825706D01*
X73209181Y-91770964D01*
X73121692Y-91757107D01*
X73034204Y-91743250D01*
X72857046Y-91743250D01*
X72798720Y-91752488D01*
X72682068Y-91770964D01*
X72513585Y-91825706D01*
X72513582Y-91825707D01*
X72355734Y-91906136D01*
X72273963Y-91965546D01*
X72212411Y-92010267D01*
X72212409Y-92010269D01*
X72212408Y-92010269D01*
X72087144Y-92135533D01*
X72087144Y-92135534D01*
X72087142Y-92135536D01*
X72055890Y-92178551D01*
X71983011Y-92278859D01*
X71902582Y-92436707D01*
X71902581Y-92436710D01*
X71847839Y-92605193D01*
X71820125Y-92780171D01*
X71820125Y-92957328D01*
X70110025Y-92957328D01*
X70110025Y-92721644D01*
X70071623Y-92429950D01*
X69995475Y-92145763D01*
X69979135Y-92106314D01*
X69882890Y-91873955D01*
X69882882Y-91873939D01*
X69735784Y-91619160D01*
X69735780Y-91619153D01*
X69605012Y-91448733D01*
X69556676Y-91385740D01*
X69556670Y-91385733D01*
X69348641Y-91177704D01*
X69348634Y-91177698D01*
X69115230Y-90998601D01*
X69115228Y-90998599D01*
X69115222Y-90998595D01*
X69115217Y-90998592D01*
X69115214Y-90998590D01*
X68860435Y-90851492D01*
X68860419Y-90851484D01*
X68588619Y-90738902D01*
X68462252Y-90705042D01*
X68304425Y-90662752D01*
X68304424Y-90662751D01*
X68304421Y-90662751D01*
X68012741Y-90624351D01*
X68012736Y-90624350D01*
X68012731Y-90624350D01*
X67718519Y-90624350D01*
X67718513Y-90624350D01*
X67718508Y-90624351D01*
X67426828Y-90662751D01*
X67142630Y-90738902D01*
X66870830Y-90851484D01*
X66870814Y-90851492D01*
X66616035Y-90998590D01*
X66616019Y-90998601D01*
X66382616Y-91177697D01*
X66232881Y-91327432D01*
X66171558Y-91360916D01*
X66101866Y-91355932D01*
X66045933Y-91314060D01*
X66021516Y-91248596D01*
X66031466Y-91190347D01*
X66032692Y-91187523D01*
X66032697Y-91187514D01*
X66036184Y-91177704D01*
X66097095Y-91006314D01*
X66131217Y-90910304D01*
X66131217Y-90910299D01*
X66131220Y-90910293D01*
X66162928Y-90757700D01*
X66191073Y-90622261D01*
X66211150Y-90328750D01*
X66191073Y-90035239D01*
X66171761Y-89942305D01*
X66131220Y-89747206D01*
X66131215Y-89747190D01*
X66071965Y-89580476D01*
X66032697Y-89469986D01*
X65897347Y-89208774D01*
X65897346Y-89208772D01*
X65897342Y-89208766D01*
X65727692Y-88968426D01*
X65580274Y-88810581D01*
X65526885Y-88753415D01*
X65526883Y-88753414D01*
X65526881Y-88753411D01*
X65298670Y-88567748D01*
X65047305Y-88414889D01*
X65047300Y-88414887D01*
X64777470Y-88297684D01*
X64494185Y-88218311D01*
X64494181Y-88218310D01*
X64494180Y-88218310D01*
X64348451Y-88198280D01*
X64202724Y-88178250D01*
X64202723Y-88178250D01*
X63908527Y-88178250D01*
X63908526Y-88178250D01*
X63617070Y-88218310D01*
X63617064Y-88218311D01*
X63333779Y-88297684D01*
X63063949Y-88414887D01*
X63063944Y-88414889D01*
X62812579Y-88567748D01*
X62584368Y-88753411D01*
X62383557Y-88968426D01*
X62213907Y-89208766D01*
X62213903Y-89208772D01*
X62078552Y-89469987D01*
X61980034Y-89747190D01*
X61980029Y-89747206D01*
X61920177Y-90035236D01*
X61920176Y-90035238D01*
X61900100Y-90328750D01*
X61920177Y-90622262D01*
X61980029Y-90910293D01*
X61980034Y-90910309D01*
X62078552Y-91187512D01*
X62213903Y-91448727D01*
X62213907Y-91448733D01*
X62363986Y-91661347D01*
X62386565Y-91727468D01*
X62369811Y-91795299D01*
X62319045Y-91843305D01*
X62318978Y-91843339D01*
X62195736Y-91906134D01*
X62095558Y-91978919D01*
X62052411Y-92010267D01*
X62052409Y-92010269D01*
X62052408Y-92010269D01*
X61927144Y-92135533D01*
X61927144Y-92135534D01*
X61927142Y-92135536D01*
X61895890Y-92178551D01*
X61823011Y-92278859D01*
X61742582Y-92436707D01*
X61742581Y-92436710D01*
X61687839Y-92605193D01*
X61660125Y-92780171D01*
X61660125Y-92957328D01*
X56459875Y-92957328D01*
X56459875Y-87788750D01*
X68250100Y-87788750D01*
X68270176Y-88082261D01*
X68270177Y-88082263D01*
X68330029Y-88370293D01*
X68330034Y-88370309D01*
X68428552Y-88647512D01*
X68563903Y-88908727D01*
X68563907Y-88908733D01*
X68733557Y-89149073D01*
X68789307Y-89208766D01*
X68856292Y-89280490D01*
X68934368Y-89364088D01*
X68976101Y-89398040D01*
X69162576Y-89549749D01*
X69162578Y-89549750D01*
X69162579Y-89549751D01*
X69413944Y-89702610D01*
X69413949Y-89702612D01*
X69636123Y-89799115D01*
X69683784Y-89819817D01*
X69967070Y-89899190D01*
X70223306Y-89934409D01*
X70258526Y-89939250D01*
X70258527Y-89939250D01*
X70552724Y-89939250D01*
X70584145Y-89934930D01*
X70844180Y-89899190D01*
X71127466Y-89819817D01*
X71397307Y-89702609D01*
X71648674Y-89549749D01*
X71876885Y-89364085D01*
X72077690Y-89149076D01*
X72247347Y-88908726D01*
X72382697Y-88647514D01*
X72481217Y-88370304D01*
X72481217Y-88370299D01*
X72481220Y-88370293D01*
X72536414Y-88104680D01*
X72541073Y-88082261D01*
X72561150Y-87788750D01*
X89681350Y-87788750D01*
X89701426Y-88082261D01*
X89701427Y-88082263D01*
X89761279Y-88370293D01*
X89761284Y-88370309D01*
X89859802Y-88647512D01*
X89995153Y-88908727D01*
X89995157Y-88908733D01*
X90164807Y-89149073D01*
X90220557Y-89208766D01*
X90287542Y-89280490D01*
X90365618Y-89364088D01*
X90407351Y-89398040D01*
X90593826Y-89549749D01*
X90593828Y-89549750D01*
X90593829Y-89549751D01*
X90845194Y-89702610D01*
X90845199Y-89702612D01*
X91067373Y-89799115D01*
X91115034Y-89819817D01*
X91398320Y-89899190D01*
X91654556Y-89934409D01*
X91689776Y-89939250D01*
X91689777Y-89939250D01*
X91983974Y-89939250D01*
X92015395Y-89934930D01*
X92275430Y-89899190D01*
X92558716Y-89819817D01*
X92828557Y-89702609D01*
X93079924Y-89549749D01*
X93308135Y-89364085D01*
X93508940Y-89149076D01*
X93678597Y-88908726D01*
X93813947Y-88647514D01*
X93912467Y-88370304D01*
X93912467Y-88370299D01*
X93912470Y-88370293D01*
X93967664Y-88104680D01*
X93972323Y-88082261D01*
X93992400Y-87788750D01*
X108731350Y-87788750D01*
X108751426Y-88082261D01*
X108751427Y-88082263D01*
X108811279Y-88370293D01*
X108811284Y-88370309D01*
X108909802Y-88647512D01*
X109045153Y-88908727D01*
X109045157Y-88908733D01*
X109214807Y-89149073D01*
X109270557Y-89208766D01*
X109337542Y-89280490D01*
X109415618Y-89364088D01*
X109457351Y-89398040D01*
X109643826Y-89549749D01*
X109643828Y-89549750D01*
X109643829Y-89549751D01*
X109895194Y-89702610D01*
X109895199Y-89702612D01*
X110117373Y-89799115D01*
X110165034Y-89819817D01*
X110448320Y-89899190D01*
X110704556Y-89934409D01*
X110739776Y-89939250D01*
X110739777Y-89939250D01*
X111033974Y-89939250D01*
X111065395Y-89934930D01*
X111325430Y-89899190D01*
X111608716Y-89819817D01*
X111878557Y-89702609D01*
X112129924Y-89549749D01*
X112358135Y-89364085D01*
X112558940Y-89149076D01*
X112728597Y-88908726D01*
X112863947Y-88647514D01*
X112962467Y-88370304D01*
X112962467Y-88370299D01*
X112962470Y-88370293D01*
X113017664Y-88104680D01*
X113022323Y-88082261D01*
X113042400Y-87788750D01*
X127781350Y-87788750D01*
X127801426Y-88082261D01*
X127801427Y-88082263D01*
X127861279Y-88370293D01*
X127861284Y-88370309D01*
X127959802Y-88647512D01*
X128095153Y-88908727D01*
X128095157Y-88908733D01*
X128264807Y-89149073D01*
X128320557Y-89208766D01*
X128387542Y-89280490D01*
X128465618Y-89364088D01*
X128507351Y-89398040D01*
X128693826Y-89549749D01*
X128693828Y-89549750D01*
X128693829Y-89549751D01*
X128945194Y-89702610D01*
X128945199Y-89702612D01*
X129167373Y-89799115D01*
X129215034Y-89819817D01*
X129498320Y-89899190D01*
X129754556Y-89934409D01*
X129789776Y-89939250D01*
X129789777Y-89939250D01*
X130083974Y-89939250D01*
X130115395Y-89934930D01*
X130375430Y-89899190D01*
X130658716Y-89819817D01*
X130928557Y-89702609D01*
X131179924Y-89549749D01*
X131408135Y-89364085D01*
X131608940Y-89149076D01*
X131778597Y-88908726D01*
X131913947Y-88647514D01*
X132012467Y-88370304D01*
X132012467Y-88370299D01*
X132012470Y-88370293D01*
X132067664Y-88104680D01*
X132072323Y-88082261D01*
X132092400Y-87788750D01*
X132072323Y-87495239D01*
X132040159Y-87340456D01*
X132012470Y-87207206D01*
X132012465Y-87207190D01*
X131913947Y-86929987D01*
X131913947Y-86929986D01*
X131778597Y-86668774D01*
X131778596Y-86668772D01*
X131778592Y-86668766D01*
X131772406Y-86660002D01*
X147804751Y-86660002D01*
X147823685Y-86828056D01*
X147879545Y-86987694D01*
X147879547Y-86987697D01*
X147969518Y-87130884D01*
X147969523Y-87130890D01*
X148089109Y-87250476D01*
X148089115Y-87250481D01*
X148232302Y-87340452D01*
X148232305Y-87340454D01*
X148232309Y-87340455D01*
X148232310Y-87340456D01*
X148304913Y-87365860D01*
X148391943Y-87396314D01*
X148559997Y-87415249D01*
X148560000Y-87415249D01*
X148560003Y-87415249D01*
X148728056Y-87396314D01*
X148728059Y-87396313D01*
X148887690Y-87340456D01*
X148887692Y-87340454D01*
X148887694Y-87340454D01*
X148887697Y-87340452D01*
X149030884Y-87250481D01*
X149030885Y-87250480D01*
X149030890Y-87250477D01*
X149150477Y-87130890D01*
X149240452Y-86987697D01*
X149240454Y-86987694D01*
X149240454Y-86987692D01*
X149240456Y-86987690D01*
X149296313Y-86828059D01*
X149296313Y-86828058D01*
X149296314Y-86828056D01*
X149315249Y-86660002D01*
X149315249Y-86659997D01*
X149296314Y-86491943D01*
X149240454Y-86332305D01*
X149240452Y-86332302D01*
X149150481Y-86189115D01*
X149150476Y-86189109D01*
X149030890Y-86069523D01*
X149030884Y-86069518D01*
X148887697Y-85979547D01*
X148887694Y-85979545D01*
X148728056Y-85923685D01*
X148560003Y-85904751D01*
X148559997Y-85904751D01*
X148391943Y-85923685D01*
X148232305Y-85979545D01*
X148232302Y-85979547D01*
X148089115Y-86069518D01*
X148089109Y-86069523D01*
X147969523Y-86189109D01*
X147969518Y-86189115D01*
X147879547Y-86332302D01*
X147879545Y-86332305D01*
X147823685Y-86491943D01*
X147804751Y-86659997D01*
X147804751Y-86660002D01*
X131772406Y-86660002D01*
X131608942Y-86428426D01*
X131542005Y-86356754D01*
X131408135Y-86213415D01*
X131408133Y-86213414D01*
X131408131Y-86213411D01*
X131237943Y-86074953D01*
X131179924Y-86027751D01*
X131179922Y-86027750D01*
X131179920Y-86027748D01*
X130928555Y-85874889D01*
X130928550Y-85874887D01*
X130658720Y-85757684D01*
X130375435Y-85678311D01*
X130375431Y-85678310D01*
X130375430Y-85678310D01*
X130229701Y-85658280D01*
X130083974Y-85638250D01*
X130083973Y-85638250D01*
X129789777Y-85638250D01*
X129789776Y-85638250D01*
X129498320Y-85678310D01*
X129498314Y-85678311D01*
X129215029Y-85757684D01*
X128945199Y-85874887D01*
X128945194Y-85874889D01*
X128693829Y-86027748D01*
X128465618Y-86213411D01*
X128264807Y-86428426D01*
X128095157Y-86668766D01*
X128095153Y-86668772D01*
X127959802Y-86929987D01*
X127861284Y-87207190D01*
X127861279Y-87207206D01*
X127801427Y-87495236D01*
X127801426Y-87495238D01*
X127781350Y-87788750D01*
X113042400Y-87788750D01*
X113022323Y-87495239D01*
X112990159Y-87340456D01*
X112962470Y-87207206D01*
X112962465Y-87207190D01*
X112863947Y-86929987D01*
X112863947Y-86929986D01*
X112728597Y-86668774D01*
X112728596Y-86668772D01*
X112728592Y-86668766D01*
X112558942Y-86428426D01*
X112492005Y-86356754D01*
X112358135Y-86213415D01*
X112358133Y-86213414D01*
X112358131Y-86213411D01*
X112187943Y-86074953D01*
X112129924Y-86027751D01*
X112129922Y-86027750D01*
X112129920Y-86027748D01*
X111878555Y-85874889D01*
X111878550Y-85874887D01*
X111608720Y-85757684D01*
X111325435Y-85678311D01*
X111325431Y-85678310D01*
X111325430Y-85678310D01*
X111179701Y-85658280D01*
X111033974Y-85638250D01*
X111033973Y-85638250D01*
X110739777Y-85638250D01*
X110739776Y-85638250D01*
X110448320Y-85678310D01*
X110448314Y-85678311D01*
X110165029Y-85757684D01*
X109895199Y-85874887D01*
X109895194Y-85874889D01*
X109643829Y-86027748D01*
X109415618Y-86213411D01*
X109214807Y-86428426D01*
X109045157Y-86668766D01*
X109045153Y-86668772D01*
X108909802Y-86929987D01*
X108811284Y-87207190D01*
X108811279Y-87207206D01*
X108751427Y-87495236D01*
X108751426Y-87495238D01*
X108731350Y-87788750D01*
X93992400Y-87788750D01*
X93972323Y-87495239D01*
X93940159Y-87340456D01*
X93912470Y-87207206D01*
X93912465Y-87207190D01*
X93813947Y-86929987D01*
X93813947Y-86929986D01*
X93678597Y-86668774D01*
X93678596Y-86668772D01*
X93678592Y-86668766D01*
X93508942Y-86428426D01*
X93442005Y-86356754D01*
X93308135Y-86213415D01*
X93308133Y-86213414D01*
X93308131Y-86213411D01*
X93137943Y-86074953D01*
X93079924Y-86027751D01*
X93079922Y-86027750D01*
X93079920Y-86027748D01*
X92828555Y-85874889D01*
X92828550Y-85874887D01*
X92558720Y-85757684D01*
X92275435Y-85678311D01*
X92275431Y-85678310D01*
X92275430Y-85678310D01*
X92129701Y-85658280D01*
X91983974Y-85638250D01*
X91983973Y-85638250D01*
X91689777Y-85638250D01*
X91689776Y-85638250D01*
X91398320Y-85678310D01*
X91398314Y-85678311D01*
X91115029Y-85757684D01*
X90845199Y-85874887D01*
X90845194Y-85874889D01*
X90593829Y-86027748D01*
X90365618Y-86213411D01*
X90164807Y-86428426D01*
X89995157Y-86668766D01*
X89995153Y-86668772D01*
X89859802Y-86929987D01*
X89761284Y-87207190D01*
X89761279Y-87207206D01*
X89701427Y-87495236D01*
X89701426Y-87495238D01*
X89681350Y-87788750D01*
X72561150Y-87788750D01*
X72541073Y-87495239D01*
X72508909Y-87340456D01*
X72481220Y-87207206D01*
X72481215Y-87207190D01*
X72382697Y-86929987D01*
X72382697Y-86929986D01*
X72247347Y-86668774D01*
X72247346Y-86668772D01*
X72247342Y-86668766D01*
X72077692Y-86428426D01*
X72010755Y-86356754D01*
X71876885Y-86213415D01*
X71876883Y-86213414D01*
X71876881Y-86213411D01*
X71706693Y-86074953D01*
X71648674Y-86027751D01*
X71648672Y-86027750D01*
X71648670Y-86027748D01*
X71397305Y-85874889D01*
X71397300Y-85874887D01*
X71127470Y-85757684D01*
X70844185Y-85678311D01*
X70844181Y-85678310D01*
X70844180Y-85678310D01*
X70698451Y-85658280D01*
X70552724Y-85638250D01*
X70552723Y-85638250D01*
X70258527Y-85638250D01*
X70258526Y-85638250D01*
X69967070Y-85678310D01*
X69967064Y-85678311D01*
X69683779Y-85757684D01*
X69413949Y-85874887D01*
X69413944Y-85874889D01*
X69162579Y-86027748D01*
X68934368Y-86213411D01*
X68733557Y-86428426D01*
X68563907Y-86668766D01*
X68563903Y-86668772D01*
X68428552Y-86929987D01*
X68330034Y-87207190D01*
X68330029Y-87207206D01*
X68270177Y-87495236D01*
X68270176Y-87495238D01*
X68250100Y-87788750D01*
X56459875Y-87788750D01*
X56459875Y-85400002D01*
X139944751Y-85400002D01*
X139963685Y-85568056D01*
X140019545Y-85727694D01*
X140019547Y-85727697D01*
X140109518Y-85870884D01*
X140109523Y-85870890D01*
X140229109Y-85990476D01*
X140229115Y-85990481D01*
X140372302Y-86080452D01*
X140372305Y-86080454D01*
X140372309Y-86080455D01*
X140372310Y-86080456D01*
X140444913Y-86105860D01*
X140531943Y-86136314D01*
X140699997Y-86155249D01*
X140700000Y-86155249D01*
X140700003Y-86155249D01*
X140868056Y-86136314D01*
X140868059Y-86136313D01*
X141027690Y-86080456D01*
X141027692Y-86080454D01*
X141027694Y-86080454D01*
X141027697Y-86080452D01*
X141170884Y-85990481D01*
X141170885Y-85990480D01*
X141170890Y-85990477D01*
X141290477Y-85870890D01*
X141290481Y-85870884D01*
X141380452Y-85727697D01*
X141380454Y-85727694D01*
X141380454Y-85727692D01*
X141380456Y-85727690D01*
X141436313Y-85568059D01*
X141436313Y-85568058D01*
X141436314Y-85568056D01*
X141455249Y-85400002D01*
X141455249Y-85399997D01*
X141436314Y-85231943D01*
X141380454Y-85072305D01*
X141380452Y-85072302D01*
X141290481Y-84929115D01*
X141290476Y-84929109D01*
X141170890Y-84809523D01*
X141170884Y-84809518D01*
X141027697Y-84719547D01*
X141027694Y-84719545D01*
X140868056Y-84663685D01*
X140700003Y-84644751D01*
X140699997Y-84644751D01*
X140531943Y-84663685D01*
X140372305Y-84719545D01*
X140372302Y-84719547D01*
X140229115Y-84809518D01*
X140229109Y-84809523D01*
X140109523Y-84929109D01*
X140109518Y-84929115D01*
X140019547Y-85072302D01*
X140019545Y-85072305D01*
X139963685Y-85231943D01*
X139944751Y-85399997D01*
X139944751Y-85400002D01*
X56459875Y-85400002D01*
X56459875Y-80980003D01*
X152784435Y-80980003D01*
X152804630Y-81159249D01*
X152804631Y-81159254D01*
X152864211Y-81329523D01*
X152960184Y-81482262D01*
X153087738Y-81609816D01*
X153240478Y-81705789D01*
X153410745Y-81765368D01*
X153410750Y-81765369D01*
X153589996Y-81785565D01*
X153590000Y-81785565D01*
X153590004Y-81785565D01*
X153769249Y-81765369D01*
X153769252Y-81765368D01*
X153769255Y-81765368D01*
X153939522Y-81705789D01*
X154092262Y-81609816D01*
X154219816Y-81482262D01*
X154315789Y-81329522D01*
X154375368Y-81159255D01*
X154395565Y-80980000D01*
X154375368Y-80800745D01*
X154315789Y-80630478D01*
X154219816Y-80477738D01*
X154092262Y-80350184D01*
X154068996Y-80335565D01*
X153939523Y-80254211D01*
X153769254Y-80194631D01*
X153769249Y-80194630D01*
X153590004Y-80174435D01*
X153589996Y-80174435D01*
X153410750Y-80194630D01*
X153410745Y-80194631D01*
X153240476Y-80254211D01*
X153087737Y-80350184D01*
X152960184Y-80477737D01*
X152864211Y-80630476D01*
X152804631Y-80800745D01*
X152804630Y-80800750D01*
X152784435Y-80979996D01*
X152784435Y-80980003D01*
X56459875Y-80980003D01*
X56459875Y-79530003D01*
X66904435Y-79530003D01*
X66924630Y-79709249D01*
X66924631Y-79709254D01*
X66984211Y-79879523D01*
X67022767Y-79940884D01*
X67080184Y-80032262D01*
X67207738Y-80159816D01*
X67281739Y-80206314D01*
X67357966Y-80254211D01*
X67360478Y-80255789D01*
X67530745Y-80315368D01*
X67530750Y-80315369D01*
X67709996Y-80335565D01*
X67710000Y-80335565D01*
X67710004Y-80335565D01*
X67889249Y-80315369D01*
X67889252Y-80315368D01*
X67889255Y-80315368D01*
X68059522Y-80255789D01*
X68212262Y-80159816D01*
X68267319Y-80104759D01*
X68328642Y-80071274D01*
X68398334Y-80076258D01*
X68442681Y-80104759D01*
X68497738Y-80159816D01*
X68571739Y-80206314D01*
X68647966Y-80254211D01*
X68650478Y-80255789D01*
X68820745Y-80315368D01*
X68820750Y-80315369D01*
X68999996Y-80335565D01*
X69000000Y-80335565D01*
X69000004Y-80335565D01*
X69179249Y-80315369D01*
X69179252Y-80315368D01*
X69179255Y-80315368D01*
X69349522Y-80255789D01*
X69502262Y-80159816D01*
X69629816Y-80032262D01*
X69725789Y-79879522D01*
X69785368Y-79709255D01*
X69805565Y-79530000D01*
X69802896Y-79506314D01*
X69798805Y-79470002D01*
X138144751Y-79470002D01*
X138163685Y-79638056D01*
X138219545Y-79797694D01*
X138219547Y-79797697D01*
X138309518Y-79940884D01*
X138309523Y-79940890D01*
X138429109Y-80060476D01*
X138429115Y-80060481D01*
X138572302Y-80150452D01*
X138572305Y-80150454D01*
X138572309Y-80150455D01*
X138572310Y-80150456D01*
X138640838Y-80174435D01*
X138731943Y-80206314D01*
X138899997Y-80225249D01*
X138900000Y-80225249D01*
X138900003Y-80225249D01*
X139068056Y-80206314D01*
X139068059Y-80206313D01*
X139227690Y-80150456D01*
X139227692Y-80150454D01*
X139227694Y-80150454D01*
X139227697Y-80150452D01*
X139370884Y-80060481D01*
X139370885Y-80060480D01*
X139370890Y-80060477D01*
X139490477Y-79940890D01*
X139529037Y-79879523D01*
X139580452Y-79797697D01*
X139580454Y-79797694D01*
X139580454Y-79797692D01*
X139580456Y-79797690D01*
X139636313Y-79638059D01*
X139636313Y-79638058D01*
X139636314Y-79638056D01*
X139655249Y-79470002D01*
X139655249Y-79469997D01*
X139636314Y-79301943D01*
X139580454Y-79142305D01*
X139580452Y-79142302D01*
X139490481Y-78999115D01*
X139490476Y-78999109D01*
X139370890Y-78879523D01*
X139370884Y-78879518D01*
X139227697Y-78789547D01*
X139227694Y-78789545D01*
X139068056Y-78733685D01*
X138900003Y-78714751D01*
X138899997Y-78714751D01*
X138731943Y-78733685D01*
X138572305Y-78789545D01*
X138572302Y-78789547D01*
X138429115Y-78879518D01*
X138429109Y-78879523D01*
X138309523Y-78999109D01*
X138309518Y-78999115D01*
X138219547Y-79142302D01*
X138219545Y-79142305D01*
X138163685Y-79301943D01*
X138144751Y-79469997D01*
X138144751Y-79470002D01*
X69798805Y-79470002D01*
X69785369Y-79350750D01*
X69785368Y-79350745D01*
X69725788Y-79180476D01*
X69629815Y-79027737D01*
X69502262Y-78900184D01*
X69349523Y-78804211D01*
X69179254Y-78744631D01*
X69179249Y-78744630D01*
X69000004Y-78724435D01*
X68999996Y-78724435D01*
X68820750Y-78744630D01*
X68820745Y-78744631D01*
X68650476Y-78804211D01*
X68497737Y-78900184D01*
X68442681Y-78955241D01*
X68381358Y-78988726D01*
X68311666Y-78983742D01*
X68267319Y-78955241D01*
X68212262Y-78900184D01*
X68059523Y-78804211D01*
X67889254Y-78744631D01*
X67889249Y-78744630D01*
X67710004Y-78724435D01*
X67709996Y-78724435D01*
X67530750Y-78744630D01*
X67530745Y-78744631D01*
X67360476Y-78804211D01*
X67207737Y-78900184D01*
X67080184Y-79027737D01*
X66984211Y-79180476D01*
X66924631Y-79350745D01*
X66924630Y-79350750D01*
X66904435Y-79529996D01*
X66904435Y-79530003D01*
X56459875Y-79530003D01*
X56459875Y-78770002D01*
X59704751Y-78770002D01*
X59723685Y-78938056D01*
X59779545Y-79097694D01*
X59779547Y-79097697D01*
X59869518Y-79240884D01*
X59869523Y-79240890D01*
X59989109Y-79360476D01*
X59989115Y-79360481D01*
X60132302Y-79450452D01*
X60132305Y-79450454D01*
X60132309Y-79450455D01*
X60132310Y-79450456D01*
X60188155Y-79469997D01*
X60291943Y-79506314D01*
X60459997Y-79525249D01*
X60460000Y-79525249D01*
X60460003Y-79525249D01*
X60628056Y-79506314D01*
X60628059Y-79506313D01*
X60787690Y-79450456D01*
X60787692Y-79450454D01*
X60787694Y-79450454D01*
X60787697Y-79450452D01*
X60930884Y-79360481D01*
X60930885Y-79360480D01*
X60930890Y-79360477D01*
X61050477Y-79240890D01*
X61088438Y-79180476D01*
X61140452Y-79097697D01*
X61140454Y-79097694D01*
X61140454Y-79097692D01*
X61140456Y-79097690D01*
X61196313Y-78938059D01*
X61196313Y-78938058D01*
X61196314Y-78938056D01*
X61215249Y-78770002D01*
X61215249Y-78769997D01*
X61196314Y-78601943D01*
X61140454Y-78442305D01*
X61140452Y-78442302D01*
X61050481Y-78299115D01*
X61050476Y-78299109D01*
X60930890Y-78179523D01*
X60930884Y-78179518D01*
X60787697Y-78089547D01*
X60787694Y-78089545D01*
X60628056Y-78033685D01*
X60460003Y-78014751D01*
X60459997Y-78014751D01*
X60291943Y-78033685D01*
X60132305Y-78089545D01*
X60132302Y-78089547D01*
X59989115Y-78179518D01*
X59989109Y-78179523D01*
X59869523Y-78299109D01*
X59869518Y-78299115D01*
X59779547Y-78442302D01*
X59779545Y-78442305D01*
X59723685Y-78601943D01*
X59704751Y-78769997D01*
X59704751Y-78770002D01*
X56459875Y-78770002D01*
X56459875Y-73907328D01*
X59278875Y-73907328D01*
X59306589Y-74082306D01*
X59361331Y-74250789D01*
X59361332Y-74250792D01*
X59441761Y-74408640D01*
X59545892Y-74551964D01*
X59671161Y-74677233D01*
X59814485Y-74781364D01*
X59877659Y-74813553D01*
X59972332Y-74861792D01*
X59972335Y-74861793D01*
X60056576Y-74889164D01*
X60140820Y-74916536D01*
X60315796Y-74944250D01*
X60315797Y-74944250D01*
X60492953Y-74944250D01*
X60492954Y-74944250D01*
X60667930Y-74916536D01*
X60836417Y-74861792D01*
X60994265Y-74781364D01*
X61137589Y-74677233D01*
X61262858Y-74551964D01*
X61366989Y-74408640D01*
X61447417Y-74250792D01*
X61502161Y-74082305D01*
X61529875Y-73907329D01*
X61529875Y-73730171D01*
X61504925Y-73572646D01*
X61513879Y-73503355D01*
X61558875Y-73449903D01*
X61625627Y-73429263D01*
X61627398Y-73429250D01*
X61821474Y-73429250D01*
X61852895Y-73424930D01*
X62112930Y-73389190D01*
X62396216Y-73309817D01*
X62666057Y-73192609D01*
X62917424Y-73039749D01*
X63145635Y-72854085D01*
X63233864Y-72759614D01*
X63294006Y-72724056D01*
X63363827Y-72726658D01*
X63421158Y-72766596D01*
X63447796Y-72831188D01*
X63439047Y-72891704D01*
X63354527Y-73095755D01*
X63278376Y-73379953D01*
X63239976Y-73671633D01*
X63239975Y-73671650D01*
X63239975Y-73965849D01*
X63239976Y-73965866D01*
X63278376Y-74257548D01*
X63319275Y-74410183D01*
X63317612Y-74480033D01*
X63278449Y-74537895D01*
X63214221Y-74565399D01*
X63213384Y-74565496D01*
X63051943Y-74583685D01*
X62892305Y-74639545D01*
X62892302Y-74639547D01*
X62749115Y-74729518D01*
X62749109Y-74729523D01*
X62629523Y-74849109D01*
X62629518Y-74849115D01*
X62539547Y-74992302D01*
X62539545Y-74992305D01*
X62483685Y-75151943D01*
X62464751Y-75319997D01*
X62464751Y-75320002D01*
X62483685Y-75488056D01*
X62539545Y-75647694D01*
X62539547Y-75647697D01*
X62629518Y-75790884D01*
X62629523Y-75790890D01*
X62749109Y-75910476D01*
X62749115Y-75910481D01*
X62892302Y-76000452D01*
X62892305Y-76000454D01*
X62892309Y-76000455D01*
X62892310Y-76000456D01*
X62961733Y-76024748D01*
X63051943Y-76056314D01*
X63219997Y-76075249D01*
X63220000Y-76075249D01*
X63220003Y-76075249D01*
X63388056Y-76056314D01*
X63388059Y-76056313D01*
X63547690Y-76000456D01*
X63547692Y-76000454D01*
X63547694Y-76000454D01*
X63547697Y-76000452D01*
X63690884Y-75910481D01*
X63690885Y-75910480D01*
X63690890Y-75910477D01*
X63810477Y-75790890D01*
X63810481Y-75790884D01*
X63900452Y-75647697D01*
X63900453Y-75647694D01*
X63900456Y-75647690D01*
X63903258Y-75639680D01*
X63943974Y-75582905D01*
X64008925Y-75557153D01*
X64077487Y-75570604D01*
X64095787Y-75582254D01*
X64216661Y-75675003D01*
X64234778Y-75688905D01*
X64234785Y-75688909D01*
X64489564Y-75836007D01*
X64489580Y-75836015D01*
X64761380Y-75948597D01*
X64761382Y-75948597D01*
X64761388Y-75948600D01*
X65045575Y-76024748D01*
X65337269Y-76063150D01*
X65337276Y-76063150D01*
X65631474Y-76063150D01*
X65631481Y-76063150D01*
X65923175Y-76024748D01*
X66207362Y-75948600D01*
X66299402Y-75910476D01*
X66479169Y-75836015D01*
X66479172Y-75836013D01*
X66479178Y-75836011D01*
X66733972Y-75688905D01*
X66967386Y-75509800D01*
X67175425Y-75301761D01*
X67354530Y-75068347D01*
X67501636Y-74813553D01*
X67514970Y-74781363D01*
X67614222Y-74541744D01*
X67614221Y-74541744D01*
X67614225Y-74541737D01*
X67690373Y-74257550D01*
X67728775Y-73965856D01*
X67728775Y-73907328D01*
X69438875Y-73907328D01*
X69466589Y-74082306D01*
X69521331Y-74250789D01*
X69521332Y-74250792D01*
X69601761Y-74408640D01*
X69705892Y-74551964D01*
X69831161Y-74677233D01*
X69974485Y-74781364D01*
X70037659Y-74813553D01*
X70132332Y-74861792D01*
X70132335Y-74861793D01*
X70216576Y-74889164D01*
X70300820Y-74916536D01*
X70475796Y-74944250D01*
X70475797Y-74944250D01*
X70652953Y-74944250D01*
X70652954Y-74944250D01*
X70827930Y-74916536D01*
X70996417Y-74861792D01*
X71154265Y-74781364D01*
X71297589Y-74677233D01*
X71422858Y-74551964D01*
X71526989Y-74408640D01*
X71607417Y-74250792D01*
X71662161Y-74082305D01*
X71689875Y-73907329D01*
X71689875Y-73907328D01*
X78328875Y-73907328D01*
X78356589Y-74082306D01*
X78411331Y-74250789D01*
X78411332Y-74250792D01*
X78491761Y-74408640D01*
X78595892Y-74551964D01*
X78721161Y-74677233D01*
X78864485Y-74781364D01*
X78927659Y-74813553D01*
X79022332Y-74861792D01*
X79022335Y-74861793D01*
X79106576Y-74889164D01*
X79190820Y-74916536D01*
X79365796Y-74944250D01*
X79365797Y-74944250D01*
X79542953Y-74944250D01*
X79542954Y-74944250D01*
X79717930Y-74916536D01*
X79886417Y-74861792D01*
X80044265Y-74781364D01*
X80187589Y-74677233D01*
X80312858Y-74551964D01*
X80416989Y-74408640D01*
X80497417Y-74250792D01*
X80552161Y-74082305D01*
X80579875Y-73907329D01*
X80579875Y-73730171D01*
X80554925Y-73572646D01*
X80563879Y-73503355D01*
X80608875Y-73449903D01*
X80675627Y-73429263D01*
X80677398Y-73429250D01*
X80871474Y-73429250D01*
X80902895Y-73424930D01*
X81162930Y-73389190D01*
X81446216Y-73309817D01*
X81716057Y-73192609D01*
X81967424Y-73039749D01*
X82195635Y-72854085D01*
X82283864Y-72759614D01*
X82344006Y-72724056D01*
X82413827Y-72726658D01*
X82471158Y-72766596D01*
X82497796Y-72831188D01*
X82489047Y-72891704D01*
X82404527Y-73095755D01*
X82328376Y-73379953D01*
X82289976Y-73671633D01*
X82289975Y-73671650D01*
X82289975Y-73965849D01*
X82289976Y-73965866D01*
X82327486Y-74250789D01*
X82328377Y-74257550D01*
X82387991Y-74480033D01*
X82404527Y-74541744D01*
X82517109Y-74813544D01*
X82517117Y-74813560D01*
X82664215Y-75068339D01*
X82664226Y-75068355D01*
X82843323Y-75301759D01*
X82843329Y-75301766D01*
X83051358Y-75509795D01*
X83051365Y-75509801D01*
X83130605Y-75570604D01*
X83284778Y-75688905D01*
X83284785Y-75688909D01*
X83539564Y-75836007D01*
X83539580Y-75836015D01*
X83811380Y-75948597D01*
X83811382Y-75948597D01*
X83811388Y-75948600D01*
X84095575Y-76024748D01*
X84387269Y-76063150D01*
X84387276Y-76063150D01*
X84681474Y-76063150D01*
X84681481Y-76063150D01*
X84973175Y-76024748D01*
X85257362Y-75948600D01*
X85349402Y-75910476D01*
X85529169Y-75836015D01*
X85529172Y-75836013D01*
X85529178Y-75836011D01*
X85783972Y-75688905D01*
X86017386Y-75509800D01*
X86225425Y-75301761D01*
X86404530Y-75068347D01*
X86551636Y-74813553D01*
X86564970Y-74781363D01*
X86664222Y-74541744D01*
X86664221Y-74541744D01*
X86664225Y-74541737D01*
X86740373Y-74257550D01*
X86778775Y-73965856D01*
X86778775Y-73907328D01*
X88488875Y-73907328D01*
X88516589Y-74082306D01*
X88571331Y-74250789D01*
X88571332Y-74250792D01*
X88651761Y-74408640D01*
X88755892Y-74551964D01*
X88881161Y-74677233D01*
X89024485Y-74781364D01*
X89087659Y-74813553D01*
X89182332Y-74861792D01*
X89182335Y-74861793D01*
X89266576Y-74889164D01*
X89350820Y-74916536D01*
X89525796Y-74944250D01*
X89525797Y-74944250D01*
X89702953Y-74944250D01*
X89702954Y-74944250D01*
X89877930Y-74916536D01*
X90046417Y-74861792D01*
X90204265Y-74781364D01*
X90347589Y-74677233D01*
X90472858Y-74551964D01*
X90576989Y-74408640D01*
X90657417Y-74250792D01*
X90712161Y-74082305D01*
X90739875Y-73907329D01*
X90739875Y-73907328D01*
X97378875Y-73907328D01*
X97406589Y-74082306D01*
X97461331Y-74250789D01*
X97461332Y-74250792D01*
X97541761Y-74408640D01*
X97645892Y-74551964D01*
X97771161Y-74677233D01*
X97914485Y-74781364D01*
X97977659Y-74813553D01*
X98072332Y-74861792D01*
X98072335Y-74861793D01*
X98156576Y-74889164D01*
X98240820Y-74916536D01*
X98415796Y-74944250D01*
X98415797Y-74944250D01*
X98592953Y-74944250D01*
X98592954Y-74944250D01*
X98767930Y-74916536D01*
X98936417Y-74861792D01*
X99094265Y-74781364D01*
X99237589Y-74677233D01*
X99362858Y-74551964D01*
X99466989Y-74408640D01*
X99547417Y-74250792D01*
X99602161Y-74082305D01*
X99629875Y-73907329D01*
X99629875Y-73730171D01*
X99604925Y-73572646D01*
X99613879Y-73503355D01*
X99658875Y-73449903D01*
X99725627Y-73429263D01*
X99727398Y-73429250D01*
X99921474Y-73429250D01*
X99952895Y-73424930D01*
X100212930Y-73389190D01*
X100496216Y-73309817D01*
X100766057Y-73192609D01*
X101017424Y-73039749D01*
X101245635Y-72854085D01*
X101333864Y-72759614D01*
X101394006Y-72724056D01*
X101463827Y-72726658D01*
X101521158Y-72766596D01*
X101547796Y-72831188D01*
X101539047Y-72891704D01*
X101454527Y-73095755D01*
X101378376Y-73379953D01*
X101339976Y-73671633D01*
X101339975Y-73671650D01*
X101339975Y-73965849D01*
X101339976Y-73965866D01*
X101377486Y-74250789D01*
X101378377Y-74257550D01*
X101437991Y-74480033D01*
X101454527Y-74541744D01*
X101567109Y-74813544D01*
X101567117Y-74813560D01*
X101714215Y-75068339D01*
X101714226Y-75068355D01*
X101893323Y-75301759D01*
X101893329Y-75301766D01*
X102101358Y-75509795D01*
X102101365Y-75509801D01*
X102180605Y-75570604D01*
X102334778Y-75688905D01*
X102334785Y-75688909D01*
X102589564Y-75836007D01*
X102589580Y-75836015D01*
X102861380Y-75948597D01*
X102861382Y-75948597D01*
X102861388Y-75948600D01*
X103145575Y-76024748D01*
X103437269Y-76063150D01*
X103437276Y-76063150D01*
X103731474Y-76063150D01*
X103731481Y-76063150D01*
X104023175Y-76024748D01*
X104307362Y-75948600D01*
X104399402Y-75910476D01*
X104579169Y-75836015D01*
X104579172Y-75836013D01*
X104579178Y-75836011D01*
X104833972Y-75688905D01*
X105067386Y-75509800D01*
X105275425Y-75301761D01*
X105454530Y-75068347D01*
X105601636Y-74813553D01*
X105614970Y-74781363D01*
X105714222Y-74541744D01*
X105714221Y-74541744D01*
X105714225Y-74541737D01*
X105790373Y-74257550D01*
X105828775Y-73965856D01*
X105828775Y-73907328D01*
X107538875Y-73907328D01*
X107566589Y-74082306D01*
X107621331Y-74250789D01*
X107621332Y-74250792D01*
X107701761Y-74408640D01*
X107805892Y-74551964D01*
X107931161Y-74677233D01*
X108074485Y-74781364D01*
X108137659Y-74813553D01*
X108232332Y-74861792D01*
X108232335Y-74861793D01*
X108316576Y-74889164D01*
X108400820Y-74916536D01*
X108575796Y-74944250D01*
X108575797Y-74944250D01*
X108752953Y-74944250D01*
X108752954Y-74944250D01*
X108927930Y-74916536D01*
X109096417Y-74861792D01*
X109254265Y-74781364D01*
X109397589Y-74677233D01*
X109522858Y-74551964D01*
X109626989Y-74408640D01*
X109707417Y-74250792D01*
X109762161Y-74082305D01*
X109789875Y-73907329D01*
X109789875Y-73907328D01*
X116428875Y-73907328D01*
X116456589Y-74082306D01*
X116511331Y-74250789D01*
X116511332Y-74250792D01*
X116591761Y-74408640D01*
X116695892Y-74551964D01*
X116821161Y-74677233D01*
X116964485Y-74781364D01*
X117027659Y-74813553D01*
X117122332Y-74861792D01*
X117122335Y-74861793D01*
X117206576Y-74889164D01*
X117290820Y-74916536D01*
X117465796Y-74944250D01*
X117465797Y-74944250D01*
X117642953Y-74944250D01*
X117642954Y-74944250D01*
X117817930Y-74916536D01*
X117986417Y-74861792D01*
X118144265Y-74781364D01*
X118287589Y-74677233D01*
X118412858Y-74551964D01*
X118516989Y-74408640D01*
X118597417Y-74250792D01*
X118652161Y-74082305D01*
X118679875Y-73907329D01*
X118679875Y-73730171D01*
X118654925Y-73572646D01*
X118663879Y-73503355D01*
X118708875Y-73449903D01*
X118775627Y-73429263D01*
X118777398Y-73429250D01*
X118971474Y-73429250D01*
X119002895Y-73424930D01*
X119262930Y-73389190D01*
X119546216Y-73309817D01*
X119816057Y-73192609D01*
X120067424Y-73039749D01*
X120295635Y-72854085D01*
X120383864Y-72759614D01*
X120444006Y-72724056D01*
X120513827Y-72726658D01*
X120571158Y-72766596D01*
X120597796Y-72831188D01*
X120589047Y-72891704D01*
X120504527Y-73095755D01*
X120428376Y-73379953D01*
X120389976Y-73671633D01*
X120389975Y-73671650D01*
X120389975Y-73965849D01*
X120389976Y-73965866D01*
X120427486Y-74250789D01*
X120428377Y-74257550D01*
X120487991Y-74480033D01*
X120504527Y-74541744D01*
X120617109Y-74813544D01*
X120617117Y-74813560D01*
X120764215Y-75068339D01*
X120764226Y-75068355D01*
X120943323Y-75301759D01*
X120943329Y-75301766D01*
X121151358Y-75509795D01*
X121151365Y-75509801D01*
X121230605Y-75570604D01*
X121384778Y-75688905D01*
X121384785Y-75688909D01*
X121639564Y-75836007D01*
X121639580Y-75836015D01*
X121911380Y-75948597D01*
X121911382Y-75948597D01*
X121911388Y-75948600D01*
X122195575Y-76024748D01*
X122487269Y-76063150D01*
X122487276Y-76063150D01*
X122781474Y-76063150D01*
X122781481Y-76063150D01*
X123073175Y-76024748D01*
X123357362Y-75948600D01*
X123449402Y-75910476D01*
X123629169Y-75836015D01*
X123629172Y-75836013D01*
X123629178Y-75836011D01*
X123883972Y-75688905D01*
X124117386Y-75509800D01*
X124325425Y-75301761D01*
X124504530Y-75068347D01*
X124651636Y-74813553D01*
X124664970Y-74781363D01*
X124764222Y-74541744D01*
X124764221Y-74541744D01*
X124764225Y-74541737D01*
X124840373Y-74257550D01*
X124878775Y-73965856D01*
X124878775Y-73907328D01*
X126588875Y-73907328D01*
X126616589Y-74082306D01*
X126671331Y-74250789D01*
X126671332Y-74250792D01*
X126751761Y-74408640D01*
X126855892Y-74551964D01*
X126981161Y-74677233D01*
X127124485Y-74781364D01*
X127187659Y-74813553D01*
X127282332Y-74861792D01*
X127282335Y-74861793D01*
X127366576Y-74889164D01*
X127450820Y-74916536D01*
X127625796Y-74944250D01*
X127625797Y-74944250D01*
X127802953Y-74944250D01*
X127802954Y-74944250D01*
X127977930Y-74916536D01*
X128146417Y-74861792D01*
X128304265Y-74781364D01*
X128447589Y-74677233D01*
X128572858Y-74551964D01*
X128676989Y-74408640D01*
X128757417Y-74250792D01*
X128812161Y-74082305D01*
X128839875Y-73907329D01*
X128839875Y-73907328D01*
X142622625Y-73907328D01*
X142650339Y-74082306D01*
X142705081Y-74250789D01*
X142705082Y-74250792D01*
X142785511Y-74408640D01*
X142889642Y-74551964D01*
X143014911Y-74677233D01*
X143158235Y-74781364D01*
X143221409Y-74813553D01*
X143316082Y-74861792D01*
X143316085Y-74861793D01*
X143400326Y-74889164D01*
X143484570Y-74916536D01*
X143659546Y-74944250D01*
X143659547Y-74944250D01*
X143836703Y-74944250D01*
X143836704Y-74944250D01*
X144011680Y-74916536D01*
X144180167Y-74861792D01*
X144338015Y-74781364D01*
X144481339Y-74677233D01*
X144606608Y-74551964D01*
X144710739Y-74408640D01*
X144791167Y-74250792D01*
X144845911Y-74082305D01*
X144873625Y-73907329D01*
X144873625Y-73730171D01*
X144848675Y-73572646D01*
X144857629Y-73503355D01*
X144902625Y-73449903D01*
X144969377Y-73429263D01*
X144971148Y-73429250D01*
X145165224Y-73429250D01*
X145196645Y-73424930D01*
X145456680Y-73389190D01*
X145739966Y-73309817D01*
X146009807Y-73192609D01*
X146261174Y-73039749D01*
X146489385Y-72854085D01*
X146577614Y-72759614D01*
X146637756Y-72724056D01*
X146707577Y-72726658D01*
X146764908Y-72766596D01*
X146791546Y-72831188D01*
X146782797Y-72891704D01*
X146698277Y-73095755D01*
X146622126Y-73379953D01*
X146583726Y-73671633D01*
X146583725Y-73671650D01*
X146583725Y-73965849D01*
X146583726Y-73965866D01*
X146621236Y-74250789D01*
X146622127Y-74257550D01*
X146681741Y-74480033D01*
X146698277Y-74541744D01*
X146810859Y-74813544D01*
X146810867Y-74813560D01*
X146957965Y-75068339D01*
X146957976Y-75068355D01*
X147137073Y-75301759D01*
X147137079Y-75301766D01*
X147345108Y-75509795D01*
X147345115Y-75509801D01*
X147424355Y-75570604D01*
X147578528Y-75688905D01*
X147578535Y-75688909D01*
X147833314Y-75836007D01*
X147833330Y-75836015D01*
X148105130Y-75948597D01*
X148105132Y-75948597D01*
X148105138Y-75948600D01*
X148389325Y-76024748D01*
X148681019Y-76063150D01*
X148681026Y-76063150D01*
X148975224Y-76063150D01*
X148975231Y-76063150D01*
X149266925Y-76024748D01*
X149551112Y-75948600D01*
X149643152Y-75910476D01*
X149822919Y-75836015D01*
X149822922Y-75836013D01*
X149822928Y-75836011D01*
X150077722Y-75688905D01*
X150311136Y-75509800D01*
X150519175Y-75301761D01*
X150698280Y-75068347D01*
X150845386Y-74813553D01*
X150858720Y-74781363D01*
X150957972Y-74541744D01*
X150957971Y-74541744D01*
X150957975Y-74541737D01*
X151034123Y-74257550D01*
X151072525Y-73965856D01*
X151072525Y-73907328D01*
X152782625Y-73907328D01*
X152810339Y-74082306D01*
X152865081Y-74250789D01*
X152865082Y-74250792D01*
X152945511Y-74408640D01*
X153049642Y-74551964D01*
X153174911Y-74677233D01*
X153318235Y-74781364D01*
X153381409Y-74813553D01*
X153476082Y-74861792D01*
X153476085Y-74861793D01*
X153560326Y-74889164D01*
X153644570Y-74916536D01*
X153819546Y-74944250D01*
X153819547Y-74944250D01*
X153996703Y-74944250D01*
X153996704Y-74944250D01*
X154171680Y-74916536D01*
X154340167Y-74861792D01*
X154498015Y-74781364D01*
X154641339Y-74677233D01*
X154766608Y-74551964D01*
X154870739Y-74408640D01*
X154951167Y-74250792D01*
X155005911Y-74082305D01*
X155033625Y-73907329D01*
X155033625Y-73730171D01*
X155005911Y-73555195D01*
X154961903Y-73419749D01*
X154951168Y-73386710D01*
X154951167Y-73386707D01*
X154870738Y-73228859D01*
X154844403Y-73192612D01*
X154766608Y-73085536D01*
X154641339Y-72960267D01*
X154498015Y-72856136D01*
X154493990Y-72854085D01*
X154340167Y-72775707D01*
X154340164Y-72775706D01*
X154171681Y-72720964D01*
X154084192Y-72707107D01*
X153996704Y-72693250D01*
X153819546Y-72693250D01*
X153761220Y-72702488D01*
X153644568Y-72720964D01*
X153476085Y-72775706D01*
X153476082Y-72775707D01*
X153318234Y-72856136D01*
X153236463Y-72915546D01*
X153174911Y-72960267D01*
X153174909Y-72960269D01*
X153174908Y-72960269D01*
X153049644Y-73085533D01*
X153049644Y-73085534D01*
X153049642Y-73085536D01*
X153042212Y-73095763D01*
X152945511Y-73228859D01*
X152865082Y-73386707D01*
X152865081Y-73386710D01*
X152810339Y-73555193D01*
X152782625Y-73730171D01*
X152782625Y-73907328D01*
X151072525Y-73907328D01*
X151072525Y-73671644D01*
X151034123Y-73379950D01*
X150957975Y-73095763D01*
X150953738Y-73085533D01*
X150845390Y-72823955D01*
X150845382Y-72823939D01*
X150698284Y-72569160D01*
X150698280Y-72569153D01*
X150567512Y-72398733D01*
X150519176Y-72335740D01*
X150519170Y-72335733D01*
X150311141Y-72127704D01*
X150311134Y-72127698D01*
X150077730Y-71948601D01*
X150077728Y-71948599D01*
X150077722Y-71948595D01*
X150077717Y-71948592D01*
X150077714Y-71948590D01*
X149822935Y-71801492D01*
X149822919Y-71801484D01*
X149551119Y-71688902D01*
X149266921Y-71612751D01*
X148975241Y-71574351D01*
X148975236Y-71574350D01*
X148975231Y-71574350D01*
X148681019Y-71574350D01*
X148681013Y-71574350D01*
X148681008Y-71574351D01*
X148389328Y-71612751D01*
X148105130Y-71688902D01*
X147833330Y-71801484D01*
X147833314Y-71801492D01*
X147578535Y-71948590D01*
X147578519Y-71948601D01*
X147345116Y-72127697D01*
X147195381Y-72277432D01*
X147134058Y-72310916D01*
X147064366Y-72305932D01*
X147008433Y-72264060D01*
X146984016Y-72198596D01*
X146993966Y-72140347D01*
X146995192Y-72137523D01*
X146995197Y-72137514D01*
X146998684Y-72127704D01*
X147062336Y-71948601D01*
X147093717Y-71860304D01*
X147093717Y-71860299D01*
X147093720Y-71860293D01*
X147129335Y-71688900D01*
X147153573Y-71572261D01*
X147173650Y-71278750D01*
X147153573Y-70985239D01*
X147125302Y-70849190D01*
X147093720Y-70697206D01*
X147093715Y-70697190D01*
X147023545Y-70499751D01*
X146995197Y-70419986D01*
X146859847Y-70158774D01*
X146859846Y-70158772D01*
X146859842Y-70158766D01*
X146690192Y-69918426D01*
X146489381Y-69703411D01*
X146261170Y-69517748D01*
X146009805Y-69364889D01*
X146009800Y-69364887D01*
X145739970Y-69247684D01*
X145456685Y-69168311D01*
X145456681Y-69168310D01*
X145456680Y-69168310D01*
X145310951Y-69148280D01*
X145165224Y-69128250D01*
X145165223Y-69128250D01*
X144871027Y-69128250D01*
X144871026Y-69128250D01*
X144579570Y-69168310D01*
X144579564Y-69168311D01*
X144296279Y-69247684D01*
X144026449Y-69364887D01*
X144026444Y-69364889D01*
X143775079Y-69517748D01*
X143546868Y-69703411D01*
X143346057Y-69918426D01*
X143176407Y-70158766D01*
X143176403Y-70158772D01*
X143041052Y-70419987D01*
X142942534Y-70697190D01*
X142942529Y-70697206D01*
X142882677Y-70985236D01*
X142882676Y-70985238D01*
X142862600Y-71278750D01*
X142882676Y-71572261D01*
X142882677Y-71572263D01*
X142942529Y-71860293D01*
X142942534Y-71860309D01*
X143041052Y-72137512D01*
X143176403Y-72398727D01*
X143176407Y-72398733D01*
X143326486Y-72611347D01*
X143349065Y-72677468D01*
X143332311Y-72745299D01*
X143281545Y-72793305D01*
X143281478Y-72793339D01*
X143158236Y-72856134D01*
X143057970Y-72928982D01*
X143014911Y-72960267D01*
X143014909Y-72960269D01*
X143014908Y-72960269D01*
X142889644Y-73085533D01*
X142889644Y-73085534D01*
X142889642Y-73085536D01*
X142882212Y-73095763D01*
X142785511Y-73228859D01*
X142705082Y-73386707D01*
X142705081Y-73386710D01*
X142650339Y-73555193D01*
X142622625Y-73730171D01*
X142622625Y-73907328D01*
X128839875Y-73907328D01*
X128839875Y-73730171D01*
X128812161Y-73555195D01*
X128768153Y-73419749D01*
X128757418Y-73386710D01*
X128757417Y-73386707D01*
X128676988Y-73228859D01*
X128650653Y-73192612D01*
X128572858Y-73085536D01*
X128447589Y-72960267D01*
X128304265Y-72856136D01*
X128300240Y-72854085D01*
X128146417Y-72775707D01*
X128146414Y-72775706D01*
X127977931Y-72720964D01*
X127890442Y-72707107D01*
X127802954Y-72693250D01*
X127625796Y-72693250D01*
X127567470Y-72702488D01*
X127450818Y-72720964D01*
X127282335Y-72775706D01*
X127282332Y-72775707D01*
X127124484Y-72856136D01*
X127042713Y-72915546D01*
X126981161Y-72960267D01*
X126981159Y-72960269D01*
X126981158Y-72960269D01*
X126855894Y-73085533D01*
X126855894Y-73085534D01*
X126855892Y-73085536D01*
X126848462Y-73095763D01*
X126751761Y-73228859D01*
X126671332Y-73386707D01*
X126671331Y-73386710D01*
X126616589Y-73555193D01*
X126588875Y-73730171D01*
X126588875Y-73907328D01*
X124878775Y-73907328D01*
X124878775Y-73671644D01*
X124840373Y-73379950D01*
X124764225Y-73095763D01*
X124759988Y-73085533D01*
X124651640Y-72823955D01*
X124651632Y-72823939D01*
X124504534Y-72569160D01*
X124504530Y-72569153D01*
X124373762Y-72398733D01*
X124325426Y-72335740D01*
X124325420Y-72335733D01*
X124117391Y-72127704D01*
X124117384Y-72127698D01*
X123883980Y-71948601D01*
X123883978Y-71948599D01*
X123883972Y-71948595D01*
X123883967Y-71948592D01*
X123883964Y-71948590D01*
X123629185Y-71801492D01*
X123629169Y-71801484D01*
X123357369Y-71688902D01*
X123073171Y-71612751D01*
X122781491Y-71574351D01*
X122781486Y-71574350D01*
X122781481Y-71574350D01*
X122487269Y-71574350D01*
X122487263Y-71574350D01*
X122487258Y-71574351D01*
X122195578Y-71612751D01*
X121911380Y-71688902D01*
X121639580Y-71801484D01*
X121639564Y-71801492D01*
X121384785Y-71948590D01*
X121384769Y-71948601D01*
X121151366Y-72127697D01*
X121001631Y-72277432D01*
X120940308Y-72310916D01*
X120870616Y-72305932D01*
X120814683Y-72264060D01*
X120790266Y-72198596D01*
X120800216Y-72140347D01*
X120801442Y-72137523D01*
X120801447Y-72137514D01*
X120804934Y-72127704D01*
X120868586Y-71948601D01*
X120899967Y-71860304D01*
X120899967Y-71860299D01*
X120899970Y-71860293D01*
X120935585Y-71688900D01*
X120959823Y-71572261D01*
X120979900Y-71278750D01*
X120959823Y-70985239D01*
X120931552Y-70849190D01*
X120899970Y-70697206D01*
X120899965Y-70697190D01*
X120829795Y-70499751D01*
X120801447Y-70419986D01*
X120666097Y-70158774D01*
X120666096Y-70158772D01*
X120666092Y-70158766D01*
X120496442Y-69918426D01*
X120295631Y-69703411D01*
X120067420Y-69517748D01*
X119816055Y-69364889D01*
X119816050Y-69364887D01*
X119546220Y-69247684D01*
X119262935Y-69168311D01*
X119262931Y-69168310D01*
X119262930Y-69168310D01*
X119117201Y-69148280D01*
X118971474Y-69128250D01*
X118971473Y-69128250D01*
X118677277Y-69128250D01*
X118677276Y-69128250D01*
X118385820Y-69168310D01*
X118385814Y-69168311D01*
X118102529Y-69247684D01*
X117832699Y-69364887D01*
X117832694Y-69364889D01*
X117581329Y-69517748D01*
X117353118Y-69703411D01*
X117152307Y-69918426D01*
X116982657Y-70158766D01*
X116982653Y-70158772D01*
X116847302Y-70419987D01*
X116748784Y-70697190D01*
X116748779Y-70697206D01*
X116688927Y-70985236D01*
X116688926Y-70985238D01*
X116668850Y-71278750D01*
X116688926Y-71572261D01*
X116688927Y-71572263D01*
X116748779Y-71860293D01*
X116748784Y-71860309D01*
X116847302Y-72137512D01*
X116982653Y-72398727D01*
X116982657Y-72398733D01*
X117132736Y-72611347D01*
X117155315Y-72677468D01*
X117138561Y-72745299D01*
X117087795Y-72793305D01*
X117087728Y-72793339D01*
X116964486Y-72856134D01*
X116864220Y-72928982D01*
X116821161Y-72960267D01*
X116821159Y-72960269D01*
X116821158Y-72960269D01*
X116695894Y-73085533D01*
X116695894Y-73085534D01*
X116695892Y-73085536D01*
X116688462Y-73095763D01*
X116591761Y-73228859D01*
X116511332Y-73386707D01*
X116511331Y-73386710D01*
X116456589Y-73555193D01*
X116428875Y-73730171D01*
X116428875Y-73907328D01*
X109789875Y-73907328D01*
X109789875Y-73730171D01*
X109762161Y-73555195D01*
X109718153Y-73419749D01*
X109707418Y-73386710D01*
X109707417Y-73386707D01*
X109626988Y-73228859D01*
X109600653Y-73192612D01*
X109522858Y-73085536D01*
X109397589Y-72960267D01*
X109254265Y-72856136D01*
X109250240Y-72854085D01*
X109096417Y-72775707D01*
X109096414Y-72775706D01*
X108927931Y-72720964D01*
X108840442Y-72707107D01*
X108752954Y-72693250D01*
X108575796Y-72693250D01*
X108517470Y-72702488D01*
X108400818Y-72720964D01*
X108232335Y-72775706D01*
X108232332Y-72775707D01*
X108074484Y-72856136D01*
X107992713Y-72915546D01*
X107931161Y-72960267D01*
X107931159Y-72960269D01*
X107931158Y-72960269D01*
X107805894Y-73085533D01*
X107805894Y-73085534D01*
X107805892Y-73085536D01*
X107798462Y-73095763D01*
X107701761Y-73228859D01*
X107621332Y-73386707D01*
X107621331Y-73386710D01*
X107566589Y-73555193D01*
X107538875Y-73730171D01*
X107538875Y-73907328D01*
X105828775Y-73907328D01*
X105828775Y-73671644D01*
X105790373Y-73379950D01*
X105714225Y-73095763D01*
X105709988Y-73085533D01*
X105601640Y-72823955D01*
X105601632Y-72823939D01*
X105454534Y-72569160D01*
X105454530Y-72569153D01*
X105323762Y-72398733D01*
X105275426Y-72335740D01*
X105275420Y-72335733D01*
X105067391Y-72127704D01*
X105067384Y-72127698D01*
X104833980Y-71948601D01*
X104833978Y-71948599D01*
X104833972Y-71948595D01*
X104833967Y-71948592D01*
X104833964Y-71948590D01*
X104579185Y-71801492D01*
X104579169Y-71801484D01*
X104307369Y-71688902D01*
X104023171Y-71612751D01*
X103731491Y-71574351D01*
X103731486Y-71574350D01*
X103731481Y-71574350D01*
X103437269Y-71574350D01*
X103437263Y-71574350D01*
X103437258Y-71574351D01*
X103145578Y-71612751D01*
X102861380Y-71688902D01*
X102589580Y-71801484D01*
X102589564Y-71801492D01*
X102334785Y-71948590D01*
X102334769Y-71948601D01*
X102101366Y-72127697D01*
X101951631Y-72277432D01*
X101890308Y-72310916D01*
X101820616Y-72305932D01*
X101764683Y-72264060D01*
X101740266Y-72198596D01*
X101750216Y-72140347D01*
X101751442Y-72137523D01*
X101751447Y-72137514D01*
X101754934Y-72127704D01*
X101818586Y-71948601D01*
X101849967Y-71860304D01*
X101849967Y-71860299D01*
X101849970Y-71860293D01*
X101885585Y-71688900D01*
X101909823Y-71572261D01*
X101929900Y-71278750D01*
X101909823Y-70985239D01*
X101881552Y-70849190D01*
X101849970Y-70697206D01*
X101849965Y-70697190D01*
X101779795Y-70499751D01*
X101751447Y-70419986D01*
X101616097Y-70158774D01*
X101616096Y-70158772D01*
X101616092Y-70158766D01*
X101446442Y-69918426D01*
X101245631Y-69703411D01*
X101017420Y-69517748D01*
X100766055Y-69364889D01*
X100766050Y-69364887D01*
X100496220Y-69247684D01*
X100212935Y-69168311D01*
X100212931Y-69168310D01*
X100212930Y-69168310D01*
X100067201Y-69148280D01*
X99921474Y-69128250D01*
X99921473Y-69128250D01*
X99627277Y-69128250D01*
X99627276Y-69128250D01*
X99335820Y-69168310D01*
X99335814Y-69168311D01*
X99052529Y-69247684D01*
X98782699Y-69364887D01*
X98782694Y-69364889D01*
X98531329Y-69517748D01*
X98303118Y-69703411D01*
X98102307Y-69918426D01*
X97932657Y-70158766D01*
X97932653Y-70158772D01*
X97797302Y-70419987D01*
X97698784Y-70697190D01*
X97698779Y-70697206D01*
X97638927Y-70985236D01*
X97638926Y-70985238D01*
X97618850Y-71278750D01*
X97638926Y-71572261D01*
X97638927Y-71572263D01*
X97698779Y-71860293D01*
X97698784Y-71860309D01*
X97797302Y-72137512D01*
X97932653Y-72398727D01*
X97932657Y-72398733D01*
X98082736Y-72611347D01*
X98105315Y-72677468D01*
X98088561Y-72745299D01*
X98037795Y-72793305D01*
X98037728Y-72793339D01*
X97914486Y-72856134D01*
X97814220Y-72928982D01*
X97771161Y-72960267D01*
X97771159Y-72960269D01*
X97771158Y-72960269D01*
X97645894Y-73085533D01*
X97645894Y-73085534D01*
X97645892Y-73085536D01*
X97638462Y-73095763D01*
X97541761Y-73228859D01*
X97461332Y-73386707D01*
X97461331Y-73386710D01*
X97406589Y-73555193D01*
X97378875Y-73730171D01*
X97378875Y-73907328D01*
X90739875Y-73907328D01*
X90739875Y-73730171D01*
X90712161Y-73555195D01*
X90668153Y-73419749D01*
X90657418Y-73386710D01*
X90657417Y-73386707D01*
X90576988Y-73228859D01*
X90550653Y-73192612D01*
X90472858Y-73085536D01*
X90347589Y-72960267D01*
X90204265Y-72856136D01*
X90200240Y-72854085D01*
X90046417Y-72775707D01*
X90046414Y-72775706D01*
X89877931Y-72720964D01*
X89790442Y-72707107D01*
X89702954Y-72693250D01*
X89525796Y-72693250D01*
X89467470Y-72702488D01*
X89350818Y-72720964D01*
X89182335Y-72775706D01*
X89182332Y-72775707D01*
X89024484Y-72856136D01*
X88942713Y-72915546D01*
X88881161Y-72960267D01*
X88881159Y-72960269D01*
X88881158Y-72960269D01*
X88755894Y-73085533D01*
X88755894Y-73085534D01*
X88755892Y-73085536D01*
X88748462Y-73095763D01*
X88651761Y-73228859D01*
X88571332Y-73386707D01*
X88571331Y-73386710D01*
X88516589Y-73555193D01*
X88488875Y-73730171D01*
X88488875Y-73907328D01*
X86778775Y-73907328D01*
X86778775Y-73671644D01*
X86740373Y-73379950D01*
X86664225Y-73095763D01*
X86659988Y-73085533D01*
X86551640Y-72823955D01*
X86551632Y-72823939D01*
X86404534Y-72569160D01*
X86404530Y-72569153D01*
X86273762Y-72398733D01*
X86225426Y-72335740D01*
X86225420Y-72335733D01*
X86017391Y-72127704D01*
X86017384Y-72127698D01*
X85783980Y-71948601D01*
X85783978Y-71948599D01*
X85783972Y-71948595D01*
X85783967Y-71948592D01*
X85783964Y-71948590D01*
X85529185Y-71801492D01*
X85529169Y-71801484D01*
X85257369Y-71688902D01*
X84973171Y-71612751D01*
X84681491Y-71574351D01*
X84681486Y-71574350D01*
X84681481Y-71574350D01*
X84387269Y-71574350D01*
X84387263Y-71574350D01*
X84387258Y-71574351D01*
X84095578Y-71612751D01*
X83811380Y-71688902D01*
X83539580Y-71801484D01*
X83539564Y-71801492D01*
X83284785Y-71948590D01*
X83284769Y-71948601D01*
X83051366Y-72127697D01*
X82901631Y-72277432D01*
X82840308Y-72310916D01*
X82770616Y-72305932D01*
X82714683Y-72264060D01*
X82690266Y-72198596D01*
X82700216Y-72140347D01*
X82701442Y-72137523D01*
X82701447Y-72137514D01*
X82704934Y-72127704D01*
X82768586Y-71948601D01*
X82799967Y-71860304D01*
X82799967Y-71860299D01*
X82799970Y-71860293D01*
X82835585Y-71688900D01*
X82859823Y-71572261D01*
X82879900Y-71278750D01*
X82859823Y-70985239D01*
X82831552Y-70849190D01*
X82799970Y-70697206D01*
X82799965Y-70697190D01*
X82729795Y-70499751D01*
X82701447Y-70419986D01*
X82566097Y-70158774D01*
X82566096Y-70158772D01*
X82566092Y-70158766D01*
X82396442Y-69918426D01*
X82195631Y-69703411D01*
X81967420Y-69517748D01*
X81716055Y-69364889D01*
X81716050Y-69364887D01*
X81446220Y-69247684D01*
X81162935Y-69168311D01*
X81162931Y-69168310D01*
X81162930Y-69168310D01*
X81017201Y-69148280D01*
X80871474Y-69128250D01*
X80871473Y-69128250D01*
X80577277Y-69128250D01*
X80577276Y-69128250D01*
X80285820Y-69168310D01*
X80285814Y-69168311D01*
X80002529Y-69247684D01*
X79732699Y-69364887D01*
X79732694Y-69364889D01*
X79481329Y-69517748D01*
X79253118Y-69703411D01*
X79052307Y-69918426D01*
X78882657Y-70158766D01*
X78882653Y-70158772D01*
X78747302Y-70419987D01*
X78648784Y-70697190D01*
X78648779Y-70697206D01*
X78588927Y-70985236D01*
X78588926Y-70985238D01*
X78568850Y-71278750D01*
X78588926Y-71572261D01*
X78588927Y-71572263D01*
X78648779Y-71860293D01*
X78648784Y-71860309D01*
X78747302Y-72137512D01*
X78882653Y-72398727D01*
X78882657Y-72398733D01*
X79032736Y-72611347D01*
X79055315Y-72677468D01*
X79038561Y-72745299D01*
X78987795Y-72793305D01*
X78987728Y-72793339D01*
X78864486Y-72856134D01*
X78764220Y-72928982D01*
X78721161Y-72960267D01*
X78721159Y-72960269D01*
X78721158Y-72960269D01*
X78595894Y-73085533D01*
X78595894Y-73085534D01*
X78595892Y-73085536D01*
X78588462Y-73095763D01*
X78491761Y-73228859D01*
X78411332Y-73386707D01*
X78411331Y-73386710D01*
X78356589Y-73555193D01*
X78328875Y-73730171D01*
X78328875Y-73907328D01*
X71689875Y-73907328D01*
X71689875Y-73730171D01*
X71662161Y-73555195D01*
X71618153Y-73419749D01*
X71607418Y-73386710D01*
X71607417Y-73386707D01*
X71526988Y-73228859D01*
X71500653Y-73192612D01*
X71422858Y-73085536D01*
X71297589Y-72960267D01*
X71154265Y-72856136D01*
X71150240Y-72854085D01*
X70996417Y-72775707D01*
X70996414Y-72775706D01*
X70827931Y-72720964D01*
X70740442Y-72707107D01*
X70652954Y-72693250D01*
X70475796Y-72693250D01*
X70417470Y-72702488D01*
X70300818Y-72720964D01*
X70132335Y-72775706D01*
X70132332Y-72775707D01*
X69974484Y-72856136D01*
X69892713Y-72915546D01*
X69831161Y-72960267D01*
X69831159Y-72960269D01*
X69831158Y-72960269D01*
X69705894Y-73085533D01*
X69705894Y-73085534D01*
X69705892Y-73085536D01*
X69698462Y-73095763D01*
X69601761Y-73228859D01*
X69521332Y-73386707D01*
X69521331Y-73386710D01*
X69466589Y-73555193D01*
X69438875Y-73730171D01*
X69438875Y-73907328D01*
X67728775Y-73907328D01*
X67728775Y-73671644D01*
X67690373Y-73379950D01*
X67614225Y-73095763D01*
X67609988Y-73085533D01*
X67501640Y-72823955D01*
X67501632Y-72823939D01*
X67354534Y-72569160D01*
X67354530Y-72569153D01*
X67223762Y-72398733D01*
X67175426Y-72335740D01*
X67175420Y-72335733D01*
X66967391Y-72127704D01*
X66967384Y-72127698D01*
X66733980Y-71948601D01*
X66733978Y-71948599D01*
X66733972Y-71948595D01*
X66733967Y-71948592D01*
X66733964Y-71948590D01*
X66479185Y-71801492D01*
X66479169Y-71801484D01*
X66207369Y-71688902D01*
X65923171Y-71612751D01*
X65631491Y-71574351D01*
X65631486Y-71574350D01*
X65631481Y-71574350D01*
X65337269Y-71574350D01*
X65337263Y-71574350D01*
X65337258Y-71574351D01*
X65045578Y-71612751D01*
X64761380Y-71688902D01*
X64489580Y-71801484D01*
X64489564Y-71801492D01*
X64234785Y-71948590D01*
X64234769Y-71948601D01*
X64001366Y-72127697D01*
X63851631Y-72277432D01*
X63790308Y-72310916D01*
X63720616Y-72305932D01*
X63664683Y-72264060D01*
X63640266Y-72198596D01*
X63650216Y-72140347D01*
X63651442Y-72137523D01*
X63651447Y-72137514D01*
X63654934Y-72127704D01*
X63718586Y-71948601D01*
X63749967Y-71860304D01*
X63749967Y-71860299D01*
X63749970Y-71860293D01*
X63785585Y-71688900D01*
X63809823Y-71572261D01*
X63829900Y-71278750D01*
X63809823Y-70985239D01*
X63781552Y-70849190D01*
X63749970Y-70697206D01*
X63749965Y-70697190D01*
X63679795Y-70499751D01*
X63651447Y-70419986D01*
X63516097Y-70158774D01*
X63516096Y-70158772D01*
X63516092Y-70158766D01*
X63346442Y-69918426D01*
X63145631Y-69703411D01*
X62917420Y-69517748D01*
X62666055Y-69364889D01*
X62666050Y-69364887D01*
X62396220Y-69247684D01*
X62112935Y-69168311D01*
X62112931Y-69168310D01*
X62112930Y-69168310D01*
X61967201Y-69148280D01*
X61821474Y-69128250D01*
X61821473Y-69128250D01*
X61527277Y-69128250D01*
X61527276Y-69128250D01*
X61235820Y-69168310D01*
X61235814Y-69168311D01*
X60952529Y-69247684D01*
X60682699Y-69364887D01*
X60682694Y-69364889D01*
X60431329Y-69517748D01*
X60203118Y-69703411D01*
X60002307Y-69918426D01*
X59832657Y-70158766D01*
X59832653Y-70158772D01*
X59697302Y-70419987D01*
X59598784Y-70697190D01*
X59598779Y-70697206D01*
X59538927Y-70985236D01*
X59538926Y-70985238D01*
X59518850Y-71278750D01*
X59538926Y-71572261D01*
X59538927Y-71572263D01*
X59598779Y-71860293D01*
X59598784Y-71860309D01*
X59697302Y-72137512D01*
X59832653Y-72398727D01*
X59832657Y-72398733D01*
X59982736Y-72611347D01*
X60005315Y-72677468D01*
X59988561Y-72745299D01*
X59937795Y-72793305D01*
X59937728Y-72793339D01*
X59814486Y-72856134D01*
X59714220Y-72928982D01*
X59671161Y-72960267D01*
X59671159Y-72960269D01*
X59671158Y-72960269D01*
X59545894Y-73085533D01*
X59545894Y-73085534D01*
X59545892Y-73085536D01*
X59538462Y-73095763D01*
X59441761Y-73228859D01*
X59361332Y-73386707D01*
X59361331Y-73386710D01*
X59306589Y-73555193D01*
X59278875Y-73730171D01*
X59278875Y-73907328D01*
X56459875Y-73907328D01*
X56459875Y-68738750D01*
X65868850Y-68738750D01*
X65888926Y-69032261D01*
X65888927Y-69032263D01*
X65948779Y-69320293D01*
X65948784Y-69320309D01*
X66047302Y-69597512D01*
X66182653Y-69858727D01*
X66182657Y-69858733D01*
X66352307Y-70099073D01*
X66553118Y-70314088D01*
X66680759Y-70417931D01*
X66781326Y-70499749D01*
X66781328Y-70499750D01*
X66781329Y-70499751D01*
X67032694Y-70652610D01*
X67032699Y-70652612D01*
X67302529Y-70769815D01*
X67302534Y-70769817D01*
X67585820Y-70849190D01*
X67842056Y-70884409D01*
X67877276Y-70889250D01*
X67877277Y-70889250D01*
X68171474Y-70889250D01*
X68202895Y-70884930D01*
X68462930Y-70849190D01*
X68746216Y-70769817D01*
X69016057Y-70652609D01*
X69267424Y-70499749D01*
X69495635Y-70314085D01*
X69696440Y-70099076D01*
X69866097Y-69858726D01*
X70001447Y-69597514D01*
X70099967Y-69320304D01*
X70099967Y-69320299D01*
X70099970Y-69320293D01*
X70139876Y-69128250D01*
X70159823Y-69032261D01*
X70179900Y-68738750D01*
X84918850Y-68738750D01*
X84938926Y-69032261D01*
X84938927Y-69032263D01*
X84998779Y-69320293D01*
X84998784Y-69320309D01*
X85097302Y-69597512D01*
X85232653Y-69858727D01*
X85232657Y-69858733D01*
X85402307Y-70099073D01*
X85603118Y-70314088D01*
X85730759Y-70417931D01*
X85831326Y-70499749D01*
X85831328Y-70499750D01*
X85831329Y-70499751D01*
X86082694Y-70652610D01*
X86082699Y-70652612D01*
X86352529Y-70769815D01*
X86352534Y-70769817D01*
X86635820Y-70849190D01*
X86892056Y-70884409D01*
X86927276Y-70889250D01*
X86927277Y-70889250D01*
X87221474Y-70889250D01*
X87252895Y-70884930D01*
X87512930Y-70849190D01*
X87796216Y-70769817D01*
X88066057Y-70652609D01*
X88317424Y-70499749D01*
X88545635Y-70314085D01*
X88746440Y-70099076D01*
X88916097Y-69858726D01*
X89051447Y-69597514D01*
X89149967Y-69320304D01*
X89149967Y-69320299D01*
X89149970Y-69320293D01*
X89189876Y-69128250D01*
X89209823Y-69032261D01*
X89229900Y-68738750D01*
X103968850Y-68738750D01*
X103988926Y-69032261D01*
X103988927Y-69032263D01*
X104048779Y-69320293D01*
X104048784Y-69320309D01*
X104147302Y-69597512D01*
X104282653Y-69858727D01*
X104282657Y-69858733D01*
X104452307Y-70099073D01*
X104653118Y-70314088D01*
X104780759Y-70417931D01*
X104881326Y-70499749D01*
X104881328Y-70499750D01*
X104881329Y-70499751D01*
X105132694Y-70652610D01*
X105132699Y-70652612D01*
X105402529Y-70769815D01*
X105402534Y-70769817D01*
X105685820Y-70849190D01*
X105942056Y-70884409D01*
X105977276Y-70889250D01*
X105977277Y-70889250D01*
X106271474Y-70889250D01*
X106302895Y-70884930D01*
X106562930Y-70849190D01*
X106846216Y-70769817D01*
X107116057Y-70652609D01*
X107367424Y-70499749D01*
X107595635Y-70314085D01*
X107796440Y-70099076D01*
X107966097Y-69858726D01*
X108101447Y-69597514D01*
X108199967Y-69320304D01*
X108199967Y-69320299D01*
X108199970Y-69320293D01*
X108239876Y-69128250D01*
X108259823Y-69032261D01*
X108279900Y-68738750D01*
X123018850Y-68738750D01*
X123038926Y-69032261D01*
X123038927Y-69032263D01*
X123098779Y-69320293D01*
X123098784Y-69320309D01*
X123197302Y-69597512D01*
X123332653Y-69858727D01*
X123332657Y-69858733D01*
X123502307Y-70099073D01*
X123703118Y-70314088D01*
X123830759Y-70417931D01*
X123931326Y-70499749D01*
X123931328Y-70499750D01*
X123931329Y-70499751D01*
X124182694Y-70652610D01*
X124182699Y-70652612D01*
X124452529Y-70769815D01*
X124452534Y-70769817D01*
X124735820Y-70849190D01*
X124992056Y-70884409D01*
X125027276Y-70889250D01*
X125027277Y-70889250D01*
X125321474Y-70889250D01*
X125352895Y-70884930D01*
X125612930Y-70849190D01*
X125896216Y-70769817D01*
X126166057Y-70652609D01*
X126417424Y-70499749D01*
X126645635Y-70314085D01*
X126846440Y-70099076D01*
X127016097Y-69858726D01*
X127151447Y-69597514D01*
X127249967Y-69320304D01*
X127249967Y-69320299D01*
X127249970Y-69320293D01*
X127289876Y-69128250D01*
X127309823Y-69032261D01*
X127329900Y-68738750D01*
X149212600Y-68738750D01*
X149232676Y-69032261D01*
X149232677Y-69032263D01*
X149292529Y-69320293D01*
X149292534Y-69320309D01*
X149391052Y-69597512D01*
X149526403Y-69858727D01*
X149526407Y-69858733D01*
X149696057Y-70099073D01*
X149896868Y-70314088D01*
X150024509Y-70417931D01*
X150125076Y-70499749D01*
X150125078Y-70499750D01*
X150125079Y-70499751D01*
X150376444Y-70652610D01*
X150376449Y-70652612D01*
X150646279Y-70769815D01*
X150646284Y-70769817D01*
X150929570Y-70849190D01*
X151185806Y-70884409D01*
X151221026Y-70889250D01*
X151221027Y-70889250D01*
X151515224Y-70889250D01*
X151546645Y-70884930D01*
X151806680Y-70849190D01*
X152089966Y-70769817D01*
X152359807Y-70652609D01*
X152611174Y-70499749D01*
X152839385Y-70314085D01*
X153040190Y-70099076D01*
X153209847Y-69858726D01*
X153345197Y-69597514D01*
X153443717Y-69320304D01*
X153443717Y-69320299D01*
X153443720Y-69320293D01*
X153483626Y-69128250D01*
X153503573Y-69032261D01*
X153523650Y-68738750D01*
X153503573Y-68445239D01*
X153486214Y-68361705D01*
X153443720Y-68157206D01*
X153443715Y-68157190D01*
X153345197Y-67879987D01*
X153345197Y-67879986D01*
X153209847Y-67618774D01*
X153209846Y-67618772D01*
X153209842Y-67618766D01*
X153040192Y-67378426D01*
X152839381Y-67163411D01*
X152611170Y-66977748D01*
X152359805Y-66824889D01*
X152359800Y-66824887D01*
X152089970Y-66707684D01*
X151806685Y-66628311D01*
X151806681Y-66628310D01*
X151806680Y-66628310D01*
X151660951Y-66608280D01*
X151515224Y-66588250D01*
X151515223Y-66588250D01*
X151221027Y-66588250D01*
X151221026Y-66588250D01*
X150929570Y-66628310D01*
X150929564Y-66628311D01*
X150646279Y-66707684D01*
X150376449Y-66824887D01*
X150376444Y-66824889D01*
X150125079Y-66977748D01*
X149896868Y-67163411D01*
X149696057Y-67378426D01*
X149526407Y-67618766D01*
X149526403Y-67618772D01*
X149391052Y-67879987D01*
X149292534Y-68157190D01*
X149292529Y-68157206D01*
X149232677Y-68445236D01*
X149232676Y-68445238D01*
X149212600Y-68738750D01*
X127329900Y-68738750D01*
X127309823Y-68445239D01*
X127292464Y-68361705D01*
X127249970Y-68157206D01*
X127249965Y-68157190D01*
X127151447Y-67879987D01*
X127151447Y-67879986D01*
X127016097Y-67618774D01*
X127016096Y-67618772D01*
X127016092Y-67618766D01*
X126846442Y-67378426D01*
X126645631Y-67163411D01*
X126417420Y-66977748D01*
X126166055Y-66824889D01*
X126166050Y-66824887D01*
X125896220Y-66707684D01*
X125612935Y-66628311D01*
X125612931Y-66628310D01*
X125612930Y-66628310D01*
X125467201Y-66608280D01*
X125321474Y-66588250D01*
X125321473Y-66588250D01*
X125027277Y-66588250D01*
X125027276Y-66588250D01*
X124735820Y-66628310D01*
X124735814Y-66628311D01*
X124452529Y-66707684D01*
X124182699Y-66824887D01*
X124182694Y-66824889D01*
X123931329Y-66977748D01*
X123703118Y-67163411D01*
X123502307Y-67378426D01*
X123332657Y-67618766D01*
X123332653Y-67618772D01*
X123197302Y-67879987D01*
X123098784Y-68157190D01*
X123098779Y-68157206D01*
X123038927Y-68445236D01*
X123038926Y-68445238D01*
X123018850Y-68738750D01*
X108279900Y-68738750D01*
X108259823Y-68445239D01*
X108242464Y-68361705D01*
X108199970Y-68157206D01*
X108199965Y-68157190D01*
X108101447Y-67879987D01*
X108101447Y-67879986D01*
X107966097Y-67618774D01*
X107966096Y-67618772D01*
X107966092Y-67618766D01*
X107796442Y-67378426D01*
X107595631Y-67163411D01*
X107367420Y-66977748D01*
X107116055Y-66824889D01*
X107116050Y-66824887D01*
X106846220Y-66707684D01*
X106562935Y-66628311D01*
X106562931Y-66628310D01*
X106562930Y-66628310D01*
X106417201Y-66608280D01*
X106271474Y-66588250D01*
X106271473Y-66588250D01*
X105977277Y-66588250D01*
X105977276Y-66588250D01*
X105685820Y-66628310D01*
X105685814Y-66628311D01*
X105402529Y-66707684D01*
X105132699Y-66824887D01*
X105132694Y-66824889D01*
X104881329Y-66977748D01*
X104653118Y-67163411D01*
X104452307Y-67378426D01*
X104282657Y-67618766D01*
X104282653Y-67618772D01*
X104147302Y-67879987D01*
X104048784Y-68157190D01*
X104048779Y-68157206D01*
X103988927Y-68445236D01*
X103988926Y-68445238D01*
X103968850Y-68738750D01*
X89229900Y-68738750D01*
X89209823Y-68445239D01*
X89192464Y-68361705D01*
X89149970Y-68157206D01*
X89149965Y-68157190D01*
X89051447Y-67879987D01*
X89051447Y-67879986D01*
X88916097Y-67618774D01*
X88916096Y-67618772D01*
X88916092Y-67618766D01*
X88746442Y-67378426D01*
X88545631Y-67163411D01*
X88317420Y-66977748D01*
X88066055Y-66824889D01*
X88066050Y-66824887D01*
X87796220Y-66707684D01*
X87512935Y-66628311D01*
X87512931Y-66628310D01*
X87512930Y-66628310D01*
X87367201Y-66608280D01*
X87221474Y-66588250D01*
X87221473Y-66588250D01*
X86927277Y-66588250D01*
X86927276Y-66588250D01*
X86635820Y-66628310D01*
X86635814Y-66628311D01*
X86352529Y-66707684D01*
X86082699Y-66824887D01*
X86082694Y-66824889D01*
X85831329Y-66977748D01*
X85603118Y-67163411D01*
X85402307Y-67378426D01*
X85232657Y-67618766D01*
X85232653Y-67618772D01*
X85097302Y-67879987D01*
X84998784Y-68157190D01*
X84998779Y-68157206D01*
X84938927Y-68445236D01*
X84938926Y-68445238D01*
X84918850Y-68738750D01*
X70179900Y-68738750D01*
X70159823Y-68445239D01*
X70142464Y-68361705D01*
X70099970Y-68157206D01*
X70099965Y-68157190D01*
X70001447Y-67879987D01*
X70001447Y-67879986D01*
X69866097Y-67618774D01*
X69866096Y-67618772D01*
X69866092Y-67618766D01*
X69696442Y-67378426D01*
X69495631Y-67163411D01*
X69267420Y-66977748D01*
X69016055Y-66824889D01*
X69016050Y-66824887D01*
X68746220Y-66707684D01*
X68462935Y-66628311D01*
X68462931Y-66628310D01*
X68462930Y-66628310D01*
X68317201Y-66608280D01*
X68171474Y-66588250D01*
X68171473Y-66588250D01*
X67877277Y-66588250D01*
X67877276Y-66588250D01*
X67585820Y-66628310D01*
X67585814Y-66628311D01*
X67302529Y-66707684D01*
X67032699Y-66824887D01*
X67032694Y-66824889D01*
X66781329Y-66977748D01*
X66553118Y-67163411D01*
X66352307Y-67378426D01*
X66182657Y-67618766D01*
X66182653Y-67618772D01*
X66047302Y-67879987D01*
X65948784Y-68157190D01*
X65948779Y-68157206D01*
X65888927Y-68445236D01*
X65888926Y-68445238D01*
X65868850Y-68738750D01*
X56459875Y-68738750D01*
X56459875Y-66868689D01*
X56459877Y-66868648D01*
X56459876Y-66859626D01*
X56459878Y-66859622D01*
X56459875Y-66797786D01*
X56460140Y-66789682D01*
X56464190Y-66727858D01*
X56476440Y-66540838D01*
X56478554Y-66524781D01*
X56526406Y-66284175D01*
X56530597Y-66268534D01*
X56609446Y-66036237D01*
X56615644Y-66021271D01*
X56724138Y-65801257D01*
X56732238Y-65787225D01*
X56868527Y-65583252D01*
X56878389Y-65570400D01*
X57040132Y-65385967D01*
X57051590Y-65374509D01*
X57236023Y-65212767D01*
X57248875Y-65202905D01*
X57452849Y-65066616D01*
X57466881Y-65058516D01*
X57686897Y-64950021D01*
X57701857Y-64943825D01*
X57934164Y-64864974D01*
X57949795Y-64860786D01*
X58190406Y-64812933D01*
X58206458Y-64810820D01*
X58455386Y-64794514D01*
X58463487Y-64794250D01*
X58525246Y-64794253D01*
X58525250Y-64794251D01*
X58533485Y-64794252D01*
X58533530Y-64794250D01*
X162930984Y-64794250D01*
X162930988Y-64794251D01*
G37*
%TD.AperFunction*%
%TD*%
M02*
