%TF.GenerationSoftware,KiCad,Pcbnew,8.0.1-8.0.1-0~ubuntu23.10.1*%
%TF.CreationDate,2024-04-27T18:00:35-04:00*%
%TF.ProjectId,FunnyNumpad,46756e6e-794e-4756-9d70-61642e6b6963,rev?*%
%TF.SameCoordinates,Original*%
%TF.FileFunction,Soldermask,Top*%
%TF.FilePolarity,Negative*%
%FSLAX46Y46*%
G04 Gerber Fmt 4.6, Leading zero omitted, Abs format (unit mm)*
G04 Created by KiCad (PCBNEW 8.0.1-8.0.1-0~ubuntu23.10.1) date 2024-04-27 18:00:35*
%MOMM*%
%LPD*%
G01*
G04 APERTURE LIST*
%ADD10C,3.987800*%
%ADD11C,1.500000*%
%ADD12C,3.300000*%
%ADD13C,1.750000*%
%ADD14C,0.990600*%
G04 APERTURE END LIST*
D10*
%TO.C,STAB10*%
X161845625Y-90487500D03*
X161845625Y-114300000D03*
%TD*%
D11*
%TO.C,SW201*%
X61984375Y-77818750D03*
X61984375Y-75318750D03*
X68984375Y-75318750D03*
X68984375Y-77818750D03*
D10*
X65484375Y-73818750D03*
%TD*%
D11*
%TO.C,SW202*%
X61984375Y-115918750D03*
X61984375Y-113418750D03*
X68984375Y-113418750D03*
X68984375Y-115918750D03*
D10*
X65484375Y-111918750D03*
%TD*%
D12*
%TO.C,MX12*%
X91836875Y-106838750D03*
X85486875Y-109378750D03*
D13*
X84216875Y-111918750D03*
D10*
X89296875Y-111918750D03*
D13*
X94376875Y-111918750D03*
%TD*%
D12*
%TO.C,MX11*%
X68024375Y-106838750D03*
X61674375Y-109378750D03*
D13*
X60404375Y-111918750D03*
D10*
X65484375Y-111918750D03*
D13*
X70564375Y-111918750D03*
%TD*%
D12*
%TO.C,MX3*%
X106124375Y-68738750D03*
X99774375Y-71278750D03*
D13*
X98504375Y-73818750D03*
D10*
X103584375Y-73818750D03*
D13*
X108664375Y-73818750D03*
%TD*%
D12*
%TO.C,MX10*%
X156130625Y-97313750D03*
X149780625Y-99853750D03*
D13*
X148510625Y-102393750D03*
D10*
X153590625Y-102393750D03*
D13*
X158670625Y-102393750D03*
%TD*%
D12*
%TO.C,MX13*%
X115649375Y-106838750D03*
X109299375Y-109378750D03*
D13*
X108029375Y-111918750D03*
D10*
X113109375Y-111918750D03*
D13*
X118189375Y-111918750D03*
%TD*%
D12*
%TO.C,MX7*%
X91836875Y-87788750D03*
X85486875Y-90328750D03*
D13*
X84216875Y-92868750D03*
D10*
X89296875Y-92868750D03*
D13*
X94376875Y-92868750D03*
%TD*%
D12*
%TO.C,MX9*%
X129936875Y-87788750D03*
X123586875Y-90328750D03*
D13*
X122316875Y-92868750D03*
D10*
X127396875Y-92868750D03*
D13*
X132476875Y-92868750D03*
%TD*%
D12*
%TO.C,MX1*%
X68024375Y-68738750D03*
X61674375Y-71278750D03*
D13*
X60404375Y-73818750D03*
D10*
X65484375Y-73818750D03*
D13*
X70564375Y-73818750D03*
%TD*%
D12*
%TO.C,MX4*%
X125174375Y-68738750D03*
X118824375Y-71278750D03*
D13*
X117554375Y-73818750D03*
D10*
X122634375Y-73818750D03*
D13*
X127714375Y-73818750D03*
%TD*%
D12*
%TO.C,MX8*%
X110886875Y-87788750D03*
X104536875Y-90328750D03*
D13*
X103266875Y-92868750D03*
D10*
X108346875Y-92868750D03*
D13*
X113426875Y-92868750D03*
%TD*%
D14*
%TO.C,J102*%
X157321250Y-91503500D03*
X157321250Y-89471500D03*
X152241250Y-90487500D03*
%TD*%
D12*
%TO.C,MX6*%
X70405625Y-87788750D03*
X64055625Y-90328750D03*
D13*
X62785625Y-92868750D03*
D10*
X67865625Y-92868750D03*
D13*
X72945625Y-92868750D03*
%TD*%
D12*
%TO.C,MX5*%
X151368125Y-68738750D03*
X145018125Y-71278750D03*
D13*
X143748125Y-73818750D03*
D10*
X148828125Y-73818750D03*
D13*
X153908125Y-73818750D03*
%TD*%
D12*
%TO.C,MX14*%
X134699375Y-106838750D03*
X128349375Y-109378750D03*
D13*
X127079375Y-111918750D03*
D10*
X132159375Y-111918750D03*
D13*
X137239375Y-111918750D03*
%TD*%
D12*
%TO.C,MX2*%
X87074375Y-68738750D03*
X80724375Y-71278750D03*
D13*
X79454375Y-73818750D03*
D10*
X84534375Y-73818750D03*
D13*
X89614375Y-73818750D03*
%TD*%
M02*
