M48
; DRILL file {KiCad 8.0.1-8.0.1-0~ubuntu23.10.1} date 2024-04-27T18:00:35-0400
; FORMAT={-:-/ absolute / inch / decimal}
; #@! TF.CreationDate,2024-04-27T18:00:35-04:00
; #@! TF.GenerationSoftware,Kicad,Pcbnew,8.0.1-8.0.1-0~ubuntu23.10.1
; #@! TF.FileFunction,Plated,1,4,PTH
FMAT,2
INCH
; #@! TA.AperFunction,Plated,PTH,ComponentDrill
T1C0.0079
; #@! TA.AperFunction,Plated,PTH,ViaDrill
T2C0.0118
; #@! TA.AperFunction,Plated,PTH,ComponentDrill
T3C0.1181
; #@! TA.AperFunction,Plated,PTH,ComponentDrill
T4C0.1200
%
G90
G05
T1
X5.3981Y-3.8044
X5.3981Y-3.8438
X5.3981Y-3.8831
X5.4375Y-3.8044
X5.4375Y-3.8438
X5.4375Y-3.8831
X5.4769Y-3.8044
X5.4769Y-3.8438
X5.4769Y-3.8831
T2
X2.3776Y-4.6386
X2.3803Y-3.1012
X2.3976Y-3.2012
X2.4823Y-4.4654
X2.489Y-2.9654
X2.4969Y-4.7024
X2.6657Y-3.1311
X2.7165Y-3.1311
X2.8547Y-4.05
X2.9051Y-4.0508
X5.3685Y-3.628
X5.3685Y-3.715
X5.4276Y-3.9701
X5.435Y-3.5972
X5.45Y-4.0724
X5.4685Y-3.1287
X5.4728Y-3.5972
X5.5098Y-3.5539
X5.5104Y-3.9711
X5.5394Y-3.3622
X5.5732Y-3.9979
X5.5732Y-4.0381
X5.6531Y-4.2228
X5.7283Y-4.2228
X5.8488Y-3.4118
X6.0433Y-3.6213
X6.0433Y-3.7035
X6.0437Y-3.5035
X6.0469Y-3.1882
X6.0724Y-3.7551
X6.1437Y-3.5035
X6.2051Y-4.5736
X6.2528Y-4.5201
T3
X2.4281Y-2.8062
X2.4281Y-4.3062
X2.5219Y-3.5562
X2.6781Y-2.7062
X2.6781Y-4.2062
X2.7719Y-3.4562
X3.1781Y-2.8062
X3.3656Y-3.5562
X3.3656Y-4.3062
X3.4281Y-2.7062
X3.6156Y-3.4562
X3.6156Y-4.2062
X3.9281Y-2.8062
X4.1156Y-3.5562
X4.1781Y-2.7062
X4.3031Y-4.3062
X4.3656Y-3.4562
X4.5531Y-4.2062
X4.6781Y-2.8062
X4.8656Y-3.5562
X4.9281Y-2.7062
X5.0531Y-4.3062
X5.1156Y-3.4562
X5.3031Y-4.2062
X5.7094Y-2.8062
X5.8969Y-3.9312
X5.9594Y-2.7062
X6.1469Y-3.8312
T4
X5.7719Y-3.5625
X5.7719Y-4.5
M30
